<mxfile host="app.diagrams.net" modified="2023-11-14T07:41:02.524Z" agent="Mozilla/5.0 (Windows NT 10.0; Win64; x64) AppleWebKit/537.36 (KHTML, like Gecko) Chrome/119.0.0.0 Safari/537.36 Edg/119.0.0.0" etag="nYXvLoz7xv258GkBCx-8" version="22.1.0" type="github" pages="6">
  <diagram name="신호제어로직(최종)" id="G2jBfZiijnxDi7uMoeEo">
    <mxGraphModel dx="1122" dy="720" grid="1" gridSize="7" guides="1" tooltips="1" connect="1" arrows="1" fold="1" page="1" pageScale="1" pageWidth="850" pageHeight="1100" math="0" shadow="0">
      <root>
        <mxCell id="HRK4YUY4a56FCwcSoxxM-0" />
        <mxCell id="HRK4YUY4a56FCwcSoxxM-1" parent="HRK4YUY4a56FCwcSoxxM-0" />
        <mxCell id="HRK4YUY4a56FCwcSoxxM-2" value="" style="endArrow=none;html=1;rounded=0;" parent="HRK4YUY4a56FCwcSoxxM-1" edge="1">
          <mxGeometry width="50" height="50" relative="1" as="geometry">
            <mxPoint x="28" y="83" as="sourcePoint" />
            <mxPoint x="840" y="83" as="targetPoint" />
          </mxGeometry>
        </mxCell>
        <mxCell id="HRK4YUY4a56FCwcSoxxM-3" value="GNU" style="text;html=1;strokeColor=none;fillColor=none;align=center;verticalAlign=middle;whiteSpace=wrap;rounded=0;fontFamily=Helvetica;fontSize=11;fontColor=default;" parent="HRK4YUY4a56FCwcSoxxM-1" vertex="1">
          <mxGeometry x="64" y="59" width="40" height="11" as="geometry" />
        </mxCell>
        <mxCell id="HRK4YUY4a56FCwcSoxxM-4" value="" style="endArrow=none;html=1;rounded=0;" parent="HRK4YUY4a56FCwcSoxxM-1" edge="1">
          <mxGeometry width="50" height="50" relative="1" as="geometry">
            <mxPoint x="27" y="1344" as="sourcePoint" />
            <mxPoint x="27" y="58" as="targetPoint" />
          </mxGeometry>
        </mxCell>
        <mxCell id="HRK4YUY4a56FCwcSoxxM-5" value="GLMR-M" style="text;html=1;strokeColor=none;fillColor=none;align=center;verticalAlign=middle;whiteSpace=wrap;rounded=0;fontFamily=Helvetica;fontSize=11;fontColor=default;" parent="HRK4YUY4a56FCwcSoxxM-1" vertex="1">
          <mxGeometry x="117" y="59" width="47" height="11" as="geometry" />
        </mxCell>
        <mxCell id="HRK4YUY4a56FCwcSoxxM-6" value="GLMR-A" style="text;html=1;strokeColor=none;fillColor=none;align=center;verticalAlign=middle;whiteSpace=wrap;rounded=0;fontFamily=Helvetica;fontSize=11;fontColor=default;" parent="HRK4YUY4a56FCwcSoxxM-1" vertex="1">
          <mxGeometry x="174" y="59" width="47" height="11" as="geometry" />
        </mxCell>
        <mxCell id="HRK4YUY4a56FCwcSoxxM-7" value="GEU" style="text;html=1;strokeColor=none;fillColor=none;align=center;verticalAlign=middle;whiteSpace=wrap;rounded=0;fontFamily=Helvetica;fontSize=11;fontColor=default;" parent="HRK4YUY4a56FCwcSoxxM-1" vertex="1">
          <mxGeometry x="232" y="59" width="40" height="11" as="geometry" />
        </mxCell>
        <mxCell id="HRK4YUY4a56FCwcSoxxM-8" value="YLMR-M" style="text;html=1;strokeColor=none;fillColor=none;align=center;verticalAlign=middle;whiteSpace=wrap;rounded=0;fontFamily=Helvetica;fontSize=11;fontColor=default;" parent="HRK4YUY4a56FCwcSoxxM-1" vertex="1">
          <mxGeometry x="285" y="59" width="47" height="11" as="geometry" />
        </mxCell>
        <mxCell id="HRK4YUY4a56FCwcSoxxM-9" value="YLMR-A" style="text;html=1;strokeColor=none;fillColor=none;align=center;verticalAlign=middle;whiteSpace=wrap;rounded=0;fontFamily=Helvetica;fontSize=11;fontColor=default;" parent="HRK4YUY4a56FCwcSoxxM-1" vertex="1">
          <mxGeometry x="341" y="60" width="47" height="12" as="geometry" />
        </mxCell>
        <mxCell id="HRK4YUY4a56FCwcSoxxM-11" value="BL2" style="text;html=1;strokeColor=none;fillColor=none;align=center;verticalAlign=middle;whiteSpace=wrap;rounded=0;fontFamily=Helvetica;fontSize=11;fontColor=default;" parent="HRK4YUY4a56FCwcSoxxM-1" vertex="1">
          <mxGeometry x="564" y="61" width="47" height="9" as="geometry" />
        </mxCell>
        <mxCell id="HRK4YUY4a56FCwcSoxxM-12" value="BL1" style="text;html=1;strokeColor=none;fillColor=none;align=center;verticalAlign=middle;whiteSpace=wrap;rounded=0;fontFamily=Helvetica;fontSize=11;fontColor=default;" parent="HRK4YUY4a56FCwcSoxxM-1" vertex="1">
          <mxGeometry x="621" y="61" width="47" height="10" as="geometry" />
        </mxCell>
        <mxCell id="HRK4YUY4a56FCwcSoxxM-14" value="PR.AR" style="text;html=1;strokeColor=none;fillColor=none;align=center;verticalAlign=middle;whiteSpace=wrap;rounded=0;fontFamily=Helvetica;fontSize=11;fontColor=default;" parent="HRK4YUY4a56FCwcSoxxM-1" vertex="1">
          <mxGeometry x="65" y="115" width="40" height="11" as="geometry" />
        </mxCell>
        <mxCell id="HRK4YUY4a56FCwcSoxxM-15" value="PR" style="text;html=1;strokeColor=none;fillColor=none;align=center;verticalAlign=middle;whiteSpace=wrap;rounded=0;fontFamily=Helvetica;fontSize=11;fontColor=default;" parent="HRK4YUY4a56FCwcSoxxM-1" vertex="1">
          <mxGeometry x="784" y="123" width="47" height="13" as="geometry" />
        </mxCell>
        <mxCell id="HRK4YUY4a56FCwcSoxxM-16" value="EMS" style="text;html=1;strokeColor=none;fillColor=none;align=center;verticalAlign=middle;whiteSpace=wrap;rounded=0;fontFamily=Helvetica;fontSize=11;fontColor=default;" parent="HRK4YUY4a56FCwcSoxxM-1" vertex="1">
          <mxGeometry x="64" y="171" width="40" height="13" as="geometry" />
        </mxCell>
        <mxCell id="HRK4YUY4a56FCwcSoxxM-17" value="TR" style="text;html=1;strokeColor=none;fillColor=none;align=center;verticalAlign=middle;whiteSpace=wrap;rounded=0;fontFamily=Helvetica;fontSize=11;fontColor=default;" parent="HRK4YUY4a56FCwcSoxxM-1" vertex="1">
          <mxGeometry x="116" y="171" width="47" height="13" as="geometry" />
        </mxCell>
        <mxCell id="HRK4YUY4a56FCwcSoxxM-18" value="DIR" style="text;html=1;strokeColor=none;fillColor=none;align=center;verticalAlign=middle;whiteSpace=wrap;rounded=0;fontFamily=Helvetica;fontSize=11;fontColor=default;" parent="HRK4YUY4a56FCwcSoxxM-1" vertex="1">
          <mxGeometry x="173" y="171" width="47" height="13" as="geometry" />
        </mxCell>
        <mxCell id="HRK4YUY4a56FCwcSoxxM-19" value="FP" style="text;html=1;strokeColor=none;fillColor=none;align=center;verticalAlign=middle;whiteSpace=wrap;rounded=0;fontFamily=Helvetica;fontSize=11;fontColor=default;" parent="HRK4YUY4a56FCwcSoxxM-1" vertex="1">
          <mxGeometry x="289" y="171" width="40" height="13" as="geometry" />
        </mxCell>
        <mxCell id="HRK4YUY4a56FCwcSoxxM-20" value="FP1" style="text;html=1;strokeColor=none;fillColor=none;align=center;verticalAlign=middle;whiteSpace=wrap;rounded=0;fontFamily=Helvetica;fontSize=11;fontColor=default;" parent="HRK4YUY4a56FCwcSoxxM-1" vertex="1">
          <mxGeometry x="341" y="171" width="47" height="13" as="geometry" />
        </mxCell>
        <mxCell id="HRK4YUY4a56FCwcSoxxM-21" value="FP2" style="text;html=1;strokeColor=none;fillColor=none;align=center;verticalAlign=middle;whiteSpace=wrap;rounded=0;fontFamily=Helvetica;fontSize=11;fontColor=default;" parent="HRK4YUY4a56FCwcSoxxM-1" vertex="1">
          <mxGeometry x="397" y="170" width="47" height="14" as="geometry" />
        </mxCell>
        <mxCell id="HRK4YUY4a56FCwcSoxxM-22" value="FP3" style="text;html=1;strokeColor=none;fillColor=none;align=center;verticalAlign=middle;whiteSpace=wrap;rounded=0;fontFamily=Helvetica;fontSize=11;fontColor=default;" parent="HRK4YUY4a56FCwcSoxxM-1" vertex="1">
          <mxGeometry x="457" y="171" width="40" height="13" as="geometry" />
        </mxCell>
        <mxCell id="HRK4YUY4a56FCwcSoxxM-23" value="&lt;font style=&quot;font-size: 10px;&quot;&gt;BL1.AR(0)&lt;/font&gt;" style="text;html=1;strokeColor=none;fillColor=none;align=center;verticalAlign=middle;whiteSpace=wrap;rounded=0;fontFamily=Helvetica;fontSize=11;fontColor=default;" parent="HRK4YUY4a56FCwcSoxxM-1" vertex="1">
          <mxGeometry x="775" y="169" width="47" height="12" as="geometry" />
        </mxCell>
        <mxCell id="HRK4YUY4a56FCwcSoxxM-24" value="" style="endArrow=none;html=1;rounded=0;" parent="HRK4YUY4a56FCwcSoxxM-1" edge="1">
          <mxGeometry width="50" height="50" relative="1" as="geometry">
            <mxPoint x="252" y="196" as="sourcePoint" />
            <mxPoint x="532" y="196" as="targetPoint" />
            <Array as="points">
              <mxPoint x="252" y="238" />
              <mxPoint x="532" y="238" />
            </Array>
          </mxGeometry>
        </mxCell>
        <mxCell id="HRK4YUY4a56FCwcSoxxM-25" value="BL1" style="text;html=1;strokeColor=none;fillColor=none;align=center;verticalAlign=middle;whiteSpace=wrap;rounded=0;fontFamily=Helvetica;fontSize=11;fontColor=default;" parent="HRK4YUY4a56FCwcSoxxM-1" vertex="1">
          <mxGeometry x="285" y="216" width="47" height="10" as="geometry" />
        </mxCell>
        <mxCell id="HRK4YUY4a56FCwcSoxxM-26" value="BL1.RR" style="text;html=1;strokeColor=none;fillColor=none;align=center;verticalAlign=middle;whiteSpace=wrap;rounded=0;fontFamily=Helvetica;fontSize=11;fontColor=default;" parent="HRK4YUY4a56FCwcSoxxM-1" vertex="1">
          <mxGeometry x="121" y="251" width="40" height="17" as="geometry" />
        </mxCell>
        <mxCell id="HRK4YUY4a56FCwcSoxxM-27" value="CPT" style="text;html=1;strokeColor=none;fillColor=none;align=center;verticalAlign=middle;whiteSpace=wrap;rounded=0;fontFamily=Helvetica;fontSize=11;fontColor=default;" parent="HRK4YUY4a56FCwcSoxxM-1" vertex="1">
          <mxGeometry x="288" y="255" width="40" height="14" as="geometry" />
        </mxCell>
        <mxCell id="HRK4YUY4a56FCwcSoxxM-28" value="전방.T-SW" style="text;html=1;strokeColor=none;fillColor=none;align=center;verticalAlign=middle;whiteSpace=wrap;rounded=0;fontFamily=Helvetica;fontSize=11;fontColor=default;" parent="HRK4YUY4a56FCwcSoxxM-1" vertex="1">
          <mxGeometry x="390" y="254" width="62" height="15" as="geometry" />
        </mxCell>
        <mxCell id="HRK4YUY4a56FCwcSoxxM-29" value="BL1" style="text;html=1;strokeColor=none;fillColor=none;align=center;verticalAlign=middle;whiteSpace=wrap;rounded=0;fontFamily=Helvetica;fontSize=11;fontColor=default;" parent="HRK4YUY4a56FCwcSoxxM-1" vertex="1">
          <mxGeometry x="785" y="262" width="47" height="13" as="geometry" />
        </mxCell>
        <mxCell id="HRK4YUY4a56FCwcSoxxM-30" value="" style="endArrow=none;html=1;rounded=0;" parent="HRK4YUY4a56FCwcSoxxM-1" edge="1">
          <mxGeometry width="50" height="50" relative="1" as="geometry">
            <mxPoint x="252" y="280" as="sourcePoint" />
            <mxPoint x="364" y="280" as="targetPoint" />
            <Array as="points">
              <mxPoint x="252" y="322" />
              <mxPoint x="364" y="322" />
            </Array>
          </mxGeometry>
        </mxCell>
        <mxCell id="HRK4YUY4a56FCwcSoxxM-31" value="ECPT" style="text;html=1;strokeColor=none;fillColor=none;align=center;verticalAlign=middle;whiteSpace=wrap;rounded=0;fontFamily=Helvetica;fontSize=11;fontColor=default;" parent="HRK4YUY4a56FCwcSoxxM-1" vertex="1">
          <mxGeometry x="285" y="299" width="47" height="12" as="geometry" />
        </mxCell>
        <mxCell id="HRK4YUY4a56FCwcSoxxM-32" value="TR" style="text;html=1;strokeColor=none;fillColor=none;align=center;verticalAlign=middle;whiteSpace=wrap;rounded=0;fontFamily=Helvetica;fontSize=11;fontColor=default;" parent="HRK4YUY4a56FCwcSoxxM-1" vertex="1">
          <mxGeometry x="64" y="338" width="40" height="14" as="geometry" />
        </mxCell>
        <mxCell id="HRK4YUY4a56FCwcSoxxM-33" value="DIR" style="text;html=1;strokeColor=none;fillColor=none;align=center;verticalAlign=middle;whiteSpace=wrap;rounded=0;fontFamily=Helvetica;fontSize=11;fontColor=default;" parent="HRK4YUY4a56FCwcSoxxM-1" vertex="1">
          <mxGeometry x="120" y="338" width="40" height="16" as="geometry" />
        </mxCell>
        <mxCell id="HRK4YUY4a56FCwcSoxxM-35" value="FMPR.AR" style="text;html=1;strokeColor=none;fillColor=none;align=center;verticalAlign=middle;whiteSpace=wrap;rounded=0;fontFamily=Helvetica;fontSize=11;fontColor=default;" parent="HRK4YUY4a56FCwcSoxxM-1" vertex="1">
          <mxGeometry x="63" y="392" width="40" height="16" as="geometry" />
        </mxCell>
        <mxCell id="HRK4YUY4a56FCwcSoxxM-36" value="FMPR" style="text;html=1;strokeColor=none;fillColor=none;align=center;verticalAlign=middle;whiteSpace=wrap;rounded=0;fontFamily=Helvetica;fontSize=11;fontColor=default;" parent="HRK4YUY4a56FCwcSoxxM-1" vertex="1">
          <mxGeometry x="785" y="401" width="47" height="13" as="geometry" />
        </mxCell>
        <mxCell id="HRK4YUY4a56FCwcSoxxM-38" value="FMPR.RR" style="text;html=1;strokeColor=none;fillColor=none;align=center;verticalAlign=middle;whiteSpace=wrap;rounded=0;fontFamily=Helvetica;fontSize=11;fontColor=default;" parent="HRK4YUY4a56FCwcSoxxM-1" vertex="1">
          <mxGeometry x="118" y="392" width="47" height="17" as="geometry" />
        </mxCell>
        <mxCell id="HRK4YUY4a56FCwcSoxxM-39" value="TR" style="text;html=1;strokeColor=none;fillColor=none;align=center;verticalAlign=middle;whiteSpace=wrap;rounded=0;fontFamily=Helvetica;fontSize=11;fontColor=default;" parent="HRK4YUY4a56FCwcSoxxM-1" vertex="1">
          <mxGeometry x="65" y="476" width="40" height="17" as="geometry" />
        </mxCell>
        <mxCell id="HRK4YUY4a56FCwcSoxxM-40" value="DIR" style="text;html=1;strokeColor=none;fillColor=none;align=center;verticalAlign=middle;whiteSpace=wrap;rounded=0;fontFamily=Helvetica;fontSize=11;fontColor=default;" parent="HRK4YUY4a56FCwcSoxxM-1" vertex="1">
          <mxGeometry x="120" y="478" width="40" height="16" as="geometry" />
        </mxCell>
        <mxCell id="HRK4YUY4a56FCwcSoxxM-42" value="BL2.RR" style="text;html=1;strokeColor=none;fillColor=none;align=center;verticalAlign=middle;whiteSpace=wrap;rounded=0;fontFamily=Helvetica;fontSize=11;fontColor=default;" parent="HRK4YUY4a56FCwcSoxxM-1" vertex="1">
          <mxGeometry x="122" y="533" width="40" height="16" as="geometry" />
        </mxCell>
        <mxCell id="HRK4YUY4a56FCwcSoxxM-43" value="BL2" style="text;html=1;strokeColor=none;fillColor=none;align=center;verticalAlign=middle;whiteSpace=wrap;rounded=0;fontFamily=Helvetica;fontSize=11;fontColor=default;" parent="HRK4YUY4a56FCwcSoxxM-1" vertex="1">
          <mxGeometry x="785" y="543" width="47" height="13" as="geometry" />
        </mxCell>
        <mxCell id="HRK4YUY4a56FCwcSoxxM-45" value="BL2.AR" style="text;html=1;strokeColor=none;fillColor=none;align=center;verticalAlign=middle;whiteSpace=wrap;rounded=0;fontFamily=Helvetica;fontSize=11;fontColor=default;" parent="HRK4YUY4a56FCwcSoxxM-1" vertex="1">
          <mxGeometry x="62" y="531" width="47" height="18" as="geometry" />
        </mxCell>
        <mxCell id="HRK4YUY4a56FCwcSoxxM-46" value="BL1" style="text;html=1;strokeColor=none;fillColor=none;align=center;verticalAlign=middle;whiteSpace=wrap;rounded=0;fontFamily=Helvetica;fontSize=11;fontColor=default;" parent="HRK4YUY4a56FCwcSoxxM-1" vertex="1">
          <mxGeometry x="177" y="476" width="40" height="18" as="geometry" />
        </mxCell>
        <mxCell id="HRK4YUY4a56FCwcSoxxM-48" value="TR" style="text;html=1;strokeColor=none;fillColor=none;align=center;verticalAlign=middle;whiteSpace=wrap;rounded=0;fontFamily=Helvetica;fontSize=11;fontColor=default;" parent="HRK4YUY4a56FCwcSoxxM-1" vertex="1">
          <mxGeometry x="64" y="619" width="40" height="11" as="geometry" />
        </mxCell>
        <mxCell id="HRK4YUY4a56FCwcSoxxM-49" value="DIR" style="text;html=1;strokeColor=none;fillColor=none;align=center;verticalAlign=middle;whiteSpace=wrap;rounded=0;fontFamily=Helvetica;fontSize=11;fontColor=default;" parent="HRK4YUY4a56FCwcSoxxM-1" vertex="1">
          <mxGeometry x="120" y="620" width="40" height="10" as="geometry" />
        </mxCell>
        <mxCell id="HRK4YUY4a56FCwcSoxxM-51" value="FP.RR" style="text;html=1;strokeColor=none;fillColor=none;align=center;verticalAlign=middle;whiteSpace=wrap;rounded=0;fontFamily=Helvetica;fontSize=11;fontColor=default;" parent="HRK4YUY4a56FCwcSoxxM-1" vertex="1">
          <mxGeometry x="121" y="676" width="40" height="9" as="geometry" />
        </mxCell>
        <mxCell id="HRK4YUY4a56FCwcSoxxM-52" value="FP" style="text;html=1;strokeColor=none;fillColor=none;align=center;verticalAlign=middle;whiteSpace=wrap;rounded=0;fontFamily=Helvetica;fontSize=11;fontColor=default;" parent="HRK4YUY4a56FCwcSoxxM-1" vertex="1">
          <mxGeometry x="787" y="682" width="47" height="13" as="geometry" />
        </mxCell>
        <mxCell id="HRK4YUY4a56FCwcSoxxM-54" value="FP.AR" style="text;html=1;strokeColor=none;fillColor=none;align=center;verticalAlign=middle;whiteSpace=wrap;rounded=0;fontFamily=Helvetica;fontSize=11;fontColor=default;" parent="HRK4YUY4a56FCwcSoxxM-1" vertex="1">
          <mxGeometry x="61" y="674" width="47" height="13" as="geometry" />
        </mxCell>
        <mxCell id="HRK4YUY4a56FCwcSoxxM-55" value="BL1" style="text;html=1;strokeColor=none;fillColor=none;align=center;verticalAlign=middle;whiteSpace=wrap;rounded=0;fontFamily=Helvetica;fontSize=11;fontColor=default;" parent="HRK4YUY4a56FCwcSoxxM-1" vertex="1">
          <mxGeometry x="176" y="619" width="40" height="12" as="geometry" />
        </mxCell>
        <mxCell id="HRK4YUY4a56FCwcSoxxM-57" value="TR" style="text;html=1;strokeColor=none;fillColor=none;align=center;verticalAlign=middle;whiteSpace=wrap;rounded=0;fontFamily=Helvetica;fontSize=11;fontColor=default;" parent="HRK4YUY4a56FCwcSoxxM-1" vertex="1">
          <mxGeometry x="64" y="734" width="40" height="10" as="geometry" />
        </mxCell>
        <mxCell id="HRK4YUY4a56FCwcSoxxM-58" value="DIR" style="text;html=1;strokeColor=none;fillColor=none;align=center;verticalAlign=middle;whiteSpace=wrap;rounded=0;fontFamily=Helvetica;fontSize=11;fontColor=default;" parent="HRK4YUY4a56FCwcSoxxM-1" vertex="1">
          <mxGeometry x="120" y="734" width="40" height="9" as="geometry" />
        </mxCell>
        <mxCell id="HRK4YUY4a56FCwcSoxxM-59" value="FP1" style="text;html=1;strokeColor=none;fillColor=none;align=center;verticalAlign=middle;whiteSpace=wrap;rounded=0;fontFamily=Helvetica;fontSize=11;fontColor=default;" parent="HRK4YUY4a56FCwcSoxxM-1" vertex="1">
          <mxGeometry x="785" y="741" width="47" height="13" as="geometry" />
        </mxCell>
        <mxCell id="HRK4YUY4a56FCwcSoxxM-60" value="BL1" style="text;html=1;strokeColor=none;fillColor=none;align=center;verticalAlign=middle;whiteSpace=wrap;rounded=0;fontFamily=Helvetica;fontSize=11;fontColor=default;" parent="HRK4YUY4a56FCwcSoxxM-1" vertex="1">
          <mxGeometry x="177" y="733" width="40" height="11" as="geometry" />
        </mxCell>
        <mxCell id="HRK4YUY4a56FCwcSoxxM-61" value="BL2" style="text;html=1;strokeColor=none;fillColor=none;align=center;verticalAlign=middle;whiteSpace=wrap;rounded=0;fontFamily=Helvetica;fontSize=11;fontColor=default;" parent="HRK4YUY4a56FCwcSoxxM-1" vertex="1">
          <mxGeometry x="233" y="735" width="40" height="10" as="geometry" />
        </mxCell>
        <mxCell id="HRK4YUY4a56FCwcSoxxM-79" value="RLMR-A" style="text;html=1;strokeColor=none;fillColor=none;align=center;verticalAlign=middle;whiteSpace=wrap;rounded=0;fontFamily=Helvetica;fontSize=11;fontColor=default;" parent="HRK4YUY4a56FCwcSoxxM-1" vertex="1">
          <mxGeometry x="60" y="1287" width="53" height="15" as="geometry" />
        </mxCell>
        <mxCell id="HRK4YUY4a56FCwcSoxxM-81" value="1" style="text;html=1;strokeColor=none;fillColor=none;align=center;verticalAlign=middle;whiteSpace=wrap;rounded=0;fontFamily=Helvetica;fontSize=11;fontColor=default;" parent="HRK4YUY4a56FCwcSoxxM-1" vertex="1">
          <mxGeometry x="3" y="59" width="20" height="20" as="geometry" />
        </mxCell>
        <mxCell id="HRK4YUY4a56FCwcSoxxM-82" value="2" style="text;html=1;strokeColor=none;fillColor=none;align=center;verticalAlign=middle;whiteSpace=wrap;rounded=0;fontFamily=Helvetica;fontSize=11;fontColor=default;" parent="HRK4YUY4a56FCwcSoxxM-1" vertex="1">
          <mxGeometry x="3" y="120" width="21" height="16" as="geometry" />
        </mxCell>
        <mxCell id="HRK4YUY4a56FCwcSoxxM-84" value="" style="endArrow=none;html=1;rounded=0;" parent="HRK4YUY4a56FCwcSoxxM-1" edge="1">
          <mxGeometry width="50" height="50" relative="1" as="geometry">
            <mxPoint x="28" y="139" as="sourcePoint" />
            <mxPoint x="840" y="139" as="targetPoint" />
          </mxGeometry>
        </mxCell>
        <mxCell id="HRK4YUY4a56FCwcSoxxM-85" value="" style="endArrow=none;html=1;rounded=0;labelBackgroundColor=default;fontFamily=Helvetica;fontSize=11;fontColor=default;startSize=3;endSize=3;sourcePerimeterSpacing=0;strokeColor=default;shape=connector;jumpStyle=none;jumpSize=6;" parent="HRK4YUY4a56FCwcSoxxM-1" edge="1">
          <mxGeometry width="50" height="50" relative="1" as="geometry">
            <mxPoint x="776" y="137.5" as="sourcePoint" />
            <mxPoint x="839" y="138" as="targetPoint" />
            <Array as="points">
              <mxPoint x="776" y="116.5" />
              <mxPoint x="839" y="116.5" />
            </Array>
          </mxGeometry>
        </mxCell>
        <mxCell id="HRK4YUY4a56FCwcSoxxM-86" value="" style="verticalLabelPosition=bottom;html=1;verticalAlign=top;align=center;shape=mxgraph.floorplan.windowBow;strokeWidth=1;fontSize=11;direction=west;" parent="HRK4YUY4a56FCwcSoxxM-1" vertex="1">
          <mxGeometry x="73" y="83.5" width="21" height="11" as="geometry" />
        </mxCell>
        <mxCell id="HRK4YUY4a56FCwcSoxxM-87" value="" style="verticalLabelPosition=bottom;html=1;verticalAlign=top;align=center;shape=mxgraph.floorplan.windowBow;strokeWidth=1;fontSize=11;direction=west;" parent="HRK4YUY4a56FCwcSoxxM-1" vertex="1">
          <mxGeometry x="128" y="83.5" width="21" height="11" as="geometry" />
        </mxCell>
        <mxCell id="HRK4YUY4a56FCwcSoxxM-88" value="" style="verticalLabelPosition=bottom;html=1;verticalAlign=top;align=center;shape=mxgraph.floorplan.windowBow;strokeWidth=1;fontSize=11;direction=west;" parent="HRK4YUY4a56FCwcSoxxM-1" vertex="1">
          <mxGeometry x="185" y="83.5" width="21" height="11" as="geometry" />
        </mxCell>
        <mxCell id="HRK4YUY4a56FCwcSoxxM-89" value="" style="verticalLabelPosition=bottom;html=1;verticalAlign=top;align=center;shape=mxgraph.floorplan.windowBow;strokeWidth=1;fontSize=11;direction=west;" parent="HRK4YUY4a56FCwcSoxxM-1" vertex="1">
          <mxGeometry x="241" y="83.5" width="21" height="11" as="geometry" />
        </mxCell>
        <mxCell id="HRK4YUY4a56FCwcSoxxM-90" value="" style="verticalLabelPosition=bottom;html=1;verticalAlign=top;align=center;shape=mxgraph.floorplan.windowBow;strokeWidth=1;fontSize=11;direction=west;" parent="HRK4YUY4a56FCwcSoxxM-1" vertex="1">
          <mxGeometry x="297" y="83.5" width="21" height="11" as="geometry" />
        </mxCell>
        <mxCell id="HRK4YUY4a56FCwcSoxxM-91" value="" style="verticalLabelPosition=bottom;html=1;verticalAlign=top;align=center;shape=mxgraph.floorplan.windowBow;strokeWidth=1;fontSize=11;direction=west;" parent="HRK4YUY4a56FCwcSoxxM-1" vertex="1">
          <mxGeometry x="353" y="83.5" width="21" height="11" as="geometry" />
        </mxCell>
        <mxCell id="HRK4YUY4a56FCwcSoxxM-93" value="" style="verticalLabelPosition=bottom;html=1;verticalAlign=top;align=center;shape=mxgraph.floorplan.windowBow;strokeWidth=1;fontSize=11;direction=west;" parent="HRK4YUY4a56FCwcSoxxM-1" vertex="1">
          <mxGeometry x="577" y="83.5" width="21" height="11" as="geometry" />
        </mxCell>
        <mxCell id="HRK4YUY4a56FCwcSoxxM-94" value="" style="verticalLabelPosition=bottom;html=1;verticalAlign=top;align=center;shape=mxgraph.floorplan.windowBow;strokeWidth=1;fontSize=11;direction=west;" parent="HRK4YUY4a56FCwcSoxxM-1" vertex="1">
          <mxGeometry x="633" y="83.5" width="21" height="11" as="geometry" />
        </mxCell>
        <mxCell id="HRK4YUY4a56FCwcSoxxM-95" value="" style="verticalLabelPosition=bottom;html=1;verticalAlign=top;align=center;shape=mxgraph.floorplan.windowBow;strokeWidth=1;fontSize=11;direction=east;" parent="HRK4YUY4a56FCwcSoxxM-1" vertex="1">
          <mxGeometry x="73" y="127.5" width="21" height="11" as="geometry" />
        </mxCell>
        <mxCell id="HRK4YUY4a56FCwcSoxxM-96" value="" style="endArrow=none;html=1;rounded=0;" parent="HRK4YUY4a56FCwcSoxxM-1" edge="1">
          <mxGeometry width="50" height="50" relative="1" as="geometry">
            <mxPoint x="28" y="195" as="sourcePoint" />
            <mxPoint x="840" y="195" as="targetPoint" />
          </mxGeometry>
        </mxCell>
        <mxCell id="HRK4YUY4a56FCwcSoxxM-97" value="" style="endArrow=none;html=1;rounded=0;labelBackgroundColor=default;fontFamily=Helvetica;fontSize=11;fontColor=default;startSize=3;endSize=3;sourcePerimeterSpacing=0;strokeColor=default;shape=connector;jumpStyle=none;jumpSize=6;" parent="HRK4YUY4a56FCwcSoxxM-1" edge="1">
          <mxGeometry width="50" height="50" relative="1" as="geometry">
            <mxPoint x="756" y="195" as="sourcePoint" />
            <mxPoint x="839" y="195" as="targetPoint" />
            <Array as="points">
              <mxPoint x="756" y="167" />
              <mxPoint x="839" y="166.5" />
            </Array>
          </mxGeometry>
        </mxCell>
        <mxCell id="HRK4YUY4a56FCwcSoxxM-98" value="" style="verticalLabelPosition=bottom;html=1;verticalAlign=top;align=center;shape=mxgraph.floorplan.windowBow;strokeWidth=1;fontSize=11;direction=west;" parent="HRK4YUY4a56FCwcSoxxM-1" vertex="1">
          <mxGeometry x="73" y="194.5" width="21" height="11" as="geometry" />
        </mxCell>
        <mxCell id="HRK4YUY4a56FCwcSoxxM-99" value="" style="verticalLabelPosition=bottom;html=1;verticalAlign=top;align=center;shape=mxgraph.floorplan.windowBow;strokeWidth=1;fontSize=11;direction=east;" parent="HRK4YUY4a56FCwcSoxxM-1" vertex="1">
          <mxGeometry x="129" y="184.5" width="21" height="11" as="geometry" />
        </mxCell>
        <mxCell id="HRK4YUY4a56FCwcSoxxM-100" value="" style="verticalLabelPosition=bottom;html=1;verticalAlign=top;align=center;shape=mxgraph.floorplan.windowBow;strokeWidth=1;fontSize=11;direction=west;" parent="HRK4YUY4a56FCwcSoxxM-1" vertex="1">
          <mxGeometry x="185" y="194.5" width="21" height="11" as="geometry" />
        </mxCell>
        <mxCell id="HRK4YUY4a56FCwcSoxxM-101" value="" style="verticalLabelPosition=bottom;html=1;verticalAlign=top;align=center;shape=mxgraph.floorplan.windowBow;strokeWidth=1;fontSize=11;direction=west;" parent="HRK4YUY4a56FCwcSoxxM-1" vertex="1">
          <mxGeometry x="297" y="195.5" width="21" height="11" as="geometry" />
        </mxCell>
        <mxCell id="HRK4YUY4a56FCwcSoxxM-102" value="" style="verticalLabelPosition=bottom;html=1;verticalAlign=top;align=center;shape=mxgraph.floorplan.windowBow;strokeWidth=1;fontSize=11;direction=west;" parent="HRK4YUY4a56FCwcSoxxM-1" vertex="1">
          <mxGeometry x="353" y="195.5" width="21" height="11" as="geometry" />
        </mxCell>
        <mxCell id="HRK4YUY4a56FCwcSoxxM-103" value="" style="verticalLabelPosition=bottom;html=1;verticalAlign=top;align=center;shape=mxgraph.floorplan.windowBow;strokeWidth=1;fontSize=11;direction=west;" parent="HRK4YUY4a56FCwcSoxxM-1" vertex="1">
          <mxGeometry x="409" y="195.5" width="21" height="11" as="geometry" />
        </mxCell>
        <mxCell id="HRK4YUY4a56FCwcSoxxM-104" value="" style="verticalLabelPosition=bottom;html=1;verticalAlign=top;align=center;shape=mxgraph.floorplan.windowBow;strokeWidth=1;fontSize=11;direction=west;" parent="HRK4YUY4a56FCwcSoxxM-1" vertex="1">
          <mxGeometry x="465" y="195.5" width="21" height="11" as="geometry" />
        </mxCell>
        <mxCell id="HRK4YUY4a56FCwcSoxxM-105" value="" style="verticalLabelPosition=bottom;html=1;verticalAlign=top;align=center;shape=mxgraph.floorplan.windowBow;strokeWidth=1;fontSize=11;direction=east;" parent="HRK4YUY4a56FCwcSoxxM-1" vertex="1">
          <mxGeometry x="297" y="226.5" width="21" height="11" as="geometry" />
        </mxCell>
        <mxCell id="HRK4YUY4a56FCwcSoxxM-106" value="" style="endArrow=none;html=1;rounded=0;" parent="HRK4YUY4a56FCwcSoxxM-1" edge="1">
          <mxGeometry width="50" height="50" relative="1" as="geometry">
            <mxPoint x="28" y="279" as="sourcePoint" />
            <mxPoint x="840" y="279" as="targetPoint" />
          </mxGeometry>
        </mxCell>
        <mxCell id="HRK4YUY4a56FCwcSoxxM-107" value="" style="endArrow=none;html=1;rounded=0;labelBackgroundColor=default;fontFamily=Helvetica;fontSize=11;fontColor=default;startSize=3;endSize=3;sourcePerimeterSpacing=0;strokeColor=default;shape=connector;jumpStyle=none;jumpSize=6;" parent="HRK4YUY4a56FCwcSoxxM-1" edge="1">
          <mxGeometry width="50" height="50" relative="1" as="geometry">
            <mxPoint x="775.9999999999998" y="277.5" as="sourcePoint" />
            <mxPoint x="839.0000000000002" y="278" as="targetPoint" />
            <Array as="points">
              <mxPoint x="776" y="256.5" />
              <mxPoint x="839" y="256.5" />
            </Array>
          </mxGeometry>
        </mxCell>
        <mxCell id="HRK4YUY4a56FCwcSoxxM-108" value="" style="verticalLabelPosition=bottom;html=1;verticalAlign=top;align=center;shape=mxgraph.floorplan.windowBow;strokeWidth=1;fontSize=11;direction=east;" parent="HRK4YUY4a56FCwcSoxxM-1" vertex="1">
          <mxGeometry x="129" y="267.5" width="21" height="11" as="geometry" />
        </mxCell>
        <mxCell id="HRK4YUY4a56FCwcSoxxM-109" value="" style="verticalLabelPosition=bottom;html=1;verticalAlign=top;align=center;shape=mxgraph.floorplan.windowBow;strokeWidth=1;fontSize=11;direction=west;" parent="HRK4YUY4a56FCwcSoxxM-1" vertex="1">
          <mxGeometry x="297" y="278.5" width="21" height="11" as="geometry" />
        </mxCell>
        <mxCell id="HRK4YUY4a56FCwcSoxxM-110" value="" style="verticalLabelPosition=bottom;html=1;verticalAlign=top;align=center;shape=mxgraph.floorplan.windowBow;strokeWidth=1;fontSize=11;direction=east;" parent="HRK4YUY4a56FCwcSoxxM-1" vertex="1">
          <mxGeometry x="297" y="310.5" width="21" height="11" as="geometry" />
        </mxCell>
        <mxCell id="HRK4YUY4a56FCwcSoxxM-111" value="" style="verticalLabelPosition=bottom;html=1;verticalAlign=top;align=center;shape=mxgraph.floorplan.windowBow;strokeWidth=1;fontSize=11;direction=west;" parent="HRK4YUY4a56FCwcSoxxM-1" vertex="1">
          <mxGeometry x="409" y="279.5" width="21" height="11" as="geometry" />
        </mxCell>
        <mxCell id="HRK4YUY4a56FCwcSoxxM-112" value="" style="endArrow=none;html=1;rounded=0;" parent="HRK4YUY4a56FCwcSoxxM-1" edge="1">
          <mxGeometry width="50" height="50" relative="1" as="geometry">
            <mxPoint x="28" y="362.9999999999999" as="sourcePoint" />
            <mxPoint x="840" y="362.9999999999999" as="targetPoint" />
          </mxGeometry>
        </mxCell>
        <mxCell id="HRK4YUY4a56FCwcSoxxM-114" value="" style="verticalLabelPosition=bottom;html=1;verticalAlign=top;align=center;shape=mxgraph.floorplan.windowBow;strokeWidth=1;fontSize=11;direction=east;" parent="HRK4YUY4a56FCwcSoxxM-1" vertex="1">
          <mxGeometry x="73" y="351.5" width="21" height="11" as="geometry" />
        </mxCell>
        <mxCell id="HRK4YUY4a56FCwcSoxxM-115" value="" style="verticalLabelPosition=bottom;html=1;verticalAlign=top;align=center;shape=mxgraph.floorplan.windowBow;strokeWidth=1;fontSize=11;direction=west;" parent="HRK4YUY4a56FCwcSoxxM-1" vertex="1">
          <mxGeometry x="129" y="362.5" width="21" height="11" as="geometry" />
        </mxCell>
        <mxCell id="HRK4YUY4a56FCwcSoxxM-116" value="" style="endArrow=none;html=1;rounded=0;" parent="HRK4YUY4a56FCwcSoxxM-1" edge="1">
          <mxGeometry width="50" height="50" relative="1" as="geometry">
            <mxPoint x="28" y="417.9999999999998" as="sourcePoint" />
            <mxPoint x="840" y="417.9999999999998" as="targetPoint" />
          </mxGeometry>
        </mxCell>
        <mxCell id="HRK4YUY4a56FCwcSoxxM-117" value="" style="endArrow=none;html=1;rounded=0;labelBackgroundColor=default;fontFamily=Helvetica;fontSize=11;fontColor=default;startSize=3;endSize=3;sourcePerimeterSpacing=0;strokeColor=default;shape=connector;jumpStyle=none;jumpSize=6;" parent="HRK4YUY4a56FCwcSoxxM-1" edge="1">
          <mxGeometry width="50" height="50" relative="1" as="geometry">
            <mxPoint x="775.9999999999998" y="416.5" as="sourcePoint" />
            <mxPoint x="839.0000000000002" y="417.0000000000001" as="targetPoint" />
            <Array as="points">
              <mxPoint x="776" y="395.5" />
              <mxPoint x="839" y="395.5" />
            </Array>
          </mxGeometry>
        </mxCell>
        <mxCell id="HRK4YUY4a56FCwcSoxxM-118" value="" style="verticalLabelPosition=bottom;html=1;verticalAlign=top;align=center;shape=mxgraph.floorplan.windowBow;strokeWidth=1;fontSize=11;direction=east;" parent="HRK4YUY4a56FCwcSoxxM-1" vertex="1">
          <mxGeometry x="73" y="406.5" width="21" height="11" as="geometry" />
        </mxCell>
        <mxCell id="HRK4YUY4a56FCwcSoxxM-119" value="" style="verticalLabelPosition=bottom;html=1;verticalAlign=top;align=center;shape=mxgraph.floorplan.windowBow;strokeWidth=1;fontSize=11;direction=east;" parent="HRK4YUY4a56FCwcSoxxM-1" vertex="1">
          <mxGeometry x="129" y="406.5" width="21" height="11" as="geometry" />
        </mxCell>
        <mxCell id="HRK4YUY4a56FCwcSoxxM-120" value="" style="endArrow=none;html=1;rounded=0;" parent="HRK4YUY4a56FCwcSoxxM-1" edge="1">
          <mxGeometry width="50" height="50" relative="1" as="geometry">
            <mxPoint x="28" y="502.9999999999998" as="sourcePoint" />
            <mxPoint x="840" y="502.9999999999998" as="targetPoint" />
          </mxGeometry>
        </mxCell>
        <mxCell id="HRK4YUY4a56FCwcSoxxM-122" value="" style="verticalLabelPosition=bottom;html=1;verticalAlign=top;align=center;shape=mxgraph.floorplan.windowBow;strokeWidth=1;fontSize=11;direction=east;" parent="HRK4YUY4a56FCwcSoxxM-1" vertex="1">
          <mxGeometry x="73" y="491.5" width="21" height="11" as="geometry" />
        </mxCell>
        <mxCell id="HRK4YUY4a56FCwcSoxxM-123" value="" style="verticalLabelPosition=bottom;html=1;verticalAlign=top;align=center;shape=mxgraph.floorplan.windowBow;strokeWidth=1;fontSize=11;direction=west;" parent="HRK4YUY4a56FCwcSoxxM-1" vertex="1">
          <mxGeometry x="129" y="503" width="21" height="11" as="geometry" />
        </mxCell>
        <mxCell id="HRK4YUY4a56FCwcSoxxM-124" value="" style="verticalLabelPosition=bottom;html=1;verticalAlign=top;align=center;shape=mxgraph.floorplan.windowBow;strokeWidth=1;fontSize=11;direction=east;" parent="HRK4YUY4a56FCwcSoxxM-1" vertex="1">
          <mxGeometry x="185" y="491.5" width="21" height="11" as="geometry" />
        </mxCell>
        <mxCell id="HRK4YUY4a56FCwcSoxxM-126" value="" style="endArrow=none;html=1;rounded=0;" parent="HRK4YUY4a56FCwcSoxxM-1" edge="1">
          <mxGeometry width="50" height="50" relative="1" as="geometry">
            <mxPoint x="28" y="558.9999999999998" as="sourcePoint" />
            <mxPoint x="840" y="558.9999999999998" as="targetPoint" />
          </mxGeometry>
        </mxCell>
        <mxCell id="HRK4YUY4a56FCwcSoxxM-127" value="" style="endArrow=none;html=1;rounded=0;labelBackgroundColor=default;fontFamily=Helvetica;fontSize=11;fontColor=default;startSize=3;endSize=3;sourcePerimeterSpacing=0;strokeColor=default;shape=connector;jumpStyle=none;jumpSize=6;" parent="HRK4YUY4a56FCwcSoxxM-1" edge="1">
          <mxGeometry width="50" height="50" relative="1" as="geometry">
            <mxPoint x="775.9999999999998" y="557.5" as="sourcePoint" />
            <mxPoint x="839.0000000000002" y="558" as="targetPoint" />
            <Array as="points">
              <mxPoint x="776" y="536.5" />
              <mxPoint x="839" y="536.5" />
            </Array>
          </mxGeometry>
        </mxCell>
        <mxCell id="HRK4YUY4a56FCwcSoxxM-128" value="" style="verticalLabelPosition=bottom;html=1;verticalAlign=top;align=center;shape=mxgraph.floorplan.windowBow;strokeWidth=1;fontSize=11;direction=east;" parent="HRK4YUY4a56FCwcSoxxM-1" vertex="1">
          <mxGeometry x="129" y="547.5" width="21" height="11" as="geometry" />
        </mxCell>
        <mxCell id="HRK4YUY4a56FCwcSoxxM-129" value="" style="verticalLabelPosition=bottom;html=1;verticalAlign=top;align=center;shape=mxgraph.floorplan.windowBow;strokeWidth=1;fontSize=11;direction=east;" parent="HRK4YUY4a56FCwcSoxxM-1" vertex="1">
          <mxGeometry x="74" y="547.5" width="21" height="11" as="geometry" />
        </mxCell>
        <mxCell id="HRK4YUY4a56FCwcSoxxM-130" value="" style="endArrow=none;html=1;rounded=0;" parent="HRK4YUY4a56FCwcSoxxM-1" edge="1">
          <mxGeometry width="50" height="50" relative="1" as="geometry">
            <mxPoint x="28" y="642.9999999999998" as="sourcePoint" />
            <mxPoint x="840" y="642.9999999999998" as="targetPoint" />
          </mxGeometry>
        </mxCell>
        <mxCell id="HRK4YUY4a56FCwcSoxxM-132" value="" style="verticalLabelPosition=bottom;html=1;verticalAlign=top;align=center;shape=mxgraph.floorplan.windowBow;strokeWidth=1;fontSize=11;direction=east;" parent="HRK4YUY4a56FCwcSoxxM-1" vertex="1">
          <mxGeometry x="73" y="631.5" width="21" height="11" as="geometry" />
        </mxCell>
        <mxCell id="HRK4YUY4a56FCwcSoxxM-133" value="" style="verticalLabelPosition=bottom;html=1;verticalAlign=top;align=center;shape=mxgraph.floorplan.windowBow;strokeWidth=1;fontSize=11;direction=west;" parent="HRK4YUY4a56FCwcSoxxM-1" vertex="1">
          <mxGeometry x="129" y="643" width="21" height="11" as="geometry" />
        </mxCell>
        <mxCell id="HRK4YUY4a56FCwcSoxxM-134" value="" style="verticalLabelPosition=bottom;html=1;verticalAlign=top;align=center;shape=mxgraph.floorplan.windowBow;strokeWidth=1;fontSize=11;direction=east;" parent="HRK4YUY4a56FCwcSoxxM-1" vertex="1">
          <mxGeometry x="185" y="631.5" width="21" height="11" as="geometry" />
        </mxCell>
        <mxCell id="HRK4YUY4a56FCwcSoxxM-136" value="" style="endArrow=none;html=1;rounded=0;" parent="HRK4YUY4a56FCwcSoxxM-1" edge="1">
          <mxGeometry width="50" height="50" relative="1" as="geometry">
            <mxPoint x="28" y="698.9999999999998" as="sourcePoint" />
            <mxPoint x="840" y="698.9999999999998" as="targetPoint" />
          </mxGeometry>
        </mxCell>
        <mxCell id="HRK4YUY4a56FCwcSoxxM-137" value="" style="endArrow=none;html=1;rounded=0;labelBackgroundColor=default;fontFamily=Helvetica;fontSize=11;fontColor=default;startSize=3;endSize=3;sourcePerimeterSpacing=0;strokeColor=default;shape=connector;jumpStyle=none;jumpSize=6;" parent="HRK4YUY4a56FCwcSoxxM-1" edge="1">
          <mxGeometry width="50" height="50" relative="1" as="geometry">
            <mxPoint x="775.9999999999998" y="697.5" as="sourcePoint" />
            <mxPoint x="839.0000000000002" y="698" as="targetPoint" />
            <Array as="points">
              <mxPoint x="776" y="676.5" />
              <mxPoint x="839" y="676.5" />
            </Array>
          </mxGeometry>
        </mxCell>
        <mxCell id="HRK4YUY4a56FCwcSoxxM-138" value="" style="verticalLabelPosition=bottom;html=1;verticalAlign=top;align=center;shape=mxgraph.floorplan.windowBow;strokeWidth=1;fontSize=11;direction=east;" parent="HRK4YUY4a56FCwcSoxxM-1" vertex="1">
          <mxGeometry x="129" y="687.5" width="21" height="11" as="geometry" />
        </mxCell>
        <mxCell id="HRK4YUY4a56FCwcSoxxM-139" value="" style="verticalLabelPosition=bottom;html=1;verticalAlign=top;align=center;shape=mxgraph.floorplan.windowBow;strokeWidth=1;fontSize=11;direction=east;" parent="HRK4YUY4a56FCwcSoxxM-1" vertex="1">
          <mxGeometry x="74" y="687.5" width="21" height="11" as="geometry" />
        </mxCell>
        <mxCell id="HRK4YUY4a56FCwcSoxxM-140" value="" style="endArrow=none;html=1;rounded=0;" parent="HRK4YUY4a56FCwcSoxxM-1" edge="1">
          <mxGeometry width="50" height="50" relative="1" as="geometry">
            <mxPoint x="28" y="756.9999999999998" as="sourcePoint" />
            <mxPoint x="840" y="756.9999999999998" as="targetPoint" />
          </mxGeometry>
        </mxCell>
        <mxCell id="HRK4YUY4a56FCwcSoxxM-141" value="" style="endArrow=none;html=1;rounded=0;labelBackgroundColor=default;fontFamily=Helvetica;fontSize=11;fontColor=default;startSize=3;endSize=3;sourcePerimeterSpacing=0;strokeColor=default;shape=connector;jumpStyle=none;jumpSize=6;" parent="HRK4YUY4a56FCwcSoxxM-1" edge="1">
          <mxGeometry width="50" height="50" relative="1" as="geometry">
            <mxPoint x="775.9999999999998" y="755.5" as="sourcePoint" />
            <mxPoint x="839.0000000000002" y="756" as="targetPoint" />
            <Array as="points">
              <mxPoint x="776" y="734.5" />
              <mxPoint x="839" y="734.5" />
            </Array>
          </mxGeometry>
        </mxCell>
        <mxCell id="HRK4YUY4a56FCwcSoxxM-142" value="" style="verticalLabelPosition=bottom;html=1;verticalAlign=top;align=center;shape=mxgraph.floorplan.windowBow;strokeWidth=1;fontSize=11;direction=east;" parent="HRK4YUY4a56FCwcSoxxM-1" vertex="1">
          <mxGeometry x="73" y="745.5" width="21" height="11" as="geometry" />
        </mxCell>
        <mxCell id="HRK4YUY4a56FCwcSoxxM-143" value="" style="verticalLabelPosition=bottom;html=1;verticalAlign=top;align=center;shape=mxgraph.floorplan.windowBow;strokeWidth=1;fontSize=11;direction=west;" parent="HRK4YUY4a56FCwcSoxxM-1" vertex="1">
          <mxGeometry x="129" y="758" width="21" height="11" as="geometry" />
        </mxCell>
        <mxCell id="HRK4YUY4a56FCwcSoxxM-144" value="" style="verticalLabelPosition=bottom;html=1;verticalAlign=top;align=center;shape=mxgraph.floorplan.windowBow;strokeWidth=1;fontSize=11;direction=east;" parent="HRK4YUY4a56FCwcSoxxM-1" vertex="1">
          <mxGeometry x="185" y="745.5" width="21" height="11" as="geometry" />
        </mxCell>
        <mxCell id="HRK4YUY4a56FCwcSoxxM-145" value="" style="verticalLabelPosition=bottom;html=1;verticalAlign=top;align=center;shape=mxgraph.floorplan.windowBow;strokeWidth=1;fontSize=11;direction=east;" parent="HRK4YUY4a56FCwcSoxxM-1" vertex="1">
          <mxGeometry x="241" y="745.5" width="21" height="11" as="geometry" />
        </mxCell>
        <mxCell id="HRK4YUY4a56FCwcSoxxM-161" value="TR" style="text;html=1;strokeColor=none;fillColor=none;align=center;verticalAlign=middle;whiteSpace=wrap;rounded=0;fontFamily=Helvetica;fontSize=11;fontColor=default;" parent="HRK4YUY4a56FCwcSoxxM-1" vertex="1">
          <mxGeometry x="65" y="819" width="40" height="9" as="geometry" />
        </mxCell>
        <mxCell id="HRK4YUY4a56FCwcSoxxM-162" value="DIR" style="text;html=1;strokeColor=none;fillColor=none;align=center;verticalAlign=middle;whiteSpace=wrap;rounded=0;fontFamily=Helvetica;fontSize=11;fontColor=default;" parent="HRK4YUY4a56FCwcSoxxM-1" vertex="1">
          <mxGeometry x="121" y="820" width="40" height="8" as="geometry" />
        </mxCell>
        <mxCell id="HRK4YUY4a56FCwcSoxxM-164" value="FP3.RR" style="text;html=1;strokeColor=none;fillColor=none;align=center;verticalAlign=middle;whiteSpace=wrap;rounded=0;fontFamily=Helvetica;fontSize=11;fontColor=default;" parent="HRK4YUY4a56FCwcSoxxM-1" vertex="1">
          <mxGeometry x="123" y="876" width="40" height="9" as="geometry" />
        </mxCell>
        <mxCell id="HRK4YUY4a56FCwcSoxxM-165" value="FP3" style="text;html=1;strokeColor=none;fillColor=none;align=center;verticalAlign=middle;whiteSpace=wrap;rounded=0;fontFamily=Helvetica;fontSize=11;fontColor=default;" parent="HRK4YUY4a56FCwcSoxxM-1" vertex="1">
          <mxGeometry x="787" y="882" width="47" height="13" as="geometry" />
        </mxCell>
        <mxCell id="HRK4YUY4a56FCwcSoxxM-167" value="FP3.AR" style="text;html=1;strokeColor=none;fillColor=none;align=center;verticalAlign=middle;whiteSpace=wrap;rounded=0;fontFamily=Helvetica;fontSize=11;fontColor=default;" parent="HRK4YUY4a56FCwcSoxxM-1" vertex="1">
          <mxGeometry x="62" y="876" width="47" height="8" as="geometry" />
        </mxCell>
        <mxCell id="HRK4YUY4a56FCwcSoxxM-168" value="BL1" style="text;html=1;strokeColor=none;fillColor=none;align=center;verticalAlign=middle;whiteSpace=wrap;rounded=0;fontFamily=Helvetica;fontSize=11;fontColor=default;" parent="HRK4YUY4a56FCwcSoxxM-1" vertex="1">
          <mxGeometry x="178" y="819" width="40" height="10" as="geometry" />
        </mxCell>
        <mxCell id="HRK4YUY4a56FCwcSoxxM-169" value="RLMR-M" style="text;html=1;strokeColor=none;fillColor=none;align=center;verticalAlign=middle;whiteSpace=wrap;rounded=0;fontFamily=Helvetica;fontSize=11;fontColor=default;" parent="HRK4YUY4a56FCwcSoxxM-1" vertex="1">
          <mxGeometry x="227" y="820" width="52" height="9" as="geometry" />
        </mxCell>
        <mxCell id="HRK4YUY4a56FCwcSoxxM-170" value="RLMRA-RR" style="text;html=1;strokeColor=none;fillColor=none;align=center;verticalAlign=middle;whiteSpace=wrap;rounded=0;fontFamily=Helvetica;fontSize=11;fontColor=default;" parent="HRK4YUY4a56FCwcSoxxM-1" vertex="1">
          <mxGeometry x="279" y="820" width="68" height="9" as="geometry" />
        </mxCell>
        <mxCell id="HRK4YUY4a56FCwcSoxxM-172" value="FP1" style="text;html=1;strokeColor=none;fillColor=none;align=center;verticalAlign=middle;whiteSpace=wrap;rounded=0;fontFamily=Helvetica;fontSize=11;fontColor=default;" parent="HRK4YUY4a56FCwcSoxxM-1" vertex="1">
          <mxGeometry x="513" y="819" width="40" height="9" as="geometry" />
        </mxCell>
        <mxCell id="HRK4YUY4a56FCwcSoxxM-174" value="EH1" style="text;html=1;strokeColor=none;fillColor=none;align=center;verticalAlign=middle;whiteSpace=wrap;rounded=0;fontFamily=Helvetica;fontSize=11;fontColor=default;" parent="HRK4YUY4a56FCwcSoxxM-1" vertex="1">
          <mxGeometry x="569" y="820" width="40" height="8" as="geometry" />
        </mxCell>
        <mxCell id="HRK4YUY4a56FCwcSoxxM-175" value="" style="endArrow=none;html=1;rounded=0;" parent="HRK4YUY4a56FCwcSoxxM-1" edge="1">
          <mxGeometry width="50" height="50" relative="1" as="geometry">
            <mxPoint x="29" y="841.9999999999998" as="sourcePoint" />
            <mxPoint x="841" y="841.9999999999998" as="targetPoint" />
          </mxGeometry>
        </mxCell>
        <mxCell id="HRK4YUY4a56FCwcSoxxM-177" value="" style="verticalLabelPosition=bottom;html=1;verticalAlign=top;align=center;shape=mxgraph.floorplan.windowBow;strokeWidth=1;fontSize=11;direction=east;" parent="HRK4YUY4a56FCwcSoxxM-1" vertex="1">
          <mxGeometry x="74" y="830.5" width="21" height="11" as="geometry" />
        </mxCell>
        <mxCell id="HRK4YUY4a56FCwcSoxxM-178" value="" style="verticalLabelPosition=bottom;html=1;verticalAlign=top;align=center;shape=mxgraph.floorplan.windowBow;strokeWidth=1;fontSize=11;direction=west;" parent="HRK4YUY4a56FCwcSoxxM-1" vertex="1">
          <mxGeometry x="130" y="842" width="21" height="11" as="geometry" />
        </mxCell>
        <mxCell id="HRK4YUY4a56FCwcSoxxM-179" value="" style="verticalLabelPosition=bottom;html=1;verticalAlign=top;align=center;shape=mxgraph.floorplan.windowBow;strokeWidth=1;fontSize=11;direction=east;" parent="HRK4YUY4a56FCwcSoxxM-1" vertex="1">
          <mxGeometry x="186" y="830.5" width="21" height="11" as="geometry" />
        </mxCell>
        <mxCell id="HRK4YUY4a56FCwcSoxxM-180" value="" style="verticalLabelPosition=bottom;html=1;verticalAlign=top;align=center;shape=mxgraph.floorplan.windowBow;strokeWidth=1;fontSize=11;direction=west;" parent="HRK4YUY4a56FCwcSoxxM-1" vertex="1">
          <mxGeometry x="242" y="842" width="21" height="11" as="geometry" />
        </mxCell>
        <mxCell id="HRK4YUY4a56FCwcSoxxM-181" value="" style="verticalLabelPosition=bottom;html=1;verticalAlign=top;align=center;shape=mxgraph.floorplan.windowBow;strokeWidth=1;fontSize=11;direction=west;" parent="HRK4YUY4a56FCwcSoxxM-1" vertex="1">
          <mxGeometry x="298" y="842" width="21" height="11" as="geometry" />
        </mxCell>
        <mxCell id="HRK4YUY4a56FCwcSoxxM-183" value="" style="verticalLabelPosition=bottom;html=1;verticalAlign=top;align=center;shape=mxgraph.floorplan.windowBow;strokeWidth=1;fontSize=11;direction=east;" parent="HRK4YUY4a56FCwcSoxxM-1" vertex="1">
          <mxGeometry x="522" y="830.5" width="21" height="11" as="geometry" />
        </mxCell>
        <mxCell id="HRK4YUY4a56FCwcSoxxM-184" value="" style="verticalLabelPosition=bottom;html=1;verticalAlign=top;align=center;shape=mxgraph.floorplan.windowBow;strokeWidth=1;fontSize=11;direction=east;" parent="HRK4YUY4a56FCwcSoxxM-1" vertex="1">
          <mxGeometry x="578" y="831" width="21" height="11" as="geometry" />
        </mxCell>
        <mxCell id="HRK4YUY4a56FCwcSoxxM-186" value="" style="endArrow=none;html=1;rounded=0;" parent="HRK4YUY4a56FCwcSoxxM-1" edge="1">
          <mxGeometry width="50" height="50" relative="1" as="geometry">
            <mxPoint x="29" y="897.9999999999998" as="sourcePoint" />
            <mxPoint x="841" y="897.9999999999998" as="targetPoint" />
          </mxGeometry>
        </mxCell>
        <mxCell id="HRK4YUY4a56FCwcSoxxM-187" value="" style="endArrow=none;html=1;rounded=0;labelBackgroundColor=default;fontFamily=Helvetica;fontSize=11;fontColor=default;startSize=3;endSize=3;sourcePerimeterSpacing=0;strokeColor=default;shape=connector;jumpStyle=none;jumpSize=6;" parent="HRK4YUY4a56FCwcSoxxM-1" edge="1">
          <mxGeometry width="50" height="50" relative="1" as="geometry">
            <mxPoint x="776.9999999999998" y="896.5" as="sourcePoint" />
            <mxPoint x="840.0000000000002" y="897" as="targetPoint" />
            <Array as="points">
              <mxPoint x="777" y="875.5" />
              <mxPoint x="840" y="875.5" />
            </Array>
          </mxGeometry>
        </mxCell>
        <mxCell id="HRK4YUY4a56FCwcSoxxM-188" value="" style="verticalLabelPosition=bottom;html=1;verticalAlign=top;align=center;shape=mxgraph.floorplan.windowBow;strokeWidth=1;fontSize=11;direction=east;" parent="HRK4YUY4a56FCwcSoxxM-1" vertex="1">
          <mxGeometry x="130" y="886.5" width="21" height="11" as="geometry" />
        </mxCell>
        <mxCell id="HRK4YUY4a56FCwcSoxxM-189" value="" style="verticalLabelPosition=bottom;html=1;verticalAlign=top;align=center;shape=mxgraph.floorplan.windowBow;strokeWidth=1;fontSize=11;direction=east;" parent="HRK4YUY4a56FCwcSoxxM-1" vertex="1">
          <mxGeometry x="73" y="887.5" width="21" height="11" as="geometry" />
        </mxCell>
        <mxCell id="HRK4YUY4a56FCwcSoxxM-195" value="YLMR-M" style="text;html=1;strokeColor=none;fillColor=none;align=center;verticalAlign=middle;whiteSpace=wrap;rounded=0;fontFamily=Helvetica;fontSize=11;fontColor=default;" parent="HRK4YUY4a56FCwcSoxxM-1" vertex="1">
          <mxGeometry x="116" y="950" width="53" height="20" as="geometry" />
        </mxCell>
        <mxCell id="HRK4YUY4a56FCwcSoxxM-197" value="YLMR-A" style="text;html=1;strokeColor=none;fillColor=none;align=center;verticalAlign=middle;whiteSpace=wrap;rounded=0;fontFamily=Helvetica;fontSize=11;fontColor=default;" parent="HRK4YUY4a56FCwcSoxxM-1" vertex="1">
          <mxGeometry x="114" y="995" width="55" height="20" as="geometry" />
        </mxCell>
        <mxCell id="HRK4YUY4a56FCwcSoxxM-198" value="" style="endArrow=none;html=1;rounded=0;" parent="HRK4YUY4a56FCwcSoxxM-1" edge="1">
          <mxGeometry width="50" height="50" relative="1" as="geometry">
            <mxPoint x="84" y="979.9999999999998" as="sourcePoint" />
            <mxPoint x="196" y="979.9999999999998" as="targetPoint" />
            <Array as="points">
              <mxPoint x="84" y="1022" />
              <mxPoint x="196" y="1022" />
            </Array>
          </mxGeometry>
        </mxCell>
        <mxCell id="HRK4YUY4a56FCwcSoxxM-199" value="" style="endArrow=none;html=1;rounded=0;" parent="HRK4YUY4a56FCwcSoxxM-1" edge="1">
          <mxGeometry width="50" height="50" relative="1" as="geometry">
            <mxPoint x="28" y="978.9999999999995" as="sourcePoint" />
            <mxPoint x="839.9999999999995" y="978.9999999999995" as="targetPoint" />
          </mxGeometry>
        </mxCell>
        <mxCell id="HRK4YUY4a56FCwcSoxxM-201" value="" style="verticalLabelPosition=bottom;html=1;verticalAlign=top;align=center;shape=mxgraph.floorplan.windowBow;strokeWidth=1;fontSize=11;direction=east;" parent="HRK4YUY4a56FCwcSoxxM-1" vertex="1">
          <mxGeometry x="129" y="967.5" width="21" height="11" as="geometry" />
        </mxCell>
        <mxCell id="HRK4YUY4a56FCwcSoxxM-202" value="" style="verticalLabelPosition=bottom;html=1;verticalAlign=top;align=center;shape=mxgraph.floorplan.windowBow;strokeWidth=1;fontSize=11;direction=east;" parent="HRK4YUY4a56FCwcSoxxM-1" vertex="1">
          <mxGeometry x="129" y="1010.5" width="21" height="11" as="geometry" />
        </mxCell>
        <mxCell id="HRK4YUY4a56FCwcSoxxM-203" value="GLMR-M" style="text;html=1;strokeColor=none;fillColor=none;align=center;verticalAlign=middle;whiteSpace=wrap;rounded=0;fontFamily=Helvetica;fontSize=11;fontColor=default;" parent="HRK4YUY4a56FCwcSoxxM-1" vertex="1">
          <mxGeometry x="116" y="1034" width="53" height="20" as="geometry" />
        </mxCell>
        <mxCell id="HRK4YUY4a56FCwcSoxxM-205" value="GLMR-A" style="text;html=1;strokeColor=none;fillColor=none;align=center;verticalAlign=middle;whiteSpace=wrap;rounded=0;fontFamily=Helvetica;fontSize=11;fontColor=default;" parent="HRK4YUY4a56FCwcSoxxM-1" vertex="1">
          <mxGeometry x="114" y="1079" width="55" height="20" as="geometry" />
        </mxCell>
        <mxCell id="HRK4YUY4a56FCwcSoxxM-206" value="" style="endArrow=none;html=1;rounded=0;" parent="HRK4YUY4a56FCwcSoxxM-1" edge="1">
          <mxGeometry width="50" height="50" relative="1" as="geometry">
            <mxPoint x="84" y="1063.9999999999995" as="sourcePoint" />
            <mxPoint x="196" y="1063.9999999999995" as="targetPoint" />
            <Array as="points">
              <mxPoint x="84" y="1106" />
              <mxPoint x="196" y="1106" />
            </Array>
          </mxGeometry>
        </mxCell>
        <mxCell id="HRK4YUY4a56FCwcSoxxM-207" value="" style="endArrow=none;html=1;rounded=0;" parent="HRK4YUY4a56FCwcSoxxM-1" edge="1">
          <mxGeometry width="50" height="50" relative="1" as="geometry">
            <mxPoint x="28" y="1062.9999999999993" as="sourcePoint" />
            <mxPoint x="839.9999999999995" y="1062.9999999999993" as="targetPoint" />
          </mxGeometry>
        </mxCell>
        <mxCell id="HRK4YUY4a56FCwcSoxxM-209" value="" style="verticalLabelPosition=bottom;html=1;verticalAlign=top;align=center;shape=mxgraph.floorplan.windowBow;strokeWidth=1;fontSize=11;direction=east;" parent="HRK4YUY4a56FCwcSoxxM-1" vertex="1">
          <mxGeometry x="129" y="1051.5" width="21" height="11" as="geometry" />
        </mxCell>
        <mxCell id="HRK4YUY4a56FCwcSoxxM-210" value="" style="verticalLabelPosition=bottom;html=1;verticalAlign=top;align=center;shape=mxgraph.floorplan.windowBow;strokeWidth=1;fontSize=11;direction=east;" parent="HRK4YUY4a56FCwcSoxxM-1" vertex="1">
          <mxGeometry x="129" y="1094.5" width="21" height="11" as="geometry" />
        </mxCell>
        <mxCell id="HRK4YUY4a56FCwcSoxxM-219" value="GEU.RR" style="text;html=1;strokeColor=none;fillColor=none;align=center;verticalAlign=middle;whiteSpace=wrap;rounded=0;fontFamily=Helvetica;fontSize=11;fontColor=default;" parent="HRK4YUY4a56FCwcSoxxM-1" vertex="1">
          <mxGeometry x="116" y="1145" width="53" height="20" as="geometry" />
        </mxCell>
        <mxCell id="HRK4YUY4a56FCwcSoxxM-220" value="GEU" style="text;html=1;strokeColor=none;fillColor=none;align=center;verticalAlign=middle;whiteSpace=wrap;rounded=0;fontFamily=Helvetica;fontSize=11;fontColor=default;" parent="HRK4YUY4a56FCwcSoxxM-1" vertex="1">
          <mxGeometry x="785" y="1157" width="47" height="13" as="geometry" />
        </mxCell>
        <mxCell id="HRK4YUY4a56FCwcSoxxM-221" value="GEU.AR" style="text;html=1;strokeColor=none;fillColor=none;align=center;verticalAlign=middle;whiteSpace=wrap;rounded=0;fontFamily=Helvetica;fontSize=11;fontColor=default;" parent="HRK4YUY4a56FCwcSoxxM-1" vertex="1">
          <mxGeometry x="58" y="1145" width="55" height="20" as="geometry" />
        </mxCell>
        <mxCell id="HRK4YUY4a56FCwcSoxxM-223" value="" style="endArrow=none;html=1;rounded=0;" parent="HRK4YUY4a56FCwcSoxxM-1" edge="1">
          <mxGeometry width="50" height="50" relative="1" as="geometry">
            <mxPoint x="28" y="1172.999999999999" as="sourcePoint" />
            <mxPoint x="839.9999999999995" y="1172.999999999999" as="targetPoint" />
          </mxGeometry>
        </mxCell>
        <mxCell id="HRK4YUY4a56FCwcSoxxM-224" value="" style="endArrow=none;html=1;rounded=0;labelBackgroundColor=default;fontFamily=Helvetica;fontSize=11;fontColor=default;startSize=3;endSize=3;sourcePerimeterSpacing=0;strokeColor=default;shape=connector;jumpStyle=none;jumpSize=6;" parent="HRK4YUY4a56FCwcSoxxM-1" edge="1">
          <mxGeometry width="50" height="50" relative="1" as="geometry">
            <mxPoint x="775.9999999999998" y="1171.499999999999" as="sourcePoint" />
            <mxPoint x="839.0000000000005" y="1172" as="targetPoint" />
            <Array as="points">
              <mxPoint x="776" y="1150.5" />
              <mxPoint x="839" y="1150.5" />
            </Array>
          </mxGeometry>
        </mxCell>
        <mxCell id="HRK4YUY4a56FCwcSoxxM-225" value="" style="verticalLabelPosition=bottom;html=1;verticalAlign=top;align=center;shape=mxgraph.floorplan.windowBow;strokeWidth=1;fontSize=11;direction=east;" parent="HRK4YUY4a56FCwcSoxxM-1" vertex="1">
          <mxGeometry x="129" y="1161.5" width="21" height="11" as="geometry" />
        </mxCell>
        <mxCell id="HRK4YUY4a56FCwcSoxxM-226" value="" style="verticalLabelPosition=bottom;html=1;verticalAlign=top;align=center;shape=mxgraph.floorplan.windowBow;strokeWidth=1;fontSize=11;direction=east;" parent="HRK4YUY4a56FCwcSoxxM-1" vertex="1">
          <mxGeometry x="74" y="1161.5" width="21" height="11" as="geometry" />
        </mxCell>
        <mxCell id="HRK4YUY4a56FCwcSoxxM-227" value="GNU.RR" style="text;html=1;strokeColor=none;fillColor=none;align=center;verticalAlign=middle;whiteSpace=wrap;rounded=0;fontFamily=Helvetica;fontSize=11;fontColor=default;" parent="HRK4YUY4a56FCwcSoxxM-1" vertex="1">
          <mxGeometry x="116" y="1201" width="53" height="20" as="geometry" />
        </mxCell>
        <mxCell id="HRK4YUY4a56FCwcSoxxM-228" value="GNU" style="text;html=1;strokeColor=none;fillColor=none;align=center;verticalAlign=middle;whiteSpace=wrap;rounded=0;fontFamily=Helvetica;fontSize=11;fontColor=default;" parent="HRK4YUY4a56FCwcSoxxM-1" vertex="1">
          <mxGeometry x="785" y="1213" width="47" height="13" as="geometry" />
        </mxCell>
        <mxCell id="HRK4YUY4a56FCwcSoxxM-229" value="GNU.AR" style="text;html=1;strokeColor=none;fillColor=none;align=center;verticalAlign=middle;whiteSpace=wrap;rounded=0;fontFamily=Helvetica;fontSize=11;fontColor=default;" parent="HRK4YUY4a56FCwcSoxxM-1" vertex="1">
          <mxGeometry x="57" y="1201" width="55" height="20" as="geometry" />
        </mxCell>
        <mxCell id="HRK4YUY4a56FCwcSoxxM-231" value="" style="endArrow=none;html=1;rounded=0;" parent="HRK4YUY4a56FCwcSoxxM-1" edge="1">
          <mxGeometry width="50" height="50" relative="1" as="geometry">
            <mxPoint x="28" y="1228.999999999999" as="sourcePoint" />
            <mxPoint x="839.9999999999995" y="1228.999999999999" as="targetPoint" />
          </mxGeometry>
        </mxCell>
        <mxCell id="HRK4YUY4a56FCwcSoxxM-232" value="" style="endArrow=none;html=1;rounded=0;labelBackgroundColor=default;fontFamily=Helvetica;fontSize=11;fontColor=default;startSize=3;endSize=3;sourcePerimeterSpacing=0;strokeColor=default;shape=connector;jumpStyle=none;jumpSize=6;" parent="HRK4YUY4a56FCwcSoxxM-1" edge="1">
          <mxGeometry width="50" height="50" relative="1" as="geometry">
            <mxPoint x="775.9999999999998" y="1227.499999999999" as="sourcePoint" />
            <mxPoint x="839.0000000000005" y="1228" as="targetPoint" />
            <Array as="points">
              <mxPoint x="776" y="1206.5" />
              <mxPoint x="839" y="1206.5" />
            </Array>
          </mxGeometry>
        </mxCell>
        <mxCell id="HRK4YUY4a56FCwcSoxxM-233" value="" style="verticalLabelPosition=bottom;html=1;verticalAlign=top;align=center;shape=mxgraph.floorplan.windowBow;strokeWidth=1;fontSize=11;direction=east;" parent="HRK4YUY4a56FCwcSoxxM-1" vertex="1">
          <mxGeometry x="129" y="1217.5" width="21" height="11" as="geometry" />
        </mxCell>
        <mxCell id="HRK4YUY4a56FCwcSoxxM-234" value="" style="verticalLabelPosition=bottom;html=1;verticalAlign=top;align=center;shape=mxgraph.floorplan.windowBow;strokeWidth=1;fontSize=11;direction=east;" parent="HRK4YUY4a56FCwcSoxxM-1" vertex="1">
          <mxGeometry x="73" y="1217.5" width="21" height="11" as="geometry" />
        </mxCell>
        <mxCell id="HRK4YUY4a56FCwcSoxxM-235" value="" style="endArrow=none;html=1;rounded=0;" parent="HRK4YUY4a56FCwcSoxxM-1" edge="1">
          <mxGeometry width="50" height="50" relative="1" as="geometry">
            <mxPoint x="28" y="1312.999999999999" as="sourcePoint" />
            <mxPoint x="839.9999999999995" y="1312.999999999999" as="targetPoint" />
          </mxGeometry>
        </mxCell>
        <mxCell id="HRK4YUY4a56FCwcSoxxM-237" value="" style="verticalLabelPosition=bottom;html=1;verticalAlign=top;align=center;shape=mxgraph.floorplan.windowBow;strokeWidth=1;fontSize=11;direction=east;" parent="HRK4YUY4a56FCwcSoxxM-1" vertex="1">
          <mxGeometry x="73" y="1301.5" width="21" height="11" as="geometry" />
        </mxCell>
        <mxCell id="HRK4YUY4a56FCwcSoxxM-238" value="3" style="text;html=1;strokeColor=none;fillColor=none;align=center;verticalAlign=middle;whiteSpace=wrap;rounded=0;fontFamily=Helvetica;fontSize=11;fontColor=default;" parent="HRK4YUY4a56FCwcSoxxM-1" vertex="1">
          <mxGeometry x="3" y="177" width="21" height="16" as="geometry" />
        </mxCell>
        <mxCell id="HRK4YUY4a56FCwcSoxxM-239" value="4" style="text;html=1;strokeColor=none;fillColor=none;align=center;verticalAlign=middle;whiteSpace=wrap;rounded=0;fontFamily=Helvetica;fontSize=11;fontColor=default;" parent="HRK4YUY4a56FCwcSoxxM-1" vertex="1">
          <mxGeometry x="3" y="261" width="21" height="16" as="geometry" />
        </mxCell>
        <mxCell id="HRK4YUY4a56FCwcSoxxM-240" value="5" style="text;html=1;strokeColor=none;fillColor=none;align=center;verticalAlign=middle;whiteSpace=wrap;rounded=0;fontFamily=Helvetica;fontSize=11;fontColor=default;" parent="HRK4YUY4a56FCwcSoxxM-1" vertex="1">
          <mxGeometry x="3" y="346" width="21" height="16" as="geometry" />
        </mxCell>
        <mxCell id="HRK4YUY4a56FCwcSoxxM-241" value="6" style="text;html=1;strokeColor=none;fillColor=none;align=center;verticalAlign=middle;whiteSpace=wrap;rounded=0;fontFamily=Helvetica;fontSize=11;fontColor=default;" parent="HRK4YUY4a56FCwcSoxxM-1" vertex="1">
          <mxGeometry x="3" y="401" width="21" height="16" as="geometry" />
        </mxCell>
        <mxCell id="HRK4YUY4a56FCwcSoxxM-242" value="7" style="text;html=1;strokeColor=none;fillColor=none;align=center;verticalAlign=middle;whiteSpace=wrap;rounded=0;fontFamily=Helvetica;fontSize=11;fontColor=default;" parent="HRK4YUY4a56FCwcSoxxM-1" vertex="1">
          <mxGeometry x="3" y="486" width="21" height="16" as="geometry" />
        </mxCell>
        <mxCell id="HRK4YUY4a56FCwcSoxxM-243" value="8" style="text;html=1;strokeColor=none;fillColor=none;align=center;verticalAlign=middle;whiteSpace=wrap;rounded=0;fontFamily=Helvetica;fontSize=11;fontColor=default;" parent="HRK4YUY4a56FCwcSoxxM-1" vertex="1">
          <mxGeometry x="3" y="541" width="21" height="16" as="geometry" />
        </mxCell>
        <mxCell id="HRK4YUY4a56FCwcSoxxM-244" value="9" style="text;html=1;strokeColor=none;fillColor=none;align=center;verticalAlign=middle;whiteSpace=wrap;rounded=0;fontFamily=Helvetica;fontSize=11;fontColor=default;" parent="HRK4YUY4a56FCwcSoxxM-1" vertex="1">
          <mxGeometry x="3" y="625" width="21" height="16" as="geometry" />
        </mxCell>
        <mxCell id="HRK4YUY4a56FCwcSoxxM-245" value="10" style="text;html=1;strokeColor=none;fillColor=none;align=center;verticalAlign=middle;whiteSpace=wrap;rounded=0;fontFamily=Helvetica;fontSize=11;fontColor=default;" parent="HRK4YUY4a56FCwcSoxxM-1" vertex="1">
          <mxGeometry x="3" y="681" width="21" height="16" as="geometry" />
        </mxCell>
        <mxCell id="HRK4YUY4a56FCwcSoxxM-246" value="11" style="text;html=1;strokeColor=none;fillColor=none;align=center;verticalAlign=middle;whiteSpace=wrap;rounded=0;fontFamily=Helvetica;fontSize=11;fontColor=default;" parent="HRK4YUY4a56FCwcSoxxM-1" vertex="1">
          <mxGeometry x="3" y="739" width="21" height="16" as="geometry" />
        </mxCell>
        <mxCell id="HRK4YUY4a56FCwcSoxxM-249" value="12" style="text;html=1;strokeColor=none;fillColor=none;align=center;verticalAlign=middle;whiteSpace=wrap;rounded=0;fontFamily=Helvetica;fontSize=11;fontColor=default;" parent="HRK4YUY4a56FCwcSoxxM-1" vertex="1">
          <mxGeometry x="3" y="823" width="21" height="16" as="geometry" />
        </mxCell>
        <mxCell id="HRK4YUY4a56FCwcSoxxM-250" value="13" style="text;html=1;strokeColor=none;fillColor=none;align=center;verticalAlign=middle;whiteSpace=wrap;rounded=0;fontFamily=Helvetica;fontSize=11;fontColor=default;" parent="HRK4YUY4a56FCwcSoxxM-1" vertex="1">
          <mxGeometry x="3" y="879" width="21" height="16" as="geometry" />
        </mxCell>
        <mxCell id="HRK4YUY4a56FCwcSoxxM-252" value="14" style="text;html=1;strokeColor=none;fillColor=none;align=center;verticalAlign=middle;whiteSpace=wrap;rounded=0;fontFamily=Helvetica;fontSize=11;fontColor=default;" parent="HRK4YUY4a56FCwcSoxxM-1" vertex="1">
          <mxGeometry x="3" y="961" width="21" height="16" as="geometry" />
        </mxCell>
        <mxCell id="HRK4YUY4a56FCwcSoxxM-253" value="15" style="text;html=1;strokeColor=none;fillColor=none;align=center;verticalAlign=middle;whiteSpace=wrap;rounded=0;fontFamily=Helvetica;fontSize=11;fontColor=default;" parent="HRK4YUY4a56FCwcSoxxM-1" vertex="1">
          <mxGeometry x="3" y="1045" width="21" height="16" as="geometry" />
        </mxCell>
        <mxCell id="HRK4YUY4a56FCwcSoxxM-255" value="16" style="text;html=1;strokeColor=none;fillColor=none;align=center;verticalAlign=middle;whiteSpace=wrap;rounded=0;fontFamily=Helvetica;fontSize=11;fontColor=default;" parent="HRK4YUY4a56FCwcSoxxM-1" vertex="1">
          <mxGeometry x="3" y="1155" width="21" height="16" as="geometry" />
        </mxCell>
        <mxCell id="HRK4YUY4a56FCwcSoxxM-256" value="17" style="text;html=1;strokeColor=none;fillColor=none;align=center;verticalAlign=middle;whiteSpace=wrap;rounded=0;fontFamily=Helvetica;fontSize=11;fontColor=default;" parent="HRK4YUY4a56FCwcSoxxM-1" vertex="1">
          <mxGeometry x="3" y="1211" width="21" height="16" as="geometry" />
        </mxCell>
        <mxCell id="HRK4YUY4a56FCwcSoxxM-257" value="18" style="text;html=1;strokeColor=none;fillColor=none;align=center;verticalAlign=middle;whiteSpace=wrap;rounded=0;fontFamily=Helvetica;fontSize=11;fontColor=default;" parent="HRK4YUY4a56FCwcSoxxM-1" vertex="1">
          <mxGeometry x="3" y="1295" width="21" height="16" as="geometry" />
        </mxCell>
        <mxCell id="kFLYP9cSm7YtKTo1aLOM-1" value="&lt;font style=&quot;font-size: 10px;&quot;&gt;BL1.RR(100)&lt;/font&gt;" style="text;html=1;strokeColor=none;fillColor=none;align=center;verticalAlign=middle;whiteSpace=wrap;rounded=0;fontFamily=Helvetica;fontSize=11;fontColor=default;" parent="HRK4YUY4a56FCwcSoxxM-1" vertex="1">
          <mxGeometry x="781" y="182" width="47" height="12" as="geometry" />
        </mxCell>
        <mxCell id="kFLYP9cSm7YtKTo1aLOM-3" value="BL1.AR" style="text;html=1;strokeColor=none;fillColor=none;align=center;verticalAlign=middle;whiteSpace=wrap;rounded=0;fontFamily=Helvetica;fontSize=11;fontColor=default;" parent="HRK4YUY4a56FCwcSoxxM-1" vertex="1">
          <mxGeometry x="66" y="251" width="40" height="17" as="geometry" />
        </mxCell>
        <mxCell id="kFLYP9cSm7YtKTo1aLOM-4" value="" style="verticalLabelPosition=bottom;html=1;verticalAlign=top;align=center;shape=mxgraph.floorplan.windowBow;strokeWidth=1;fontSize=11;direction=east;" parent="HRK4YUY4a56FCwcSoxxM-1" vertex="1">
          <mxGeometry x="74" y="267.5" width="21" height="11" as="geometry" />
        </mxCell>
        <mxCell id="kFLYP9cSm7YtKTo1aLOM-6" value="&lt;font style=&quot;font-size: 10px;&quot;&gt;PR.AR(0)&lt;/font&gt;" style="text;html=1;strokeColor=none;fillColor=none;align=center;verticalAlign=middle;whiteSpace=wrap;rounded=0;fontFamily=Helvetica;fontSize=11;fontColor=default;" parent="HRK4YUY4a56FCwcSoxxM-1" vertex="1">
          <mxGeometry x="775" y="56" width="47" height="12" as="geometry" />
        </mxCell>
        <mxCell id="kFLYP9cSm7YtKTo1aLOM-7" value="" style="endArrow=none;html=1;rounded=0;labelBackgroundColor=default;fontFamily=Helvetica;fontSize=11;fontColor=default;startSize=3;endSize=3;sourcePerimeterSpacing=0;strokeColor=default;shape=connector;jumpStyle=none;jumpSize=6;" parent="HRK4YUY4a56FCwcSoxxM-1" edge="1">
          <mxGeometry width="50" height="50" relative="1" as="geometry">
            <mxPoint x="756" y="82" as="sourcePoint" />
            <mxPoint x="839" y="82" as="targetPoint" />
            <Array as="points">
              <mxPoint x="756" y="54" />
              <mxPoint x="839" y="53.5" />
            </Array>
          </mxGeometry>
        </mxCell>
        <mxCell id="kFLYP9cSm7YtKTo1aLOM-8" value="&lt;font style=&quot;font-size: 10px;&quot;&gt;PR.RR(500)&lt;/font&gt;" style="text;html=1;strokeColor=none;fillColor=none;align=center;verticalAlign=middle;whiteSpace=wrap;rounded=0;fontFamily=Helvetica;fontSize=11;fontColor=default;" parent="HRK4YUY4a56FCwcSoxxM-1" vertex="1">
          <mxGeometry x="781" y="69" width="47" height="12" as="geometry" />
        </mxCell>
        <mxCell id="kFLYP9cSm7YtKTo1aLOM-9" value="PR.RR" style="text;html=1;strokeColor=none;fillColor=none;align=center;verticalAlign=middle;whiteSpace=wrap;rounded=0;fontFamily=Helvetica;fontSize=11;fontColor=default;" parent="HRK4YUY4a56FCwcSoxxM-1" vertex="1">
          <mxGeometry x="121" y="115" width="40" height="11" as="geometry" />
        </mxCell>
        <mxCell id="kFLYP9cSm7YtKTo1aLOM-10" value="" style="verticalLabelPosition=bottom;html=1;verticalAlign=top;align=center;shape=mxgraph.floorplan.windowBow;strokeWidth=1;fontSize=11;direction=east;" parent="HRK4YUY4a56FCwcSoxxM-1" vertex="1">
          <mxGeometry x="129" y="127.5" width="21" height="11" as="geometry" />
        </mxCell>
        <mxCell id="kFLYP9cSm7YtKTo1aLOM-16" value="&lt;font style=&quot;&quot;&gt;&lt;span style=&quot;font-size: 11px;&quot;&gt;(relay name).AR(millisecond) - 완동(time delay acting relay)&lt;/span&gt;&lt;br&gt;&lt;span style=&quot;font-size: 11px;&quot;&gt;(relay name)&lt;/span&gt;&lt;span style=&quot;background-color: initial;&quot;&gt;&lt;span style=&quot;font-size: 11px;&quot;&gt;.RR(millisecond) - 완방(time delay release relay)&lt;/span&gt;&lt;/span&gt;&lt;/font&gt;" style="text;html=1;strokeColor=none;fillColor=none;align=left;verticalAlign=middle;whiteSpace=wrap;rounded=0;fontSize=10;" parent="HRK4YUY4a56FCwcSoxxM-1" vertex="1">
          <mxGeometry x="28" y="11" width="588" height="30" as="geometry" />
        </mxCell>
        <mxCell id="kFLYP9cSm7YtKTo1aLOM-17" value="&lt;font style=&quot;font-size: 10px;&quot;&gt;FMPR.AR(0)&lt;/font&gt;" style="text;html=1;strokeColor=none;fillColor=none;align=center;verticalAlign=middle;whiteSpace=wrap;rounded=0;fontFamily=Helvetica;fontSize=11;fontColor=default;" parent="HRK4YUY4a56FCwcSoxxM-1" vertex="1">
          <mxGeometry x="771" y="336" width="47" height="12" as="geometry" />
        </mxCell>
        <mxCell id="kFLYP9cSm7YtKTo1aLOM-18" value="" style="endArrow=none;html=1;rounded=0;labelBackgroundColor=default;fontFamily=Helvetica;fontSize=11;fontColor=default;startSize=3;endSize=3;sourcePerimeterSpacing=0;strokeColor=default;shape=connector;jumpStyle=none;jumpSize=6;" parent="HRK4YUY4a56FCwcSoxxM-1" edge="1">
          <mxGeometry width="50" height="50" relative="1" as="geometry">
            <mxPoint x="756" y="362" as="sourcePoint" />
            <mxPoint x="839" y="362" as="targetPoint" />
            <Array as="points">
              <mxPoint x="756" y="334" />
              <mxPoint x="839" y="333.5" />
            </Array>
          </mxGeometry>
        </mxCell>
        <mxCell id="kFLYP9cSm7YtKTo1aLOM-19" value="&lt;font style=&quot;font-size: 10px;&quot;&gt;FMPR.RR(100)&lt;/font&gt;" style="text;html=1;strokeColor=none;fillColor=none;align=center;verticalAlign=middle;whiteSpace=wrap;rounded=0;fontFamily=Helvetica;fontSize=11;fontColor=default;" parent="HRK4YUY4a56FCwcSoxxM-1" vertex="1">
          <mxGeometry x="777" y="349" width="47" height="12" as="geometry" />
        </mxCell>
        <mxCell id="kFLYP9cSm7YtKTo1aLOM-20" value="&lt;font style=&quot;font-size: 10px;&quot;&gt;BL2.AR(0)&lt;/font&gt;" style="text;html=1;strokeColor=none;fillColor=none;align=center;verticalAlign=middle;whiteSpace=wrap;rounded=0;fontFamily=Helvetica;fontSize=11;fontColor=default;" parent="HRK4YUY4a56FCwcSoxxM-1" vertex="1">
          <mxGeometry x="771" y="476" width="47" height="12" as="geometry" />
        </mxCell>
        <mxCell id="kFLYP9cSm7YtKTo1aLOM-21" value="" style="endArrow=none;html=1;rounded=0;labelBackgroundColor=default;fontFamily=Helvetica;fontSize=11;fontColor=default;startSize=3;endSize=3;sourcePerimeterSpacing=0;strokeColor=default;shape=connector;jumpStyle=none;jumpSize=6;" parent="HRK4YUY4a56FCwcSoxxM-1" edge="1">
          <mxGeometry width="50" height="50" relative="1" as="geometry">
            <mxPoint x="756" y="502" as="sourcePoint" />
            <mxPoint x="839" y="502" as="targetPoint" />
            <Array as="points">
              <mxPoint x="756" y="474" />
              <mxPoint x="839" y="473.5" />
            </Array>
          </mxGeometry>
        </mxCell>
        <mxCell id="kFLYP9cSm7YtKTo1aLOM-22" value="&lt;font style=&quot;font-size: 10px;&quot;&gt;BL2.RR(500)&lt;/font&gt;" style="text;html=1;strokeColor=none;fillColor=none;align=center;verticalAlign=middle;whiteSpace=wrap;rounded=0;fontFamily=Helvetica;fontSize=11;fontColor=default;" parent="HRK4YUY4a56FCwcSoxxM-1" vertex="1">
          <mxGeometry x="777" y="489" width="47" height="12" as="geometry" />
        </mxCell>
        <mxCell id="kFLYP9cSm7YtKTo1aLOM-23" value="&lt;font style=&quot;font-size: 10px;&quot;&gt;FP.AR(0)&lt;/font&gt;" style="text;html=1;strokeColor=none;fillColor=none;align=center;verticalAlign=middle;whiteSpace=wrap;rounded=0;fontFamily=Helvetica;fontSize=11;fontColor=default;" parent="HRK4YUY4a56FCwcSoxxM-1" vertex="1">
          <mxGeometry x="771" y="616" width="47" height="12" as="geometry" />
        </mxCell>
        <mxCell id="kFLYP9cSm7YtKTo1aLOM-24" value="" style="endArrow=none;html=1;rounded=0;labelBackgroundColor=default;fontFamily=Helvetica;fontSize=11;fontColor=default;startSize=3;endSize=3;sourcePerimeterSpacing=0;strokeColor=default;shape=connector;jumpStyle=none;jumpSize=6;" parent="HRK4YUY4a56FCwcSoxxM-1" edge="1">
          <mxGeometry width="50" height="50" relative="1" as="geometry">
            <mxPoint x="756" y="642" as="sourcePoint" />
            <mxPoint x="839" y="642" as="targetPoint" />
            <Array as="points">
              <mxPoint x="756" y="614" />
              <mxPoint x="839" y="613.5" />
            </Array>
          </mxGeometry>
        </mxCell>
        <mxCell id="kFLYP9cSm7YtKTo1aLOM-25" value="&lt;font style=&quot;font-size: 10px;&quot;&gt;FP.RR(100)&lt;/font&gt;" style="text;html=1;strokeColor=none;fillColor=none;align=center;verticalAlign=middle;whiteSpace=wrap;rounded=0;fontFamily=Helvetica;fontSize=11;fontColor=default;" parent="HRK4YUY4a56FCwcSoxxM-1" vertex="1">
          <mxGeometry x="777" y="629" width="47" height="12" as="geometry" />
        </mxCell>
        <mxCell id="kFLYP9cSm7YtKTo1aLOM-29" value="&lt;font style=&quot;font-size: 10px;&quot;&gt;FP3.AR(0)&lt;/font&gt;" style="text;html=1;strokeColor=none;fillColor=none;align=center;verticalAlign=middle;whiteSpace=wrap;rounded=0;fontFamily=Helvetica;fontSize=11;fontColor=default;" parent="HRK4YUY4a56FCwcSoxxM-1" vertex="1">
          <mxGeometry x="771" y="815" width="47" height="12" as="geometry" />
        </mxCell>
        <mxCell id="kFLYP9cSm7YtKTo1aLOM-30" value="" style="endArrow=none;html=1;rounded=0;labelBackgroundColor=default;fontFamily=Helvetica;fontSize=11;fontColor=default;startSize=3;endSize=3;sourcePerimeterSpacing=0;strokeColor=default;shape=connector;jumpStyle=none;jumpSize=6;" parent="HRK4YUY4a56FCwcSoxxM-1" edge="1">
          <mxGeometry width="50" height="50" relative="1" as="geometry">
            <mxPoint x="756" y="841" as="sourcePoint" />
            <mxPoint x="839" y="841" as="targetPoint" />
            <Array as="points">
              <mxPoint x="756" y="813" />
              <mxPoint x="839" y="812.5" />
            </Array>
          </mxGeometry>
        </mxCell>
        <mxCell id="kFLYP9cSm7YtKTo1aLOM-31" value="&lt;font style=&quot;font-size: 10px;&quot;&gt;FP3.RR(100)&lt;/font&gt;" style="text;html=1;strokeColor=none;fillColor=none;align=center;verticalAlign=middle;whiteSpace=wrap;rounded=0;fontFamily=Helvetica;fontSize=11;fontColor=default;" parent="HRK4YUY4a56FCwcSoxxM-1" vertex="1">
          <mxGeometry x="777" y="828" width="47" height="12" as="geometry" />
        </mxCell>
        <mxCell id="kFLYP9cSm7YtKTo1aLOM-35" value="&lt;font style=&quot;font-size: 10px;&quot;&gt;GEU.AR(0)&lt;/font&gt;" style="text;html=1;strokeColor=none;fillColor=none;align=center;verticalAlign=middle;whiteSpace=wrap;rounded=0;fontFamily=Helvetica;fontSize=11;fontColor=default;" parent="HRK4YUY4a56FCwcSoxxM-1" vertex="1">
          <mxGeometry x="771" y="952" width="47" height="12" as="geometry" />
        </mxCell>
        <mxCell id="kFLYP9cSm7YtKTo1aLOM-36" value="" style="endArrow=none;html=1;rounded=0;labelBackgroundColor=default;fontFamily=Helvetica;fontSize=11;fontColor=default;startSize=3;endSize=3;sourcePerimeterSpacing=0;strokeColor=default;shape=connector;jumpStyle=none;jumpSize=6;" parent="HRK4YUY4a56FCwcSoxxM-1" edge="1">
          <mxGeometry width="50" height="50" relative="1" as="geometry">
            <mxPoint x="756" y="978" as="sourcePoint" />
            <mxPoint x="839" y="978" as="targetPoint" />
            <Array as="points">
              <mxPoint x="756" y="950" />
              <mxPoint x="839" y="949.5" />
            </Array>
          </mxGeometry>
        </mxCell>
        <mxCell id="kFLYP9cSm7YtKTo1aLOM-37" value="&lt;font style=&quot;font-size: 10px;&quot;&gt;GEU.RR(100)&lt;/font&gt;" style="text;html=1;strokeColor=none;fillColor=none;align=center;verticalAlign=middle;whiteSpace=wrap;rounded=0;fontFamily=Helvetica;fontSize=11;fontColor=default;" parent="HRK4YUY4a56FCwcSoxxM-1" vertex="1">
          <mxGeometry x="777" y="965" width="47" height="12" as="geometry" />
        </mxCell>
        <mxCell id="kFLYP9cSm7YtKTo1aLOM-38" value="&lt;font style=&quot;font-size: 10px;&quot;&gt;GNU.AR(0)&lt;/font&gt;" style="text;html=1;strokeColor=none;fillColor=none;align=center;verticalAlign=middle;whiteSpace=wrap;rounded=0;fontFamily=Helvetica;fontSize=11;fontColor=default;" parent="HRK4YUY4a56FCwcSoxxM-1" vertex="1">
          <mxGeometry x="771" y="1036" width="47" height="12" as="geometry" />
        </mxCell>
        <mxCell id="kFLYP9cSm7YtKTo1aLOM-39" value="" style="endArrow=none;html=1;rounded=0;labelBackgroundColor=default;fontFamily=Helvetica;fontSize=11;fontColor=default;startSize=3;endSize=3;sourcePerimeterSpacing=0;strokeColor=default;shape=connector;jumpStyle=none;jumpSize=6;" parent="HRK4YUY4a56FCwcSoxxM-1" edge="1">
          <mxGeometry width="50" height="50" relative="1" as="geometry">
            <mxPoint x="756" y="1062" as="sourcePoint" />
            <mxPoint x="839" y="1062" as="targetPoint" />
            <Array as="points">
              <mxPoint x="756" y="1034" />
              <mxPoint x="839" y="1033.5" />
            </Array>
          </mxGeometry>
        </mxCell>
        <mxCell id="kFLYP9cSm7YtKTo1aLOM-40" value="&lt;font style=&quot;font-size: 10px;&quot;&gt;GNU.RR(100)&lt;/font&gt;" style="text;html=1;strokeColor=none;fillColor=none;align=center;verticalAlign=middle;whiteSpace=wrap;rounded=0;fontFamily=Helvetica;fontSize=11;fontColor=default;" parent="HRK4YUY4a56FCwcSoxxM-1" vertex="1">
          <mxGeometry x="777" y="1049" width="47" height="12" as="geometry" />
        </mxCell>
        <mxCell id="kFLYP9cSm7YtKTo1aLOM-41" value="&lt;font style=&quot;font-size: 10px;&quot;&gt;RLMRA.AR(0)&lt;/font&gt;" style="text;html=1;strokeColor=none;fillColor=none;align=center;verticalAlign=middle;whiteSpace=wrap;rounded=0;fontFamily=Helvetica;fontSize=11;fontColor=default;" parent="HRK4YUY4a56FCwcSoxxM-1" vertex="1">
          <mxGeometry x="770" y="1286" width="47" height="12" as="geometry" />
        </mxCell>
        <mxCell id="kFLYP9cSm7YtKTo1aLOM-42" value="" style="endArrow=none;html=1;rounded=0;labelBackgroundColor=default;fontFamily=Helvetica;fontSize=11;fontColor=default;startSize=3;endSize=3;sourcePerimeterSpacing=0;strokeColor=default;shape=connector;jumpStyle=none;jumpSize=6;" parent="HRK4YUY4a56FCwcSoxxM-1" edge="1">
          <mxGeometry width="50" height="50" relative="1" as="geometry">
            <mxPoint x="756" y="1312" as="sourcePoint" />
            <mxPoint x="839" y="1312" as="targetPoint" />
            <Array as="points">
              <mxPoint x="756" y="1284" />
              <mxPoint x="839" y="1283.5" />
            </Array>
          </mxGeometry>
        </mxCell>
        <mxCell id="kFLYP9cSm7YtKTo1aLOM-43" value="&lt;font style=&quot;font-size: 10px;&quot;&gt;RLMRA.RR(100)&lt;/font&gt;" style="text;html=1;strokeColor=none;fillColor=none;align=center;verticalAlign=middle;whiteSpace=wrap;rounded=0;fontFamily=Helvetica;fontSize=11;fontColor=default;" parent="HRK4YUY4a56FCwcSoxxM-1" vertex="1">
          <mxGeometry x="776" y="1299" width="47" height="12" as="geometry" />
        </mxCell>
      </root>
    </mxGraphModel>
  </diagram>
  <diagram name="신호현시로직(최종)" id="B5FuGDLu49UilJpqST1V">
    <mxGraphModel dx="1122" dy="720" grid="1" gridSize="7" guides="1" tooltips="1" connect="1" arrows="1" fold="1" page="1" pageScale="1" pageWidth="850" pageHeight="1100" math="0" shadow="0">
      <root>
        <mxCell id="6UPrmxei2MnN2lRaHue7-0" />
        <mxCell id="6UPrmxei2MnN2lRaHue7-1" parent="6UPrmxei2MnN2lRaHue7-0" />
        <mxCell id="6UPrmxei2MnN2lRaHue7-2" value="" style="endArrow=none;html=1;rounded=0;" parent="6UPrmxei2MnN2lRaHue7-1" edge="1">
          <mxGeometry width="50" height="50" relative="1" as="geometry">
            <mxPoint x="28" y="83" as="sourcePoint" />
            <mxPoint x="840" y="83" as="targetPoint" />
          </mxGeometry>
        </mxCell>
        <mxCell id="6UPrmxei2MnN2lRaHue7-4" value="" style="endArrow=none;html=1;rounded=0;" parent="6UPrmxei2MnN2lRaHue7-1" edge="1">
          <mxGeometry width="50" height="50" relative="1" as="geometry">
            <mxPoint x="28" y="280" as="sourcePoint" />
            <mxPoint x="28" y="63" as="targetPoint" />
          </mxGeometry>
        </mxCell>
        <mxCell id="6UPrmxei2MnN2lRaHue7-7" value="GNU" style="text;html=1;strokeColor=none;fillColor=none;align=center;verticalAlign=middle;whiteSpace=wrap;rounded=0;fontFamily=Helvetica;fontSize=11;fontColor=default;" parent="6UPrmxei2MnN2lRaHue7-1" vertex="1">
          <mxGeometry x="232" y="58" width="40" height="20" as="geometry" />
        </mxCell>
        <mxCell id="6UPrmxei2MnN2lRaHue7-8" value="GEU" style="text;html=1;strokeColor=none;fillColor=none;align=center;verticalAlign=middle;whiteSpace=wrap;rounded=0;fontFamily=Helvetica;fontSize=11;fontColor=default;" parent="6UPrmxei2MnN2lRaHue7-1" vertex="1">
          <mxGeometry x="284" y="58" width="47" height="20" as="geometry" />
        </mxCell>
        <mxCell id="6UPrmxei2MnN2lRaHue7-9" value="oSDN" style="text;html=1;strokeColor=none;fillColor=none;align=center;verticalAlign=middle;whiteSpace=wrap;rounded=0;fontFamily=Helvetica;fontSize=11;fontColor=default;" parent="6UPrmxei2MnN2lRaHue7-1" vertex="1">
          <mxGeometry x="783" y="63" width="47" height="20" as="geometry" />
        </mxCell>
        <mxCell id="6UPrmxei2MnN2lRaHue7-12" value="" style="endArrow=none;html=1;rounded=0;" parent="6UPrmxei2MnN2lRaHue7-1" edge="1">
          <mxGeometry width="50" height="50" relative="1" as="geometry">
            <mxPoint x="28" y="139" as="sourcePoint" />
            <mxPoint x="840" y="140" as="targetPoint" />
          </mxGeometry>
        </mxCell>
        <mxCell id="6UPrmxei2MnN2lRaHue7-13" value="oSDN" style="text;html=1;strokeColor=none;fillColor=none;align=center;verticalAlign=middle;whiteSpace=wrap;rounded=0;fontFamily=Helvetica;fontSize=11;fontColor=default;" parent="6UPrmxei2MnN2lRaHue7-1" vertex="1">
          <mxGeometry x="65" y="114" width="40" height="14" as="geometry" />
        </mxCell>
        <mxCell id="6UPrmxei2MnN2lRaHue7-23" value="" style="endArrow=none;html=1;rounded=0;" parent="6UPrmxei2MnN2lRaHue7-1" edge="1">
          <mxGeometry width="50" height="50" relative="1" as="geometry">
            <mxPoint x="28" y="196.9999999999999" as="sourcePoint" />
            <mxPoint x="840" y="197" as="targetPoint" />
          </mxGeometry>
        </mxCell>
        <mxCell id="6UPrmxei2MnN2lRaHue7-24" value="&lt;font style=&quot;font-size: 11px;&quot;&gt;PR&lt;/font&gt;" style="text;html=1;strokeColor=none;fillColor=none;align=center;verticalAlign=middle;whiteSpace=wrap;rounded=0;fontFamily=Helvetica;fontSize=11;fontColor=default;" parent="6UPrmxei2MnN2lRaHue7-1" vertex="1">
          <mxGeometry x="121" y="172" width="40" height="20" as="geometry" />
        </mxCell>
        <mxCell id="6UPrmxei2MnN2lRaHue7-25" value="oYCON" style="text;html=1;strokeColor=none;fillColor=none;align=center;verticalAlign=middle;whiteSpace=wrap;rounded=0;fontFamily=Helvetica;fontSize=11;fontColor=default;" parent="6UPrmxei2MnN2lRaHue7-1" vertex="1">
          <mxGeometry x="784" y="178" width="47" height="20" as="geometry" />
        </mxCell>
        <mxCell id="6UPrmxei2MnN2lRaHue7-28" value="1" style="text;html=1;strokeColor=none;fillColor=none;align=center;verticalAlign=middle;whiteSpace=wrap;rounded=0;fontFamily=Helvetica;fontSize=11;fontColor=default;" parent="6UPrmxei2MnN2lRaHue7-1" vertex="1">
          <mxGeometry x="5" y="64" width="18" height="16" as="geometry" />
        </mxCell>
        <mxCell id="6UPrmxei2MnN2lRaHue7-34" value="&lt;font style=&quot;font-size: 11px;&quot;&gt;FP1&lt;/font&gt;" style="text;html=1;strokeColor=none;fillColor=none;align=center;verticalAlign=middle;whiteSpace=wrap;rounded=0;fontFamily=Helvetica;fontSize=11;fontColor=default;" parent="6UPrmxei2MnN2lRaHue7-1" vertex="1">
          <mxGeometry x="180" y="172" width="33" height="13" as="geometry" />
        </mxCell>
        <mxCell id="6UPrmxei2MnN2lRaHue7-36" value="BL1" style="text;html=1;strokeColor=none;fillColor=none;align=center;verticalAlign=middle;whiteSpace=wrap;rounded=0;fontFamily=Helvetica;fontSize=11;fontColor=default;" parent="6UPrmxei2MnN2lRaHue7-1" vertex="1">
          <mxGeometry x="289" y="170" width="40" height="20" as="geometry" />
        </mxCell>
        <mxCell id="6UPrmxei2MnN2lRaHue7-37" value="GNU" style="text;html=1;strokeColor=none;fillColor=none;align=center;verticalAlign=middle;whiteSpace=wrap;rounded=0;fontFamily=Helvetica;fontSize=11;fontColor=default;" parent="6UPrmxei2MnN2lRaHue7-1" vertex="1">
          <mxGeometry x="400" y="169" width="40" height="20" as="geometry" />
        </mxCell>
        <mxCell id="6UPrmxei2MnN2lRaHue7-40" value="BL2" style="text;html=1;strokeColor=none;fillColor=none;align=center;verticalAlign=middle;whiteSpace=wrap;rounded=0;fontFamily=Helvetica;fontSize=11;fontColor=default;" parent="6UPrmxei2MnN2lRaHue7-1" vertex="1">
          <mxGeometry x="624" y="169" width="40" height="20" as="geometry" />
        </mxCell>
        <mxCell id="6UPrmxei2MnN2lRaHue7-41" value="" style="verticalLabelPosition=bottom;html=1;verticalAlign=top;align=center;shape=mxgraph.floorplan.windowBow;strokeWidth=1;direction=east;" parent="6UPrmxei2MnN2lRaHue7-1" vertex="1">
          <mxGeometry x="631" y="166" width="24" height="48" as="geometry" />
        </mxCell>
        <mxCell id="6UPrmxei2MnN2lRaHue7-47" value="FP3" style="text;html=1;strokeColor=none;fillColor=none;align=center;verticalAlign=middle;whiteSpace=wrap;rounded=0;fontFamily=Helvetica;fontSize=11;fontColor=default;" parent="6UPrmxei2MnN2lRaHue7-1" vertex="1">
          <mxGeometry x="456" y="176" width="40" height="20" as="geometry" />
        </mxCell>
        <mxCell id="6UPrmxei2MnN2lRaHue7-48" value="" style="verticalLabelPosition=bottom;html=1;verticalAlign=top;align=center;shape=mxgraph.floorplan.windowBow;strokeWidth=1;fontSize=11;" parent="6UPrmxei2MnN2lRaHue7-1" vertex="1">
          <mxGeometry x="185.5" y="187" width="21" height="11" as="geometry" />
        </mxCell>
        <mxCell id="6UPrmxei2MnN2lRaHue7-49" value="" style="verticalLabelPosition=bottom;html=1;verticalAlign=top;align=center;shape=mxgraph.floorplan.windowBow;strokeWidth=1;fontSize=11;" parent="6UPrmxei2MnN2lRaHue7-1" vertex="1">
          <mxGeometry x="297.5" y="187" width="21" height="11" as="geometry" />
        </mxCell>
        <mxCell id="6UPrmxei2MnN2lRaHue7-52" value="" style="verticalLabelPosition=bottom;html=1;verticalAlign=top;align=center;shape=mxgraph.floorplan.windowBow;strokeWidth=1;fontSize=11;direction=west;" parent="6UPrmxei2MnN2lRaHue7-1" vertex="1">
          <mxGeometry x="129.5" y="197" width="21" height="11" as="geometry" />
        </mxCell>
        <mxCell id="6UPrmxei2MnN2lRaHue7-53" value="" style="verticalLabelPosition=bottom;html=1;verticalAlign=top;align=center;shape=mxgraph.floorplan.windowBow;strokeWidth=1;fontSize=11;direction=west;" parent="6UPrmxei2MnN2lRaHue7-1" vertex="1">
          <mxGeometry x="410" y="197" width="21" height="11" as="geometry" />
        </mxCell>
        <mxCell id="6UPrmxei2MnN2lRaHue7-55" value="" style="verticalLabelPosition=bottom;html=1;verticalAlign=top;align=center;shape=mxgraph.floorplan.windowBow;strokeWidth=1;fontSize=11;direction=west;" parent="6UPrmxei2MnN2lRaHue7-1" vertex="1">
          <mxGeometry x="465.5" y="198" width="21" height="11" as="geometry" />
        </mxCell>
        <mxCell id="6UPrmxei2MnN2lRaHue7-56" value="" style="endArrow=none;html=1;rounded=0;labelBackgroundColor=default;fontFamily=Helvetica;fontSize=11;fontColor=default;startSize=3;endSize=3;sourcePerimeterSpacing=0;strokeColor=default;shape=connector;jumpStyle=none;jumpSize=6;" parent="6UPrmxei2MnN2lRaHue7-1" edge="1">
          <mxGeometry width="50" height="50" relative="1" as="geometry">
            <mxPoint x="776" y="82.5" as="sourcePoint" />
            <mxPoint x="839" y="83" as="targetPoint" />
            <Array as="points">
              <mxPoint x="776" y="61.5" />
              <mxPoint x="839" y="61.5" />
            </Array>
          </mxGeometry>
        </mxCell>
        <mxCell id="6UPrmxei2MnN2lRaHue7-57" value="" style="endArrow=none;html=1;rounded=0;labelBackgroundColor=default;fontFamily=Helvetica;fontSize=11;fontColor=default;startSize=3;endSize=3;sourcePerimeterSpacing=0;strokeColor=default;shape=connector;jumpStyle=none;jumpSize=6;" parent="6UPrmxei2MnN2lRaHue7-1" edge="1">
          <mxGeometry width="50" height="50" relative="1" as="geometry">
            <mxPoint x="775.9999999999998" y="196.5" as="sourcePoint" />
            <mxPoint x="839.0000000000002" y="197" as="targetPoint" />
            <Array as="points">
              <mxPoint x="776" y="175.5" />
              <mxPoint x="839" y="175.5" />
            </Array>
          </mxGeometry>
        </mxCell>
        <mxCell id="6UPrmxei2MnN2lRaHue7-61" value="" style="verticalLabelPosition=bottom;html=1;verticalAlign=top;align=center;shape=mxgraph.floorplan.windowBow;strokeWidth=1;fontSize=11;direction=west;" parent="6UPrmxei2MnN2lRaHue7-1" vertex="1">
          <mxGeometry x="241" y="82.5" width="21" height="11" as="geometry" />
        </mxCell>
        <mxCell id="6UPrmxei2MnN2lRaHue7-62" value="" style="verticalLabelPosition=bottom;html=1;verticalAlign=top;align=center;shape=mxgraph.floorplan.windowBow;strokeWidth=1;fontSize=11;direction=west;" parent="6UPrmxei2MnN2lRaHue7-1" vertex="1">
          <mxGeometry x="297" y="82.5" width="21" height="11" as="geometry" />
        </mxCell>
        <mxCell id="6UPrmxei2MnN2lRaHue7-67" value="" style="verticalLabelPosition=bottom;html=1;verticalAlign=top;align=center;shape=mxgraph.floorplan.windowBow;strokeWidth=1;fontSize=11;" parent="6UPrmxei2MnN2lRaHue7-1" vertex="1">
          <mxGeometry x="73.5" y="128" width="21" height="11" as="geometry" />
        </mxCell>
        <mxCell id="6UPrmxei2MnN2lRaHue7-78" value="" style="endArrow=none;html=1;rounded=0;" parent="6UPrmxei2MnN2lRaHue7-1" edge="1">
          <mxGeometry width="50" height="50" relative="1" as="geometry">
            <mxPoint x="28" y="252" as="sourcePoint" />
            <mxPoint x="840" y="252" as="targetPoint" />
          </mxGeometry>
        </mxCell>
        <mxCell id="6UPrmxei2MnN2lRaHue7-79" value="&lt;font style=&quot;font-size: 11px;&quot;&gt;PR&lt;/font&gt;" style="text;html=1;strokeColor=none;fillColor=none;align=center;verticalAlign=middle;whiteSpace=wrap;rounded=0;fontFamily=Helvetica;fontSize=11;fontColor=default;" parent="6UPrmxei2MnN2lRaHue7-1" vertex="1">
          <mxGeometry x="121" y="227" width="40" height="20" as="geometry" />
        </mxCell>
        <mxCell id="6UPrmxei2MnN2lRaHue7-80" value="oGCON" style="text;html=1;strokeColor=none;fillColor=none;align=center;verticalAlign=middle;whiteSpace=wrap;rounded=0;fontFamily=Helvetica;fontSize=11;fontColor=default;" parent="6UPrmxei2MnN2lRaHue7-1" vertex="1">
          <mxGeometry x="784" y="233" width="47" height="20" as="geometry" />
        </mxCell>
        <mxCell id="6UPrmxei2MnN2lRaHue7-83" value="&lt;font style=&quot;font-size: 11px;&quot;&gt;FP1&lt;/font&gt;" style="text;html=1;strokeColor=none;fillColor=none;align=center;verticalAlign=middle;whiteSpace=wrap;rounded=0;fontFamily=Helvetica;fontSize=11;fontColor=default;" parent="6UPrmxei2MnN2lRaHue7-1" vertex="1">
          <mxGeometry x="180" y="227" width="33" height="13" as="geometry" />
        </mxCell>
        <mxCell id="6UPrmxei2MnN2lRaHue7-85" value="BL1" style="text;html=1;strokeColor=none;fillColor=none;align=center;verticalAlign=middle;whiteSpace=wrap;rounded=0;fontFamily=Helvetica;fontSize=11;fontColor=default;" parent="6UPrmxei2MnN2lRaHue7-1" vertex="1">
          <mxGeometry x="289" y="225" width="40" height="20" as="geometry" />
        </mxCell>
        <mxCell id="6UPrmxei2MnN2lRaHue7-87" value="GEU" style="text;html=1;strokeColor=none;fillColor=none;align=center;verticalAlign=middle;whiteSpace=wrap;rounded=0;fontFamily=Helvetica;fontSize=11;fontColor=default;" parent="6UPrmxei2MnN2lRaHue7-1" vertex="1">
          <mxGeometry x="400" y="226" width="40" height="20" as="geometry" />
        </mxCell>
        <mxCell id="6UPrmxei2MnN2lRaHue7-89" value="BL2" style="text;html=1;strokeColor=none;fillColor=none;align=center;verticalAlign=middle;whiteSpace=wrap;rounded=0;fontFamily=Helvetica;fontSize=11;fontColor=default;" parent="6UPrmxei2MnN2lRaHue7-1" vertex="1">
          <mxGeometry x="568" y="224" width="40" height="20" as="geometry" />
        </mxCell>
        <mxCell id="6UPrmxei2MnN2lRaHue7-90" value="" style="verticalLabelPosition=bottom;html=1;verticalAlign=top;align=center;shape=mxgraph.floorplan.windowBow;strokeWidth=1;direction=east;" parent="6UPrmxei2MnN2lRaHue7-1" vertex="1">
          <mxGeometry x="575" y="221" width="24" height="48" as="geometry" />
        </mxCell>
        <mxCell id="6UPrmxei2MnN2lRaHue7-91" value="FP3" style="text;html=1;strokeColor=none;fillColor=none;align=center;verticalAlign=middle;whiteSpace=wrap;rounded=0;fontFamily=Helvetica;fontSize=11;fontColor=default;" parent="6UPrmxei2MnN2lRaHue7-1" vertex="1">
          <mxGeometry x="456" y="226" width="40" height="17" as="geometry" />
        </mxCell>
        <mxCell id="6UPrmxei2MnN2lRaHue7-92" value="" style="verticalLabelPosition=bottom;html=1;verticalAlign=top;align=center;shape=mxgraph.floorplan.windowBow;strokeWidth=1;fontSize=11;" parent="6UPrmxei2MnN2lRaHue7-1" vertex="1">
          <mxGeometry x="185.5" y="242" width="21" height="11" as="geometry" />
        </mxCell>
        <mxCell id="6UPrmxei2MnN2lRaHue7-93" value="" style="verticalLabelPosition=bottom;html=1;verticalAlign=top;align=center;shape=mxgraph.floorplan.windowBow;strokeWidth=1;fontSize=11;" parent="6UPrmxei2MnN2lRaHue7-1" vertex="1">
          <mxGeometry x="297.5" y="242" width="21" height="11" as="geometry" />
        </mxCell>
        <mxCell id="6UPrmxei2MnN2lRaHue7-96" value="" style="verticalLabelPosition=bottom;html=1;verticalAlign=top;align=center;shape=mxgraph.floorplan.windowBow;strokeWidth=1;fontSize=11;direction=west;" parent="6UPrmxei2MnN2lRaHue7-1" vertex="1">
          <mxGeometry x="129.5" y="252" width="21" height="11" as="geometry" />
        </mxCell>
        <mxCell id="6UPrmxei2MnN2lRaHue7-99" value="" style="verticalLabelPosition=bottom;html=1;verticalAlign=top;align=center;shape=mxgraph.floorplan.windowBow;strokeWidth=1;fontSize=11;direction=east;" parent="6UPrmxei2MnN2lRaHue7-1" vertex="1">
          <mxGeometry x="465.5" y="240" width="21" height="11" as="geometry" />
        </mxCell>
        <mxCell id="6UPrmxei2MnN2lRaHue7-100" value="" style="endArrow=none;html=1;rounded=0;labelBackgroundColor=default;fontFamily=Helvetica;fontSize=11;fontColor=default;startSize=3;endSize=3;sourcePerimeterSpacing=0;strokeColor=default;shape=connector;jumpStyle=none;jumpSize=6;" parent="6UPrmxei2MnN2lRaHue7-1" edge="1">
          <mxGeometry width="50" height="50" relative="1" as="geometry">
            <mxPoint x="775.9999999999998" y="251.5" as="sourcePoint" />
            <mxPoint x="839.0000000000002" y="252" as="targetPoint" />
            <Array as="points">
              <mxPoint x="776" y="230.5" />
              <mxPoint x="839" y="230.5" />
            </Array>
          </mxGeometry>
        </mxCell>
        <mxCell id="6UPrmxei2MnN2lRaHue7-101" value="2" style="text;html=1;strokeColor=none;fillColor=none;align=center;verticalAlign=middle;whiteSpace=wrap;rounded=0;fontFamily=Helvetica;fontSize=11;fontColor=default;" parent="6UPrmxei2MnN2lRaHue7-1" vertex="1">
          <mxGeometry x="5" y="121" width="18" height="16" as="geometry" />
        </mxCell>
        <mxCell id="6UPrmxei2MnN2lRaHue7-103" value="3" style="text;html=1;strokeColor=none;fillColor=none;align=center;verticalAlign=middle;whiteSpace=wrap;rounded=0;fontFamily=Helvetica;fontSize=11;fontColor=default;" parent="6UPrmxei2MnN2lRaHue7-1" vertex="1">
          <mxGeometry x="5" y="179" width="18" height="16" as="geometry" />
        </mxCell>
        <mxCell id="6UPrmxei2MnN2lRaHue7-104" value="4" style="text;html=1;strokeColor=none;fillColor=none;align=center;verticalAlign=middle;whiteSpace=wrap;rounded=0;fontFamily=Helvetica;fontSize=11;fontColor=default;" parent="6UPrmxei2MnN2lRaHue7-1" vertex="1">
          <mxGeometry x="5" y="232" width="18" height="16" as="geometry" />
        </mxCell>
        <mxCell id="3Q8gLqQfG5c25Q97Dz78-0" value="FP1" style="text;html=1;strokeColor=none;fillColor=none;align=center;verticalAlign=middle;whiteSpace=wrap;rounded=0;fontFamily=Helvetica;fontSize=11;fontColor=default;" parent="6UPrmxei2MnN2lRaHue7-1" vertex="1">
          <mxGeometry x="122" y="118" width="40" height="12" as="geometry" />
        </mxCell>
        <mxCell id="3Q8gLqQfG5c25Q97Dz78-1" value="BL1" style="text;html=1;strokeColor=none;fillColor=none;align=center;verticalAlign=middle;whiteSpace=wrap;rounded=0;fontFamily=Helvetica;fontSize=11;fontColor=default;" parent="6UPrmxei2MnN2lRaHue7-1" vertex="1">
          <mxGeometry x="175" y="117" width="41" height="14" as="geometry" />
        </mxCell>
        <mxCell id="3Q8gLqQfG5c25Q97Dz78-2" value="" style="verticalLabelPosition=bottom;html=1;verticalAlign=top;align=center;shape=mxgraph.floorplan.windowBow;strokeWidth=1;fontSize=11;direction=west;" parent="6UPrmxei2MnN2lRaHue7-1" vertex="1">
          <mxGeometry x="129" y="139" width="21" height="11" as="geometry" />
        </mxCell>
        <mxCell id="3Q8gLqQfG5c25Q97Dz78-3" value="" style="verticalLabelPosition=bottom;html=1;verticalAlign=top;align=center;shape=mxgraph.floorplan.windowBow;strokeWidth=1;fontSize=11;direction=west;" parent="6UPrmxei2MnN2lRaHue7-1" vertex="1">
          <mxGeometry x="185" y="139" width="21" height="11" as="geometry" />
        </mxCell>
        <mxCell id="AorRCWd9_sq9tOxVo8o6-0" value="oRCON" style="text;html=1;strokeColor=none;fillColor=none;align=center;verticalAlign=middle;whiteSpace=wrap;rounded=0;fontFamily=Helvetica;fontSize=11;fontColor=default;" vertex="1" parent="6UPrmxei2MnN2lRaHue7-1">
          <mxGeometry x="784" y="120" width="47" height="20" as="geometry" />
        </mxCell>
        <mxCell id="AorRCWd9_sq9tOxVo8o6-1" value="" style="endArrow=none;html=1;rounded=0;labelBackgroundColor=default;fontFamily=Helvetica;fontSize=11;fontColor=default;startSize=3;endSize=3;sourcePerimeterSpacing=0;strokeColor=default;shape=connector;jumpStyle=none;jumpSize=6;" edge="1" parent="6UPrmxei2MnN2lRaHue7-1">
          <mxGeometry width="50" height="50" relative="1" as="geometry">
            <mxPoint x="775.9999999999998" y="138.5" as="sourcePoint" />
            <mxPoint x="839.0000000000002" y="139" as="targetPoint" />
            <Array as="points">
              <mxPoint x="776" y="117.5" />
              <mxPoint x="839" y="117.5" />
            </Array>
          </mxGeometry>
        </mxCell>
        <mxCell id="qbFTy2kc7nP5AjL5jeYK-0" value="" style="verticalLabelPosition=bottom;html=1;verticalAlign=top;align=center;shape=mxgraph.floorplan.windowBow;strokeWidth=1;fontSize=11;direction=west;" vertex="1" parent="6UPrmxei2MnN2lRaHue7-1">
          <mxGeometry x="409.5" y="253" width="21" height="11" as="geometry" />
        </mxCell>
      </root>
    </mxGraphModel>
  </diagram>
  <diagram name="ATS제어" id="--doO0_pMfnhSOSk5F13">
    <mxGraphModel dx="1122" dy="720" grid="1" gridSize="7" guides="1" tooltips="1" connect="1" arrows="1" fold="1" page="1" pageScale="1" pageWidth="850" pageHeight="1100" math="0" shadow="0">
      <root>
        <mxCell id="JfuzvBRn7m50QWWNwMa9-0" />
        <mxCell id="JfuzvBRn7m50QWWNwMa9-1" parent="JfuzvBRn7m50QWWNwMa9-0" />
        <mxCell id="JfuzvBRn7m50QWWNwMa9-4" value="" style="endArrow=none;html=1;rounded=0;" parent="JfuzvBRn7m50QWWNwMa9-1" edge="1">
          <mxGeometry width="50" height="50" relative="1" as="geometry">
            <mxPoint x="27" y="315" as="sourcePoint" />
            <mxPoint x="27" y="63" as="targetPoint" />
          </mxGeometry>
        </mxCell>
        <mxCell id="CDEHw8dmN9mfs13aC5SW-0" value="" style="endArrow=none;html=1;rounded=0;" parent="JfuzvBRn7m50QWWNwMa9-1" edge="1">
          <mxGeometry width="50" height="50" relative="1" as="geometry">
            <mxPoint x="27" y="111" as="sourcePoint" />
            <mxPoint x="839" y="111" as="targetPoint" />
          </mxGeometry>
        </mxCell>
        <mxCell id="CDEHw8dmN9mfs13aC5SW-1" value="BL1" style="text;html=1;strokeColor=none;fillColor=none;align=center;verticalAlign=middle;whiteSpace=wrap;rounded=0;fontFamily=Helvetica;fontSize=11;fontColor=default;" parent="JfuzvBRn7m50QWWNwMa9-1" vertex="1">
          <mxGeometry x="65" y="85" width="40" height="15" as="geometry" />
        </mxCell>
        <mxCell id="CDEHw8dmN9mfs13aC5SW-2" value="FP1" style="text;html=1;strokeColor=none;fillColor=none;align=center;verticalAlign=middle;whiteSpace=wrap;rounded=0;fontFamily=Helvetica;fontSize=11;fontColor=default;" parent="JfuzvBRn7m50QWWNwMa9-1" vertex="1">
          <mxGeometry x="175" y="86" width="40" height="14" as="geometry" />
        </mxCell>
        <mxCell id="CDEHw8dmN9mfs13aC5SW-3" value="ATS-Y" style="text;html=1;strokeColor=none;fillColor=none;align=center;verticalAlign=middle;whiteSpace=wrap;rounded=0;fontFamily=Helvetica;fontSize=11;fontColor=default;" parent="JfuzvBRn7m50QWWNwMa9-1" vertex="1">
          <mxGeometry x="784" y="96" width="47" height="13" as="geometry" />
        </mxCell>
        <mxCell id="CDEHw8dmN9mfs13aC5SW-6" value="EMS" style="text;html=1;strokeColor=none;fillColor=none;align=center;verticalAlign=middle;whiteSpace=wrap;rounded=0;fontFamily=Helvetica;fontSize=11;fontColor=default;" parent="JfuzvBRn7m50QWWNwMa9-1" vertex="1">
          <mxGeometry x="513" y="87" width="37" height="15" as="geometry" />
        </mxCell>
        <mxCell id="CDEHw8dmN9mfs13aC5SW-7" value="" style="endArrow=none;html=1;rounded=0;labelBackgroundColor=default;fontFamily=Helvetica;fontSize=11;fontColor=default;startSize=3;endSize=3;sourcePerimeterSpacing=0;strokeColor=default;shape=connector;jumpStyle=none;jumpSize=6;" parent="JfuzvBRn7m50QWWNwMa9-1" edge="1">
          <mxGeometry width="50" height="50" relative="1" as="geometry">
            <mxPoint x="774.9999999999998" y="109.5" as="sourcePoint" />
            <mxPoint x="838.0000000000002" y="110" as="targetPoint" />
            <Array as="points">
              <mxPoint x="775" y="88.5" />
              <mxPoint x="838" y="88.5" />
            </Array>
          </mxGeometry>
        </mxCell>
        <mxCell id="CDEHw8dmN9mfs13aC5SW-8" value="" style="verticalLabelPosition=bottom;html=1;verticalAlign=top;align=center;shape=mxgraph.floorplan.windowBow;strokeWidth=1;fontSize=11;" parent="JfuzvBRn7m50QWWNwMa9-1" vertex="1">
          <mxGeometry x="72.5" y="100" width="21" height="11" as="geometry" />
        </mxCell>
        <mxCell id="CDEHw8dmN9mfs13aC5SW-9" value="" style="verticalLabelPosition=bottom;html=1;verticalAlign=top;align=center;shape=mxgraph.floorplan.windowBow;strokeWidth=1;fontSize=11;" parent="JfuzvBRn7m50QWWNwMa9-1" vertex="1">
          <mxGeometry x="183.5" y="100" width="21" height="11" as="geometry" />
        </mxCell>
        <mxCell id="CDEHw8dmN9mfs13aC5SW-11" value="" style="verticalLabelPosition=bottom;html=1;verticalAlign=top;align=center;shape=mxgraph.floorplan.windowBow;strokeWidth=1;fontSize=11;direction=west;" parent="JfuzvBRn7m50QWWNwMa9-1" vertex="1">
          <mxGeometry x="520" y="111" width="21" height="11" as="geometry" />
        </mxCell>
        <mxCell id="CDEHw8dmN9mfs13aC5SW-12" value="2" style="text;html=1;strokeColor=none;fillColor=none;align=center;verticalAlign=middle;whiteSpace=wrap;rounded=0;fontFamily=Helvetica;fontSize=11;fontColor=default;" parent="JfuzvBRn7m50QWWNwMa9-1" vertex="1">
          <mxGeometry x="5" y="92" width="18" height="16" as="geometry" />
        </mxCell>
        <mxCell id="CDEHw8dmN9mfs13aC5SW-13" value="FP" style="text;html=1;strokeColor=none;fillColor=none;align=center;verticalAlign=middle;whiteSpace=wrap;rounded=0;fontFamily=Helvetica;fontSize=11;fontColor=default;" parent="JfuzvBRn7m50QWWNwMa9-1" vertex="1">
          <mxGeometry x="232" y="86" width="40" height="14" as="geometry" />
        </mxCell>
        <mxCell id="CDEHw8dmN9mfs13aC5SW-14" value="" style="verticalLabelPosition=bottom;html=1;verticalAlign=top;align=center;shape=mxgraph.floorplan.windowBow;strokeWidth=1;fontSize=11;direction=west;" parent="JfuzvBRn7m50QWWNwMa9-1" vertex="1">
          <mxGeometry x="240.5" y="111" width="21" height="11" as="geometry" />
        </mxCell>
        <mxCell id="CDEHw8dmN9mfs13aC5SW-33" value="" style="endArrow=none;html=1;rounded=0;" parent="JfuzvBRn7m50QWWNwMa9-1" edge="1">
          <mxGeometry width="50" height="50" relative="1" as="geometry">
            <mxPoint x="27" y="196" as="sourcePoint" />
            <mxPoint x="839" y="196" as="targetPoint" />
          </mxGeometry>
        </mxCell>
        <mxCell id="CDEHw8dmN9mfs13aC5SW-34" value="BL1" style="text;html=1;strokeColor=none;fillColor=none;align=center;verticalAlign=middle;whiteSpace=wrap;rounded=0;fontFamily=Helvetica;fontSize=11;fontColor=default;" parent="JfuzvBRn7m50QWWNwMa9-1" vertex="1">
          <mxGeometry x="65" y="170" width="40" height="15" as="geometry" />
        </mxCell>
        <mxCell id="CDEHw8dmN9mfs13aC5SW-35" value="FP1" style="text;html=1;strokeColor=none;fillColor=none;align=center;verticalAlign=middle;whiteSpace=wrap;rounded=0;fontFamily=Helvetica;fontSize=11;fontColor=default;" parent="JfuzvBRn7m50QWWNwMa9-1" vertex="1">
          <mxGeometry x="175" y="171" width="40" height="14" as="geometry" />
        </mxCell>
        <mxCell id="CDEHw8dmN9mfs13aC5SW-36" value="ATS-G" style="text;html=1;strokeColor=none;fillColor=none;align=center;verticalAlign=middle;whiteSpace=wrap;rounded=0;fontFamily=Helvetica;fontSize=11;fontColor=default;" parent="JfuzvBRn7m50QWWNwMa9-1" vertex="1">
          <mxGeometry x="784" y="181" width="47" height="13" as="geometry" />
        </mxCell>
        <mxCell id="CDEHw8dmN9mfs13aC5SW-39" value="EMS" style="text;html=1;strokeColor=none;fillColor=none;align=center;verticalAlign=middle;whiteSpace=wrap;rounded=0;fontFamily=Helvetica;fontSize=11;fontColor=default;" parent="JfuzvBRn7m50QWWNwMa9-1" vertex="1">
          <mxGeometry x="513" y="172" width="37" height="15" as="geometry" />
        </mxCell>
        <mxCell id="CDEHw8dmN9mfs13aC5SW-40" value="" style="endArrow=none;html=1;rounded=0;labelBackgroundColor=default;fontFamily=Helvetica;fontSize=11;fontColor=default;startSize=3;endSize=3;sourcePerimeterSpacing=0;strokeColor=default;shape=connector;jumpStyle=none;jumpSize=6;" parent="JfuzvBRn7m50QWWNwMa9-1" edge="1">
          <mxGeometry width="50" height="50" relative="1" as="geometry">
            <mxPoint x="774.9999999999998" y="194.5" as="sourcePoint" />
            <mxPoint x="838" y="195" as="targetPoint" />
            <Array as="points">
              <mxPoint x="775" y="173.5" />
              <mxPoint x="838" y="173.5" />
            </Array>
          </mxGeometry>
        </mxCell>
        <mxCell id="CDEHw8dmN9mfs13aC5SW-41" value="" style="verticalLabelPosition=bottom;html=1;verticalAlign=top;align=center;shape=mxgraph.floorplan.windowBow;strokeWidth=1;fontSize=11;" parent="JfuzvBRn7m50QWWNwMa9-1" vertex="1">
          <mxGeometry x="72.5" y="185" width="21" height="11" as="geometry" />
        </mxCell>
        <mxCell id="CDEHw8dmN9mfs13aC5SW-42" value="" style="verticalLabelPosition=bottom;html=1;verticalAlign=top;align=center;shape=mxgraph.floorplan.windowBow;strokeWidth=1;fontSize=11;" parent="JfuzvBRn7m50QWWNwMa9-1" vertex="1">
          <mxGeometry x="183.5" y="185" width="21" height="11" as="geometry" />
        </mxCell>
        <mxCell id="CDEHw8dmN9mfs13aC5SW-44" value="" style="verticalLabelPosition=bottom;html=1;verticalAlign=top;align=center;shape=mxgraph.floorplan.windowBow;strokeWidth=1;fontSize=11;direction=west;" parent="JfuzvBRn7m50QWWNwMa9-1" vertex="1">
          <mxGeometry x="520" y="196" width="21" height="11" as="geometry" />
        </mxCell>
        <mxCell id="CDEHw8dmN9mfs13aC5SW-45" value="4" style="text;html=1;strokeColor=none;fillColor=none;align=center;verticalAlign=middle;whiteSpace=wrap;rounded=0;fontFamily=Helvetica;fontSize=11;fontColor=default;" parent="JfuzvBRn7m50QWWNwMa9-1" vertex="1">
          <mxGeometry x="5" y="177" width="18" height="16" as="geometry" />
        </mxCell>
        <mxCell id="CDEHw8dmN9mfs13aC5SW-46" value="FP3" style="text;html=1;strokeColor=none;fillColor=none;align=center;verticalAlign=middle;whiteSpace=wrap;rounded=0;fontFamily=Helvetica;fontSize=11;fontColor=default;" parent="JfuzvBRn7m50QWWNwMa9-1" vertex="1">
          <mxGeometry x="344" y="170" width="40" height="14" as="geometry" />
        </mxCell>
        <mxCell id="CDEHw8dmN9mfs13aC5SW-48" value="FP2" style="text;html=1;strokeColor=none;fillColor=none;align=center;verticalAlign=middle;whiteSpace=wrap;rounded=0;fontFamily=Helvetica;fontSize=11;fontColor=default;" parent="JfuzvBRn7m50QWWNwMa9-1" vertex="1">
          <mxGeometry x="396" y="173" width="47" height="11" as="geometry" />
        </mxCell>
        <mxCell id="CDEHw8dmN9mfs13aC5SW-49" value="" style="verticalLabelPosition=bottom;html=1;verticalAlign=top;align=center;shape=mxgraph.floorplan.windowBow;strokeWidth=1;fontSize=11;" parent="JfuzvBRn7m50QWWNwMa9-1" vertex="1">
          <mxGeometry x="352.5" y="184" width="21" height="11" as="geometry" />
        </mxCell>
        <mxCell id="CDEHw8dmN9mfs13aC5SW-50" value="" style="verticalLabelPosition=bottom;html=1;verticalAlign=top;align=center;shape=mxgraph.floorplan.windowBow;strokeWidth=1;fontSize=11;direction=west;" parent="JfuzvBRn7m50QWWNwMa9-1" vertex="1">
          <mxGeometry x="408.5" y="196" width="21" height="11" as="geometry" />
        </mxCell>
        <mxCell id="CDEHw8dmN9mfs13aC5SW-51" value="" style="endArrow=none;html=1;rounded=0;" parent="JfuzvBRn7m50QWWNwMa9-1" edge="1">
          <mxGeometry width="50" height="50" relative="1" as="geometry">
            <mxPoint x="27" y="279.0000000000001" as="sourcePoint" />
            <mxPoint x="839" y="279.0000000000001" as="targetPoint" />
          </mxGeometry>
        </mxCell>
        <mxCell id="CDEHw8dmN9mfs13aC5SW-52" value="BL1" style="text;html=1;strokeColor=none;fillColor=none;align=center;verticalAlign=middle;whiteSpace=wrap;rounded=0;fontFamily=Helvetica;fontSize=11;fontColor=default;" parent="JfuzvBRn7m50QWWNwMa9-1" vertex="1">
          <mxGeometry x="65" y="253" width="40" height="15" as="geometry" />
        </mxCell>
        <mxCell id="CDEHw8dmN9mfs13aC5SW-53" value="BL2" style="text;html=1;strokeColor=none;fillColor=none;align=center;verticalAlign=middle;whiteSpace=wrap;rounded=0;fontFamily=Helvetica;fontSize=11;fontColor=default;" parent="JfuzvBRn7m50QWWNwMa9-1" vertex="1">
          <mxGeometry x="120" y="254" width="40" height="14" as="geometry" />
        </mxCell>
        <mxCell id="CDEHw8dmN9mfs13aC5SW-54" value="ATS-90" style="text;html=1;strokeColor=none;fillColor=none;align=center;verticalAlign=middle;whiteSpace=wrap;rounded=0;fontFamily=Helvetica;fontSize=11;fontColor=default;" parent="JfuzvBRn7m50QWWNwMa9-1" vertex="1">
          <mxGeometry x="784" y="264" width="47" height="13" as="geometry" />
        </mxCell>
        <mxCell id="CDEHw8dmN9mfs13aC5SW-57" value="EMS" style="text;html=1;strokeColor=none;fillColor=none;align=center;verticalAlign=middle;whiteSpace=wrap;rounded=0;fontFamily=Helvetica;fontSize=11;fontColor=default;" parent="JfuzvBRn7m50QWWNwMa9-1" vertex="1">
          <mxGeometry x="513" y="255" width="37" height="15" as="geometry" />
        </mxCell>
        <mxCell id="CDEHw8dmN9mfs13aC5SW-58" value="" style="endArrow=none;html=1;rounded=0;labelBackgroundColor=default;fontFamily=Helvetica;fontSize=11;fontColor=default;startSize=3;endSize=3;sourcePerimeterSpacing=0;strokeColor=default;shape=connector;jumpStyle=none;jumpSize=6;" parent="JfuzvBRn7m50QWWNwMa9-1" edge="1">
          <mxGeometry width="50" height="50" relative="1" as="geometry">
            <mxPoint x="774.9999999999998" y="277.4999999999999" as="sourcePoint" />
            <mxPoint x="838" y="278" as="targetPoint" />
            <Array as="points">
              <mxPoint x="775" y="256.5" />
              <mxPoint x="838" y="256.5" />
            </Array>
          </mxGeometry>
        </mxCell>
        <mxCell id="CDEHw8dmN9mfs13aC5SW-59" value="" style="verticalLabelPosition=bottom;html=1;verticalAlign=top;align=center;shape=mxgraph.floorplan.windowBow;strokeWidth=1;fontSize=11;" parent="JfuzvBRn7m50QWWNwMa9-1" vertex="1">
          <mxGeometry x="72.5" y="268" width="21" height="11" as="geometry" />
        </mxCell>
        <mxCell id="CDEHw8dmN9mfs13aC5SW-60" value="" style="verticalLabelPosition=bottom;html=1;verticalAlign=top;align=center;shape=mxgraph.floorplan.windowBow;strokeWidth=1;fontSize=11;" parent="JfuzvBRn7m50QWWNwMa9-1" vertex="1">
          <mxGeometry x="128.5" y="268" width="21" height="11" as="geometry" />
        </mxCell>
        <mxCell id="CDEHw8dmN9mfs13aC5SW-62" value="" style="verticalLabelPosition=bottom;html=1;verticalAlign=top;align=center;shape=mxgraph.floorplan.windowBow;strokeWidth=1;fontSize=11;direction=west;" parent="JfuzvBRn7m50QWWNwMa9-1" vertex="1">
          <mxGeometry x="520" y="279" width="21" height="11" as="geometry" />
        </mxCell>
        <mxCell id="CDEHw8dmN9mfs13aC5SW-63" value="5" style="text;html=1;strokeColor=none;fillColor=none;align=center;verticalAlign=middle;whiteSpace=wrap;rounded=0;fontFamily=Helvetica;fontSize=11;fontColor=default;" parent="JfuzvBRn7m50QWWNwMa9-1" vertex="1">
          <mxGeometry x="5" y="260" width="18" height="16" as="geometry" />
        </mxCell>
        <mxCell id="CDEHw8dmN9mfs13aC5SW-64" value="FP3" style="text;html=1;strokeColor=none;fillColor=none;align=center;verticalAlign=middle;whiteSpace=wrap;rounded=0;fontFamily=Helvetica;fontSize=11;fontColor=default;" parent="JfuzvBRn7m50QWWNwMa9-1" vertex="1">
          <mxGeometry x="176" y="253" width="40" height="14" as="geometry" />
        </mxCell>
        <mxCell id="CDEHw8dmN9mfs13aC5SW-65" value="FP2" style="text;html=1;strokeColor=none;fillColor=none;align=center;verticalAlign=middle;whiteSpace=wrap;rounded=0;fontFamily=Helvetica;fontSize=11;fontColor=default;" parent="JfuzvBRn7m50QWWNwMa9-1" vertex="1">
          <mxGeometry x="228" y="256" width="47" height="11" as="geometry" />
        </mxCell>
        <mxCell id="CDEHw8dmN9mfs13aC5SW-66" value="" style="verticalLabelPosition=bottom;html=1;verticalAlign=top;align=center;shape=mxgraph.floorplan.windowBow;strokeWidth=1;fontSize=11;direction=west;" parent="JfuzvBRn7m50QWWNwMa9-1" vertex="1">
          <mxGeometry x="184.5" y="279" width="21" height="11" as="geometry" />
        </mxCell>
        <mxCell id="CDEHw8dmN9mfs13aC5SW-67" value="" style="verticalLabelPosition=bottom;html=1;verticalAlign=top;align=center;shape=mxgraph.floorplan.windowBow;strokeWidth=1;fontSize=11;direction=west;" parent="JfuzvBRn7m50QWWNwMa9-1" vertex="1">
          <mxGeometry x="240.5" y="279" width="21" height="11" as="geometry" />
        </mxCell>
      </root>
    </mxGraphModel>
  </diagram>
  <diagram name="경보제어" id="PNdastdH3CW2tXbOMsol">
    <mxGraphModel dx="1386" dy="785" grid="1" gridSize="7" guides="1" tooltips="1" connect="1" arrows="1" fold="1" page="1" pageScale="1" pageWidth="850" pageHeight="1100" math="0" shadow="0">
      <root>
        <mxCell id="_TH3PhDzyKe7O9FVW-jf-0" />
        <mxCell id="_TH3PhDzyKe7O9FVW-jf-1" parent="_TH3PhDzyKe7O9FVW-jf-0" />
        <mxCell id="_TH3PhDzyKe7O9FVW-jf-2" value="" style="endArrow=none;html=1;rounded=0;" parent="_TH3PhDzyKe7O9FVW-jf-1" edge="1">
          <mxGeometry width="50" height="50" relative="1" as="geometry">
            <mxPoint x="27" y="413" as="sourcePoint" />
            <mxPoint x="27" y="63" as="targetPoint" />
          </mxGeometry>
        </mxCell>
        <mxCell id="_TH3PhDzyKe7O9FVW-jf-3" value="" style="endArrow=none;html=1;rounded=0;" parent="_TH3PhDzyKe7O9FVW-jf-1" edge="1">
          <mxGeometry width="50" height="50" relative="1" as="geometry">
            <mxPoint x="28" y="82" as="sourcePoint" />
            <mxPoint x="840" y="82" as="targetPoint" />
          </mxGeometry>
        </mxCell>
        <mxCell id="_TH3PhDzyKe7O9FVW-jf-4" value="전방.EMS" style="text;html=1;strokeColor=none;fillColor=none;align=center;verticalAlign=middle;whiteSpace=wrap;rounded=0;fontFamily=Helvetica;fontSize=11;fontColor=default;" parent="_TH3PhDzyKe7O9FVW-jf-1" vertex="1">
          <mxGeometry x="59" y="56" width="54" height="15" as="geometry" />
        </mxCell>
        <mxCell id="_TH3PhDzyKe7O9FVW-jf-6" value="EMS" style="text;html=1;strokeColor=none;fillColor=none;align=center;verticalAlign=middle;whiteSpace=wrap;rounded=0;fontFamily=Helvetica;fontSize=11;fontColor=default;" parent="_TH3PhDzyKe7O9FVW-jf-1" vertex="1">
          <mxGeometry x="785" y="67" width="47" height="13" as="geometry" />
        </mxCell>
        <mxCell id="_TH3PhDzyKe7O9FVW-jf-10" value="" style="endArrow=none;html=1;rounded=0;labelBackgroundColor=default;fontFamily=Helvetica;fontSize=11;fontColor=default;startSize=3;endSize=3;sourcePerimeterSpacing=0;strokeColor=default;shape=connector;jumpStyle=none;jumpSize=6;" parent="_TH3PhDzyKe7O9FVW-jf-1" edge="1">
          <mxGeometry width="50" height="50" relative="1" as="geometry">
            <mxPoint x="775.9999999999998" y="80.5" as="sourcePoint" />
            <mxPoint x="839.0000000000002" y="81" as="targetPoint" />
            <Array as="points">
              <mxPoint x="776" y="59.5" />
              <mxPoint x="839" y="59.5" />
            </Array>
          </mxGeometry>
        </mxCell>
        <mxCell id="_TH3PhDzyKe7O9FVW-jf-11" value="" style="verticalLabelPosition=bottom;html=1;verticalAlign=top;align=center;shape=mxgraph.floorplan.windowBow;strokeWidth=1;fontSize=11;" parent="_TH3PhDzyKe7O9FVW-jf-1" vertex="1">
          <mxGeometry x="73.5" y="71" width="21" height="11" as="geometry" />
        </mxCell>
        <mxCell id="_TH3PhDzyKe7O9FVW-jf-15" value="1" style="text;html=1;strokeColor=none;fillColor=none;align=center;verticalAlign=middle;whiteSpace=wrap;rounded=0;fontFamily=Helvetica;fontSize=11;fontColor=default;" parent="_TH3PhDzyKe7O9FVW-jf-1" vertex="1">
          <mxGeometry x="6" y="63" width="18" height="16" as="geometry" />
        </mxCell>
        <mxCell id="_TH3PhDzyKe7O9FVW-jf-16" value="" style="endArrow=none;html=1;rounded=0;" parent="_TH3PhDzyKe7O9FVW-jf-1" edge="1">
          <mxGeometry width="50" height="50" relative="1" as="geometry">
            <mxPoint x="28" y="138" as="sourcePoint" />
            <mxPoint x="840" y="138" as="targetPoint" />
          </mxGeometry>
        </mxCell>
        <mxCell id="_TH3PhDzyKe7O9FVW-jf-17" value="EMS" style="text;html=1;strokeColor=none;fillColor=none;align=center;verticalAlign=middle;whiteSpace=wrap;rounded=0;fontFamily=Helvetica;fontSize=11;fontColor=default;" parent="_TH3PhDzyKe7O9FVW-jf-1" vertex="1">
          <mxGeometry x="66" y="112" width="40" height="15" as="geometry" />
        </mxCell>
        <mxCell id="_TH3PhDzyKe7O9FVW-jf-19" value="oEMS" style="text;html=1;strokeColor=none;fillColor=none;align=center;verticalAlign=middle;whiteSpace=wrap;rounded=0;fontFamily=Helvetica;fontSize=11;fontColor=default;" parent="_TH3PhDzyKe7O9FVW-jf-1" vertex="1">
          <mxGeometry x="785" y="123" width="47" height="13" as="geometry" />
        </mxCell>
        <mxCell id="_TH3PhDzyKe7O9FVW-jf-21" value="" style="endArrow=none;html=1;rounded=0;labelBackgroundColor=default;fontFamily=Helvetica;fontSize=11;fontColor=default;startSize=3;endSize=3;sourcePerimeterSpacing=0;strokeColor=default;shape=connector;jumpStyle=none;jumpSize=6;" parent="_TH3PhDzyKe7O9FVW-jf-1" edge="1">
          <mxGeometry width="50" height="50" relative="1" as="geometry">
            <mxPoint x="775.9999999999998" y="136.5" as="sourcePoint" />
            <mxPoint x="839.0000000000002" y="137" as="targetPoint" />
            <Array as="points">
              <mxPoint x="776" y="115.5" />
              <mxPoint x="839" y="115.5" />
            </Array>
          </mxGeometry>
        </mxCell>
        <mxCell id="_TH3PhDzyKe7O9FVW-jf-22" value="" style="verticalLabelPosition=bottom;html=1;verticalAlign=top;align=center;shape=mxgraph.floorplan.windowBow;strokeWidth=1;fontSize=11;" parent="_TH3PhDzyKe7O9FVW-jf-1" vertex="1">
          <mxGeometry x="73.5" y="127" width="21" height="11" as="geometry" />
        </mxCell>
        <mxCell id="_TH3PhDzyKe7O9FVW-jf-25" value="2" style="text;html=1;strokeColor=none;fillColor=none;align=center;verticalAlign=middle;whiteSpace=wrap;rounded=0;fontFamily=Helvetica;fontSize=11;fontColor=default;" parent="_TH3PhDzyKe7O9FVW-jf-1" vertex="1">
          <mxGeometry x="6" y="119" width="18" height="16" as="geometry" />
        </mxCell>
        <mxCell id="_TH3PhDzyKe7O9FVW-jf-46" value="" style="endArrow=none;html=1;rounded=0;" parent="_TH3PhDzyKe7O9FVW-jf-1" edge="1">
          <mxGeometry width="50" height="50" relative="1" as="geometry">
            <mxPoint x="27" y="307" as="sourcePoint" />
            <mxPoint x="839" y="307" as="targetPoint" />
          </mxGeometry>
        </mxCell>
        <mxCell id="_TH3PhDzyKe7O9FVW-jf-48" value="RLMR-M" style="text;html=1;strokeColor=none;fillColor=none;align=center;verticalAlign=middle;whiteSpace=wrap;rounded=0;fontFamily=Helvetica;fontSize=11;fontColor=default;" parent="_TH3PhDzyKe7O9FVW-jf-1" vertex="1">
          <mxGeometry x="115" y="282" width="49" height="14" as="geometry" />
        </mxCell>
        <mxCell id="_TH3PhDzyKe7O9FVW-jf-49" value="RLMRP" style="text;html=1;strokeColor=none;fillColor=none;align=center;verticalAlign=middle;whiteSpace=wrap;rounded=0;fontFamily=Helvetica;fontSize=11;fontColor=default;" parent="_TH3PhDzyKe7O9FVW-jf-1" vertex="1">
          <mxGeometry x="784" y="292" width="47" height="13" as="geometry" />
        </mxCell>
        <mxCell id="_TH3PhDzyKe7O9FVW-jf-50" value="" style="endArrow=none;html=1;rounded=0;" parent="_TH3PhDzyKe7O9FVW-jf-1" edge="1">
          <mxGeometry width="50" height="50" relative="1" as="geometry">
            <mxPoint x="83" y="308" as="sourcePoint" />
            <mxPoint x="195" y="308" as="targetPoint" />
            <Array as="points">
              <mxPoint x="83" y="350" />
              <mxPoint x="195" y="350" />
            </Array>
          </mxGeometry>
        </mxCell>
        <mxCell id="_TH3PhDzyKe7O9FVW-jf-53" value="" style="endArrow=none;html=1;rounded=0;labelBackgroundColor=default;fontFamily=Helvetica;fontSize=11;fontColor=default;startSize=3;endSize=3;sourcePerimeterSpacing=0;strokeColor=default;shape=connector;jumpStyle=none;jumpSize=6;" parent="_TH3PhDzyKe7O9FVW-jf-1" edge="1">
          <mxGeometry width="50" height="50" relative="1" as="geometry">
            <mxPoint x="774.9999999999998" y="305.5" as="sourcePoint" />
            <mxPoint x="838" y="306" as="targetPoint" />
            <Array as="points">
              <mxPoint x="775" y="284.5" />
              <mxPoint x="838" y="284.5" />
            </Array>
          </mxGeometry>
        </mxCell>
        <mxCell id="_TH3PhDzyKe7O9FVW-jf-55" value="" style="verticalLabelPosition=bottom;html=1;verticalAlign=top;align=center;shape=mxgraph.floorplan.windowBow;strokeWidth=1;fontSize=11;" parent="_TH3PhDzyKe7O9FVW-jf-1" vertex="1">
          <mxGeometry x="127.5" y="296" width="21" height="11" as="geometry" />
        </mxCell>
        <mxCell id="_TH3PhDzyKe7O9FVW-jf-56" value="" style="verticalLabelPosition=bottom;html=1;verticalAlign=top;align=center;shape=mxgraph.floorplan.windowBow;strokeWidth=1;fontSize=11;" parent="_TH3PhDzyKe7O9FVW-jf-1" vertex="1">
          <mxGeometry x="127.5" y="339" width="21" height="11" as="geometry" />
        </mxCell>
        <mxCell id="_TH3PhDzyKe7O9FVW-jf-58" value="5" style="text;html=1;strokeColor=none;fillColor=none;align=center;verticalAlign=middle;whiteSpace=wrap;rounded=0;fontFamily=Helvetica;fontSize=11;fontColor=default;" parent="_TH3PhDzyKe7O9FVW-jf-1" vertex="1">
          <mxGeometry x="5" y="288" width="18" height="16" as="geometry" />
        </mxCell>
        <mxCell id="_TH3PhDzyKe7O9FVW-jf-63" value="" style="endArrow=none;html=1;rounded=0;" parent="_TH3PhDzyKe7O9FVW-jf-1" edge="1">
          <mxGeometry width="50" height="50" relative="1" as="geometry">
            <mxPoint x="27" y="390.0000000000001" as="sourcePoint" />
            <mxPoint x="839" y="390.0000000000001" as="targetPoint" />
          </mxGeometry>
        </mxCell>
        <mxCell id="_TH3PhDzyKe7O9FVW-jf-64" value="FLR" style="text;html=1;strokeColor=none;fillColor=none;align=center;verticalAlign=middle;whiteSpace=wrap;rounded=0;fontFamily=Helvetica;fontSize=11;fontColor=default;" parent="_TH3PhDzyKe7O9FVW-jf-1" vertex="1">
          <mxGeometry x="65" y="364" width="40" height="15" as="geometry" />
        </mxCell>
        <mxCell id="_TH3PhDzyKe7O9FVW-jf-66" value="FLRP" style="text;html=1;strokeColor=none;fillColor=none;align=center;verticalAlign=middle;whiteSpace=wrap;rounded=0;fontFamily=Helvetica;fontSize=11;fontColor=default;" parent="_TH3PhDzyKe7O9FVW-jf-1" vertex="1">
          <mxGeometry x="784" y="375" width="47" height="13" as="geometry" />
        </mxCell>
        <mxCell id="_TH3PhDzyKe7O9FVW-jf-68" value="" style="endArrow=none;html=1;rounded=0;labelBackgroundColor=default;fontFamily=Helvetica;fontSize=11;fontColor=default;startSize=3;endSize=3;sourcePerimeterSpacing=0;strokeColor=default;shape=connector;jumpStyle=none;jumpSize=6;" parent="_TH3PhDzyKe7O9FVW-jf-1" edge="1">
          <mxGeometry width="50" height="50" relative="1" as="geometry">
            <mxPoint x="774.9999999999998" y="388.4999999999999" as="sourcePoint" />
            <mxPoint x="838" y="389" as="targetPoint" />
            <Array as="points">
              <mxPoint x="775" y="367.5" />
              <mxPoint x="838" y="367.5" />
            </Array>
          </mxGeometry>
        </mxCell>
        <mxCell id="_TH3PhDzyKe7O9FVW-jf-69" value="" style="verticalLabelPosition=bottom;html=1;verticalAlign=top;align=center;shape=mxgraph.floorplan.windowBow;strokeWidth=1;fontSize=11;" parent="_TH3PhDzyKe7O9FVW-jf-1" vertex="1">
          <mxGeometry x="72.5" y="379" width="21" height="11" as="geometry" />
        </mxCell>
        <mxCell id="_TH3PhDzyKe7O9FVW-jf-72" value="6" style="text;html=1;strokeColor=none;fillColor=none;align=center;verticalAlign=middle;whiteSpace=wrap;rounded=0;fontFamily=Helvetica;fontSize=11;fontColor=default;" parent="_TH3PhDzyKe7O9FVW-jf-1" vertex="1">
          <mxGeometry x="5" y="371" width="18" height="16" as="geometry" />
        </mxCell>
        <mxCell id="oXexlv_Kz6UxEunDBoIN-0" value="" style="endArrow=none;html=1;rounded=0;" parent="_TH3PhDzyKe7O9FVW-jf-1" edge="1">
          <mxGeometry width="50" height="50" relative="1" as="geometry">
            <mxPoint x="28" y="194" as="sourcePoint" />
            <mxPoint x="840" y="194" as="targetPoint" />
          </mxGeometry>
        </mxCell>
        <mxCell id="oXexlv_Kz6UxEunDBoIN-1" value="CPR" style="text;html=1;strokeColor=none;fillColor=none;align=center;verticalAlign=middle;whiteSpace=wrap;rounded=0;fontFamily=Helvetica;fontSize=11;fontColor=default;" parent="_TH3PhDzyKe7O9FVW-jf-1" vertex="1">
          <mxGeometry x="66" y="168" width="40" height="15" as="geometry" />
        </mxCell>
        <mxCell id="oXexlv_Kz6UxEunDBoIN-2" value="CP" style="text;html=1;strokeColor=none;fillColor=none;align=center;verticalAlign=middle;whiteSpace=wrap;rounded=0;fontFamily=Helvetica;fontSize=11;fontColor=default;" parent="_TH3PhDzyKe7O9FVW-jf-1" vertex="1">
          <mxGeometry x="785" y="179" width="47" height="13" as="geometry" />
        </mxCell>
        <mxCell id="oXexlv_Kz6UxEunDBoIN-3" value="" style="endArrow=none;html=1;rounded=0;labelBackgroundColor=default;fontFamily=Helvetica;fontSize=11;fontColor=default;startSize=3;endSize=3;sourcePerimeterSpacing=0;strokeColor=default;shape=connector;jumpStyle=none;jumpSize=6;" parent="_TH3PhDzyKe7O9FVW-jf-1" edge="1">
          <mxGeometry width="50" height="50" relative="1" as="geometry">
            <mxPoint x="775.9999999999998" y="192.5" as="sourcePoint" />
            <mxPoint x="839.0000000000002" y="193" as="targetPoint" />
            <Array as="points">
              <mxPoint x="776" y="171.5" />
              <mxPoint x="839" y="171.5" />
            </Array>
          </mxGeometry>
        </mxCell>
        <mxCell id="oXexlv_Kz6UxEunDBoIN-4" value="" style="verticalLabelPosition=bottom;html=1;verticalAlign=top;align=center;shape=mxgraph.floorplan.windowBow;strokeWidth=1;fontSize=11;" parent="_TH3PhDzyKe7O9FVW-jf-1" vertex="1">
          <mxGeometry x="73.5" y="183" width="21" height="11" as="geometry" />
        </mxCell>
        <mxCell id="oXexlv_Kz6UxEunDBoIN-5" value="3" style="text;html=1;strokeColor=none;fillColor=none;align=center;verticalAlign=middle;whiteSpace=wrap;rounded=0;fontFamily=Helvetica;fontSize=11;fontColor=default;" parent="_TH3PhDzyKe7O9FVW-jf-1" vertex="1">
          <mxGeometry x="6" y="175" width="18" height="16" as="geometry" />
        </mxCell>
        <mxCell id="oXexlv_Kz6UxEunDBoIN-6" value="/CPR" style="text;html=1;strokeColor=none;fillColor=none;align=center;verticalAlign=middle;whiteSpace=wrap;rounded=0;fontFamily=Helvetica;fontSize=11;fontColor=default;" parent="_TH3PhDzyKe7O9FVW-jf-1" vertex="1">
          <mxGeometry x="123" y="168" width="40" height="15" as="geometry" />
        </mxCell>
        <mxCell id="oXexlv_Kz6UxEunDBoIN-7" value="" style="verticalLabelPosition=bottom;html=1;verticalAlign=top;align=center;shape=mxgraph.floorplan.windowBow;strokeWidth=1;fontSize=11;direction=west;" parent="_TH3PhDzyKe7O9FVW-jf-1" vertex="1">
          <mxGeometry x="130.5" y="193" width="21" height="11" as="geometry" />
        </mxCell>
        <mxCell id="oXexlv_Kz6UxEunDBoIN-8" value="" style="endArrow=none;html=1;rounded=0;" parent="_TH3PhDzyKe7O9FVW-jf-1" edge="1">
          <mxGeometry width="50" height="50" relative="1" as="geometry">
            <mxPoint x="28" y="250" as="sourcePoint" />
            <mxPoint x="840" y="250" as="targetPoint" />
          </mxGeometry>
        </mxCell>
        <mxCell id="oXexlv_Kz6UxEunDBoIN-9" value="ECPR" style="text;html=1;strokeColor=none;fillColor=none;align=center;verticalAlign=middle;whiteSpace=wrap;rounded=0;fontFamily=Helvetica;fontSize=11;fontColor=default;" parent="_TH3PhDzyKe7O9FVW-jf-1" vertex="1">
          <mxGeometry x="66" y="224" width="40" height="15" as="geometry" />
        </mxCell>
        <mxCell id="oXexlv_Kz6UxEunDBoIN-10" value="ECP" style="text;html=1;strokeColor=none;fillColor=none;align=center;verticalAlign=middle;whiteSpace=wrap;rounded=0;fontFamily=Helvetica;fontSize=11;fontColor=default;" parent="_TH3PhDzyKe7O9FVW-jf-1" vertex="1">
          <mxGeometry x="785" y="235" width="47" height="13" as="geometry" />
        </mxCell>
        <mxCell id="oXexlv_Kz6UxEunDBoIN-11" value="" style="endArrow=none;html=1;rounded=0;labelBackgroundColor=default;fontFamily=Helvetica;fontSize=11;fontColor=default;startSize=3;endSize=3;sourcePerimeterSpacing=0;strokeColor=default;shape=connector;jumpStyle=none;jumpSize=6;" parent="_TH3PhDzyKe7O9FVW-jf-1" edge="1">
          <mxGeometry width="50" height="50" relative="1" as="geometry">
            <mxPoint x="775.9999999999998" y="248.5" as="sourcePoint" />
            <mxPoint x="839.0000000000002" y="249" as="targetPoint" />
            <Array as="points">
              <mxPoint x="776" y="227.5" />
              <mxPoint x="839" y="227.5" />
            </Array>
          </mxGeometry>
        </mxCell>
        <mxCell id="oXexlv_Kz6UxEunDBoIN-12" value="" style="verticalLabelPosition=bottom;html=1;verticalAlign=top;align=center;shape=mxgraph.floorplan.windowBow;strokeWidth=1;fontSize=11;" parent="_TH3PhDzyKe7O9FVW-jf-1" vertex="1">
          <mxGeometry x="73.5" y="239" width="21" height="11" as="geometry" />
        </mxCell>
        <mxCell id="oXexlv_Kz6UxEunDBoIN-13" value="4" style="text;html=1;strokeColor=none;fillColor=none;align=center;verticalAlign=middle;whiteSpace=wrap;rounded=0;fontFamily=Helvetica;fontSize=11;fontColor=default;" parent="_TH3PhDzyKe7O9FVW-jf-1" vertex="1">
          <mxGeometry x="6" y="231" width="18" height="16" as="geometry" />
        </mxCell>
        <mxCell id="oXexlv_Kz6UxEunDBoIN-14" value="/ECPR" style="text;html=1;strokeColor=none;fillColor=none;align=center;verticalAlign=middle;whiteSpace=wrap;rounded=0;fontFamily=Helvetica;fontSize=11;fontColor=default;" parent="_TH3PhDzyKe7O9FVW-jf-1" vertex="1">
          <mxGeometry x="123" y="224" width="40" height="15" as="geometry" />
        </mxCell>
        <mxCell id="oXexlv_Kz6UxEunDBoIN-15" value="" style="verticalLabelPosition=bottom;html=1;verticalAlign=top;align=center;shape=mxgraph.floorplan.windowBow;strokeWidth=1;fontSize=11;direction=west;" parent="_TH3PhDzyKe7O9FVW-jf-1" vertex="1">
          <mxGeometry x="130.5" y="249" width="21" height="11" as="geometry" />
        </mxCell>
        <mxCell id="oXexlv_Kz6UxEunDBoIN-16" value="RLMR-A" style="text;html=1;strokeColor=none;fillColor=none;align=center;verticalAlign=middle;whiteSpace=wrap;rounded=0;fontFamily=Helvetica;fontSize=11;fontColor=default;" parent="_TH3PhDzyKe7O9FVW-jf-1" vertex="1">
          <mxGeometry x="115" y="326" width="49" height="14" as="geometry" />
        </mxCell>
      </root>
    </mxGraphModel>
  </diagram>
  <diagram name="통신제어(수신)" id="MNtovgYQoWLEVoCEk8dR">
    <mxGraphModel dx="1386" dy="785" grid="1" gridSize="7" guides="1" tooltips="1" connect="1" arrows="1" fold="1" page="1" pageScale="1" pageWidth="850" pageHeight="1100" math="0" shadow="0">
      <root>
        <mxCell id="27vajrFMXb3Y_b7T-CQL-0" />
        <mxCell id="27vajrFMXb3Y_b7T-CQL-1" parent="27vajrFMXb3Y_b7T-CQL-0" />
        <mxCell id="27vajrFMXb3Y_b7T-CQL-2" value="" style="endArrow=none;html=1;rounded=0;" parent="27vajrFMXb3Y_b7T-CQL-1" edge="1">
          <mxGeometry width="50" height="50" relative="1" as="geometry">
            <mxPoint x="28" y="147" as="sourcePoint" />
            <mxPoint x="27" y="63" as="targetPoint" />
          </mxGeometry>
        </mxCell>
        <mxCell id="27vajrFMXb3Y_b7T-CQL-15" value="" style="endArrow=none;html=1;rounded=0;" parent="27vajrFMXb3Y_b7T-CQL-1" edge="1">
          <mxGeometry width="50" height="50" relative="1" as="geometry">
            <mxPoint x="28" y="83" as="sourcePoint" />
            <mxPoint x="840" y="83" as="targetPoint" />
          </mxGeometry>
        </mxCell>
        <mxCell id="27vajrFMXb3Y_b7T-CQL-16" value="TestSW" style="text;html=1;strokeColor=none;fillColor=none;align=center;verticalAlign=middle;whiteSpace=wrap;rounded=0;fontFamily=Helvetica;fontSize=11;fontColor=default;" parent="27vajrFMXb3Y_b7T-CQL-1" vertex="1">
          <mxGeometry x="121" y="58" width="39" height="14" as="geometry" />
        </mxCell>
        <mxCell id="27vajrFMXb3Y_b7T-CQL-17" value="EH1" style="text;html=1;strokeColor=none;fillColor=none;align=center;verticalAlign=middle;whiteSpace=wrap;rounded=0;fontFamily=Helvetica;fontSize=11;fontColor=default;" parent="27vajrFMXb3Y_b7T-CQL-1" vertex="1">
          <mxGeometry x="785" y="68" width="47" height="13" as="geometry" />
        </mxCell>
        <mxCell id="27vajrFMXb3Y_b7T-CQL-18" value="" style="endArrow=none;html=1;rounded=0;" parent="27vajrFMXb3Y_b7T-CQL-1" edge="1">
          <mxGeometry width="50" height="50" relative="1" as="geometry">
            <mxPoint x="83" y="84" as="sourcePoint" />
            <mxPoint x="252" y="84" as="targetPoint" />
            <Array as="points">
              <mxPoint x="83" y="126" />
              <mxPoint x="252" y="126" />
            </Array>
          </mxGeometry>
        </mxCell>
        <mxCell id="27vajrFMXb3Y_b7T-CQL-19" value="" style="endArrow=none;html=1;rounded=0;labelBackgroundColor=default;fontFamily=Helvetica;fontSize=11;fontColor=default;startSize=3;endSize=3;sourcePerimeterSpacing=0;strokeColor=default;shape=connector;jumpStyle=none;jumpSize=6;" parent="27vajrFMXb3Y_b7T-CQL-1" edge="1">
          <mxGeometry width="50" height="50" relative="1" as="geometry">
            <mxPoint x="775.9999999999998" y="81.5" as="sourcePoint" />
            <mxPoint x="839" y="82" as="targetPoint" />
            <Array as="points">
              <mxPoint x="776" y="60.5" />
              <mxPoint x="839" y="60.5" />
            </Array>
          </mxGeometry>
        </mxCell>
        <mxCell id="27vajrFMXb3Y_b7T-CQL-20" value="" style="verticalLabelPosition=bottom;html=1;verticalAlign=top;align=center;shape=mxgraph.floorplan.windowBow;strokeWidth=1;fontSize=11;direction=west;" parent="27vajrFMXb3Y_b7T-CQL-1" vertex="1">
          <mxGeometry x="129.5" y="83" width="21" height="11" as="geometry" />
        </mxCell>
        <mxCell id="27vajrFMXb3Y_b7T-CQL-21" value="" style="verticalLabelPosition=bottom;html=1;verticalAlign=top;align=center;shape=mxgraph.floorplan.windowBow;strokeWidth=1;fontSize=11;" parent="27vajrFMXb3Y_b7T-CQL-1" vertex="1">
          <mxGeometry x="129.5" y="115" width="21" height="11" as="geometry" />
        </mxCell>
        <mxCell id="27vajrFMXb3Y_b7T-CQL-22" value="1" style="text;html=1;strokeColor=none;fillColor=none;align=center;verticalAlign=middle;whiteSpace=wrap;rounded=0;fontFamily=Helvetica;fontSize=11;fontColor=default;" parent="27vajrFMXb3Y_b7T-CQL-1" vertex="1">
          <mxGeometry x="6" y="64" width="18" height="16" as="geometry" />
        </mxCell>
        <mxCell id="Kw6n3m_MNVhJYYnXW7yf-0" value="전방.Eh1" style="text;html=1;strokeColor=none;fillColor=none;align=center;verticalAlign=middle;whiteSpace=wrap;rounded=0;fontFamily=Helvetica;fontSize=11;fontColor=default;" parent="27vajrFMXb3Y_b7T-CQL-1" vertex="1">
          <mxGeometry x="174" y="57" width="49" height="14" as="geometry" />
        </mxCell>
        <mxCell id="Kw6n3m_MNVhJYYnXW7yf-1" value="" style="verticalLabelPosition=bottom;html=1;verticalAlign=top;align=center;shape=mxgraph.floorplan.windowBow;strokeWidth=1;fontSize=11;" parent="27vajrFMXb3Y_b7T-CQL-1" vertex="1">
          <mxGeometry x="185.5" y="71" width="21" height="11" as="geometry" />
        </mxCell>
        <mxCell id="Kw6n3m_MNVhJYYnXW7yf-2" value="" style="verticalLabelPosition=bottom;html=1;verticalAlign=top;align=center;shape=mxgraph.floorplan.windowBow;strokeWidth=1;fontSize=11;" parent="27vajrFMXb3Y_b7T-CQL-1" vertex="1">
          <mxGeometry x="185.5" y="114" width="21" height="11" as="geometry" />
        </mxCell>
        <mxCell id="Kw6n3m_MNVhJYYnXW7yf-3" value="T-Eh1" style="text;html=1;strokeColor=none;fillColor=none;align=center;verticalAlign=middle;whiteSpace=wrap;rounded=0;fontFamily=Helvetica;fontSize=11;fontColor=default;" parent="27vajrFMXb3Y_b7T-CQL-1" vertex="1">
          <mxGeometry x="174" y="101" width="49" height="14" as="geometry" />
        </mxCell>
        <mxCell id="Kw6n3m_MNVhJYYnXW7yf-4" value="TestSW" style="text;html=1;strokeColor=none;fillColor=none;align=center;verticalAlign=middle;whiteSpace=wrap;rounded=0;fontFamily=Helvetica;fontSize=11;fontColor=default;" parent="27vajrFMXb3Y_b7T-CQL-1" vertex="1">
          <mxGeometry x="120" y="101" width="39" height="14" as="geometry" />
        </mxCell>
      </root>
    </mxGraphModel>
  </diagram>
  <diagram name="통신제어(송신)_all" id="0WbyUqJabxPTWOd3SMy9">
    <mxGraphModel dx="1122" dy="720" grid="1" gridSize="7" guides="1" tooltips="1" connect="1" arrows="1" fold="1" page="1" pageScale="1" pageWidth="850" pageHeight="1100" math="0" shadow="0">
      <root>
        <mxCell id="WULDpAhUbFoE8WIX5EqT-0" />
        <mxCell id="WULDpAhUbFoE8WIX5EqT-1" parent="WULDpAhUbFoE8WIX5EqT-0" />
        <mxCell id="WULDpAhUbFoE8WIX5EqT-2" value="" style="endArrow=none;html=1;rounded=0;" parent="WULDpAhUbFoE8WIX5EqT-1" edge="1">
          <mxGeometry width="50" height="50" relative="1" as="geometry">
            <mxPoint x="27" y="588" as="sourcePoint" />
            <mxPoint x="27" y="63" as="targetPoint" />
          </mxGeometry>
        </mxCell>
        <mxCell id="WULDpAhUbFoE8WIX5EqT-3" value="" style="endArrow=none;html=1;rounded=0;" parent="WULDpAhUbFoE8WIX5EqT-1" edge="1">
          <mxGeometry width="50" height="50" relative="1" as="geometry">
            <mxPoint x="28" y="82" as="sourcePoint" />
            <mxPoint x="840" y="82" as="targetPoint" />
          </mxGeometry>
        </mxCell>
        <mxCell id="WULDpAhUbFoE8WIX5EqT-4" value="전방.DIR" style="text;html=1;strokeColor=none;fillColor=none;align=center;verticalAlign=middle;whiteSpace=wrap;rounded=0;fontFamily=Helvetica;fontSize=11;fontColor=default;" parent="WULDpAhUbFoE8WIX5EqT-1" vertex="1">
          <mxGeometry x="59" y="56" width="54" height="15" as="geometry" />
        </mxCell>
        <mxCell id="WULDpAhUbFoE8WIX5EqT-5" value="DIR" style="text;html=1;strokeColor=none;fillColor=none;align=center;verticalAlign=middle;whiteSpace=wrap;rounded=0;fontFamily=Helvetica;fontSize=11;fontColor=default;" parent="WULDpAhUbFoE8WIX5EqT-1" vertex="1">
          <mxGeometry x="785" y="67" width="47" height="13" as="geometry" />
        </mxCell>
        <mxCell id="WULDpAhUbFoE8WIX5EqT-6" value="" style="endArrow=none;html=1;rounded=0;labelBackgroundColor=default;fontFamily=Helvetica;fontSize=11;fontColor=default;startSize=3;endSize=3;sourcePerimeterSpacing=0;strokeColor=default;shape=connector;jumpStyle=none;jumpSize=6;" parent="WULDpAhUbFoE8WIX5EqT-1" edge="1">
          <mxGeometry width="50" height="50" relative="1" as="geometry">
            <mxPoint x="775.9999999999998" y="80.5" as="sourcePoint" />
            <mxPoint x="839.0000000000002" y="81" as="targetPoint" />
            <Array as="points">
              <mxPoint x="776" y="59.5" />
              <mxPoint x="839" y="59.5" />
            </Array>
          </mxGeometry>
        </mxCell>
        <mxCell id="WULDpAhUbFoE8WIX5EqT-7" value="" style="verticalLabelPosition=bottom;html=1;verticalAlign=top;align=center;shape=mxgraph.floorplan.windowBow;strokeWidth=1;fontSize=11;" parent="WULDpAhUbFoE8WIX5EqT-1" vertex="1">
          <mxGeometry x="73.5" y="71" width="21" height="11" as="geometry" />
        </mxCell>
        <mxCell id="WULDpAhUbFoE8WIX5EqT-8" value="1" style="text;html=1;strokeColor=none;fillColor=none;align=center;verticalAlign=middle;whiteSpace=wrap;rounded=0;fontFamily=Helvetica;fontSize=11;fontColor=default;" parent="WULDpAhUbFoE8WIX5EqT-1" vertex="1">
          <mxGeometry x="6" y="63" width="18" height="16" as="geometry" />
        </mxCell>
        <mxCell id="WULDpAhUbFoE8WIX5EqT-9" value="" style="endArrow=none;html=1;rounded=0;" parent="WULDpAhUbFoE8WIX5EqT-1" edge="1">
          <mxGeometry width="50" height="50" relative="1" as="geometry">
            <mxPoint x="28" y="138" as="sourcePoint" />
            <mxPoint x="840" y="138" as="targetPoint" />
          </mxGeometry>
        </mxCell>
        <mxCell id="WULDpAhUbFoE8WIX5EqT-10" value="TestSW" style="text;html=1;strokeColor=none;fillColor=none;align=center;verticalAlign=middle;whiteSpace=wrap;rounded=0;fontFamily=Helvetica;fontSize=11;fontColor=default;" parent="WULDpAhUbFoE8WIX5EqT-1" vertex="1">
          <mxGeometry x="66" y="112" width="40" height="15" as="geometry" />
        </mxCell>
        <mxCell id="WULDpAhUbFoE8WIX5EqT-11" value="T-SW" style="text;html=1;strokeColor=none;fillColor=none;align=center;verticalAlign=middle;whiteSpace=wrap;rounded=0;fontFamily=Helvetica;fontSize=11;fontColor=default;" parent="WULDpAhUbFoE8WIX5EqT-1" vertex="1">
          <mxGeometry x="785" y="123" width="47" height="13" as="geometry" />
        </mxCell>
        <mxCell id="WULDpAhUbFoE8WIX5EqT-12" value="" style="endArrow=none;html=1;rounded=0;labelBackgroundColor=default;fontFamily=Helvetica;fontSize=11;fontColor=default;startSize=3;endSize=3;sourcePerimeterSpacing=0;strokeColor=default;shape=connector;jumpStyle=none;jumpSize=6;" parent="WULDpAhUbFoE8WIX5EqT-1" edge="1">
          <mxGeometry width="50" height="50" relative="1" as="geometry">
            <mxPoint x="775.9999999999998" y="136.5" as="sourcePoint" />
            <mxPoint x="839.0000000000002" y="137" as="targetPoint" />
            <Array as="points">
              <mxPoint x="776" y="115.5" />
              <mxPoint x="839" y="115.5" />
            </Array>
          </mxGeometry>
        </mxCell>
        <mxCell id="WULDpAhUbFoE8WIX5EqT-13" value="" style="verticalLabelPosition=bottom;html=1;verticalAlign=top;align=center;shape=mxgraph.floorplan.windowBow;strokeWidth=1;fontSize=11;" parent="WULDpAhUbFoE8WIX5EqT-1" vertex="1">
          <mxGeometry x="73.5" y="127" width="21" height="11" as="geometry" />
        </mxCell>
        <mxCell id="WULDpAhUbFoE8WIX5EqT-14" value="2" style="text;html=1;strokeColor=none;fillColor=none;align=center;verticalAlign=middle;whiteSpace=wrap;rounded=0;fontFamily=Helvetica;fontSize=11;fontColor=default;" parent="WULDpAhUbFoE8WIX5EqT-1" vertex="1">
          <mxGeometry x="6" y="119" width="18" height="16" as="geometry" />
        </mxCell>
        <mxCell id="WULDpAhUbFoE8WIX5EqT-15" value="" style="endArrow=none;html=1;rounded=0;" parent="WULDpAhUbFoE8WIX5EqT-1" edge="1">
          <mxGeometry width="50" height="50" relative="1" as="geometry">
            <mxPoint x="27" y="194" as="sourcePoint" />
            <mxPoint x="839" y="194" as="targetPoint" />
          </mxGeometry>
        </mxCell>
        <mxCell id="WULDpAhUbFoE8WIX5EqT-16" value="GEU" style="text;html=1;strokeColor=none;fillColor=none;align=center;verticalAlign=middle;whiteSpace=wrap;rounded=0;fontFamily=Helvetica;fontSize=11;fontColor=default;" parent="WULDpAhUbFoE8WIX5EqT-1" vertex="1">
          <mxGeometry x="115" y="169" width="49" height="14" as="geometry" />
        </mxCell>
        <mxCell id="WULDpAhUbFoE8WIX5EqT-17" value="Se1" style="text;html=1;strokeColor=none;fillColor=none;align=center;verticalAlign=middle;whiteSpace=wrap;rounded=0;fontFamily=Helvetica;fontSize=11;fontColor=default;" parent="WULDpAhUbFoE8WIX5EqT-1" vertex="1">
          <mxGeometry x="784" y="179" width="47" height="13" as="geometry" />
        </mxCell>
        <mxCell id="WULDpAhUbFoE8WIX5EqT-18" value="" style="endArrow=none;html=1;rounded=0;" parent="WULDpAhUbFoE8WIX5EqT-1" edge="1">
          <mxGeometry width="50" height="50" relative="1" as="geometry">
            <mxPoint x="83" y="195" as="sourcePoint" />
            <mxPoint x="252" y="195" as="targetPoint" />
            <Array as="points">
              <mxPoint x="83" y="237" />
              <mxPoint x="252" y="237" />
            </Array>
          </mxGeometry>
        </mxCell>
        <mxCell id="WULDpAhUbFoE8WIX5EqT-19" value="" style="endArrow=none;html=1;rounded=0;labelBackgroundColor=default;fontFamily=Helvetica;fontSize=11;fontColor=default;startSize=3;endSize=3;sourcePerimeterSpacing=0;strokeColor=default;shape=connector;jumpStyle=none;jumpSize=6;" parent="WULDpAhUbFoE8WIX5EqT-1" edge="1">
          <mxGeometry width="50" height="50" relative="1" as="geometry">
            <mxPoint x="774.9999999999998" y="192.5" as="sourcePoint" />
            <mxPoint x="838" y="193" as="targetPoint" />
            <Array as="points">
              <mxPoint x="775" y="171.5" />
              <mxPoint x="838" y="171.5" />
            </Array>
          </mxGeometry>
        </mxCell>
        <mxCell id="WULDpAhUbFoE8WIX5EqT-20" value="" style="verticalLabelPosition=bottom;html=1;verticalAlign=top;align=center;shape=mxgraph.floorplan.windowBow;strokeWidth=1;fontSize=11;" parent="WULDpAhUbFoE8WIX5EqT-1" vertex="1">
          <mxGeometry x="127.5" y="183" width="21" height="11" as="geometry" />
        </mxCell>
        <mxCell id="WULDpAhUbFoE8WIX5EqT-21" value="" style="verticalLabelPosition=bottom;html=1;verticalAlign=top;align=center;shape=mxgraph.floorplan.windowBow;strokeWidth=1;fontSize=11;" parent="WULDpAhUbFoE8WIX5EqT-1" vertex="1">
          <mxGeometry x="127.5" y="226" width="21" height="11" as="geometry" />
        </mxCell>
        <mxCell id="WULDpAhUbFoE8WIX5EqT-22" value="3" style="text;html=1;strokeColor=none;fillColor=none;align=center;verticalAlign=middle;whiteSpace=wrap;rounded=0;fontFamily=Helvetica;fontSize=11;fontColor=default;" parent="WULDpAhUbFoE8WIX5EqT-1" vertex="1">
          <mxGeometry x="5" y="175" width="18" height="16" as="geometry" />
        </mxCell>
        <mxCell id="WULDpAhUbFoE8WIX5EqT-45" value="GNU" style="text;html=1;strokeColor=none;fillColor=none;align=center;verticalAlign=middle;whiteSpace=wrap;rounded=0;fontFamily=Helvetica;fontSize=11;fontColor=default;" parent="WULDpAhUbFoE8WIX5EqT-1" vertex="1">
          <mxGeometry x="115" y="213" width="49" height="14" as="geometry" />
        </mxCell>
        <mxCell id="w-vlI6BWpfgUv6OrkUYH-17" value="" style="endArrow=none;html=1;rounded=0;" parent="WULDpAhUbFoE8WIX5EqT-1" edge="1">
          <mxGeometry width="50" height="50" relative="1" as="geometry">
            <mxPoint x="29" y="308" as="sourcePoint" />
            <mxPoint x="841" y="308" as="targetPoint" />
          </mxGeometry>
        </mxCell>
        <mxCell id="w-vlI6BWpfgUv6OrkUYH-22" value="4" style="text;html=1;strokeColor=none;fillColor=none;align=center;verticalAlign=middle;whiteSpace=wrap;rounded=0;fontFamily=Helvetica;fontSize=11;fontColor=default;" parent="WULDpAhUbFoE8WIX5EqT-1" vertex="1">
          <mxGeometry x="7" y="289" width="18" height="16" as="geometry" />
        </mxCell>
        <mxCell id="w-vlI6BWpfgUv6OrkUYH-32" value="FP3" style="text;html=1;strokeColor=none;fillColor=none;align=center;verticalAlign=middle;whiteSpace=wrap;rounded=0;fontFamily=Helvetica;fontSize=11;fontColor=default;" parent="WULDpAhUbFoE8WIX5EqT-1" vertex="1">
          <mxGeometry x="289" y="283" width="40" height="15" as="geometry" />
        </mxCell>
        <mxCell id="w-vlI6BWpfgUv6OrkUYH-33" value="" style="verticalLabelPosition=bottom;html=1;verticalAlign=top;align=center;shape=mxgraph.floorplan.windowBow;strokeWidth=1;fontSize=11;direction=west;" parent="WULDpAhUbFoE8WIX5EqT-1" vertex="1">
          <mxGeometry x="297.5" y="309" width="21" height="11" as="geometry" />
        </mxCell>
        <mxCell id="w-vlI6BWpfgUv6OrkUYH-34" value="YLMR-M" style="text;html=1;strokeColor=none;fillColor=none;align=center;verticalAlign=middle;whiteSpace=wrap;rounded=0;fontFamily=Helvetica;fontSize=11;fontColor=default;" parent="WULDpAhUbFoE8WIX5EqT-1" vertex="1">
          <mxGeometry x="338" y="283" width="54" height="15" as="geometry" />
        </mxCell>
        <mxCell id="w-vlI6BWpfgUv6OrkUYH-35" value="" style="verticalLabelPosition=bottom;html=1;verticalAlign=top;align=center;shape=mxgraph.floorplan.windowBow;strokeWidth=1;fontSize=11;" parent="WULDpAhUbFoE8WIX5EqT-1" vertex="1">
          <mxGeometry x="353.5" y="296" width="21" height="11" as="geometry" />
        </mxCell>
        <mxCell id="w-vlI6BWpfgUv6OrkUYH-36" value="tRLMRA.DL" style="text;html=1;strokeColor=none;fillColor=none;align=center;verticalAlign=middle;whiteSpace=wrap;rounded=0;fontFamily=Helvetica;fontSize=11;fontColor=default;" parent="WULDpAhUbFoE8WIX5EqT-1" vertex="1">
          <mxGeometry x="405" y="284" width="40" height="15" as="geometry" />
        </mxCell>
        <mxCell id="w-vlI6BWpfgUv6OrkUYH-37" value="" style="verticalLabelPosition=bottom;html=1;verticalAlign=top;align=center;shape=mxgraph.floorplan.windowBow;strokeWidth=1;fontSize=11;direction=west;" parent="WULDpAhUbFoE8WIX5EqT-1" vertex="1">
          <mxGeometry x="409.5" y="308" width="21" height="11" as="geometry" />
        </mxCell>
        <mxCell id="w-vlI6BWpfgUv6OrkUYH-38" value="FP1" style="text;html=1;strokeColor=none;fillColor=none;align=center;verticalAlign=middle;whiteSpace=wrap;rounded=0;fontFamily=Helvetica;fontSize=11;fontColor=default;" parent="WULDpAhUbFoE8WIX5EqT-1" vertex="1">
          <mxGeometry x="457" y="283" width="40" height="15" as="geometry" />
        </mxCell>
        <mxCell id="w-vlI6BWpfgUv6OrkUYH-39" value="" style="verticalLabelPosition=bottom;html=1;verticalAlign=top;align=center;shape=mxgraph.floorplan.windowBow;strokeWidth=1;fontSize=11;" parent="WULDpAhUbFoE8WIX5EqT-1" vertex="1">
          <mxGeometry x="465.5" y="297" width="21" height="11" as="geometry" />
        </mxCell>
        <mxCell id="w-vlI6BWpfgUv6OrkUYH-40" value="" style="endArrow=none;html=1;rounded=0;" parent="WULDpAhUbFoE8WIX5EqT-1" edge="1">
          <mxGeometry width="50" height="50" relative="1" as="geometry">
            <mxPoint x="84" y="309" as="sourcePoint" />
            <mxPoint x="588" y="309" as="targetPoint" />
            <Array as="points">
              <mxPoint x="84" y="364" />
              <mxPoint x="588" y="364" />
            </Array>
          </mxGeometry>
        </mxCell>
        <mxCell id="w-vlI6BWpfgUv6OrkUYH-41" value="FP3" style="text;html=1;strokeColor=none;fillColor=none;align=center;verticalAlign=middle;whiteSpace=wrap;rounded=0;fontFamily=Helvetica;fontSize=11;fontColor=default;" parent="WULDpAhUbFoE8WIX5EqT-1" vertex="1">
          <mxGeometry x="177" y="339" width="40" height="15" as="geometry" />
        </mxCell>
        <mxCell id="w-vlI6BWpfgUv6OrkUYH-42" value="" style="verticalLabelPosition=bottom;html=1;verticalAlign=top;align=center;shape=mxgraph.floorplan.windowBow;strokeWidth=1;fontSize=11;" parent="WULDpAhUbFoE8WIX5EqT-1" vertex="1">
          <mxGeometry x="185.5" y="353" width="21" height="11" as="geometry" />
        </mxCell>
        <mxCell id="w-vlI6BWpfgUv6OrkUYH-43" value="GLMR-M" style="text;html=1;strokeColor=none;fillColor=none;align=center;verticalAlign=middle;whiteSpace=wrap;rounded=0;fontFamily=Helvetica;fontSize=11;fontColor=default;" parent="WULDpAhUbFoE8WIX5EqT-1" vertex="1">
          <mxGeometry x="338" y="341" width="54" height="15" as="geometry" />
        </mxCell>
        <mxCell id="w-vlI6BWpfgUv6OrkUYH-44" value="" style="verticalLabelPosition=bottom;html=1;verticalAlign=top;align=center;shape=mxgraph.floorplan.windowBow;strokeWidth=1;fontSize=11;" parent="WULDpAhUbFoE8WIX5EqT-1" vertex="1">
          <mxGeometry x="353.5" y="354" width="21" height="11" as="geometry" />
        </mxCell>
        <mxCell id="w-vlI6BWpfgUv6OrkUYH-45" value="tRLMRA.DL" style="text;html=1;strokeColor=none;fillColor=none;align=center;verticalAlign=middle;whiteSpace=wrap;rounded=0;fontFamily=Helvetica;fontSize=11;fontColor=default;" parent="WULDpAhUbFoE8WIX5EqT-1" vertex="1">
          <mxGeometry x="405" y="342" width="40" height="15" as="geometry" />
        </mxCell>
        <mxCell id="w-vlI6BWpfgUv6OrkUYH-46" value="" style="verticalLabelPosition=bottom;html=1;verticalAlign=top;align=center;shape=mxgraph.floorplan.windowBow;strokeWidth=1;fontSize=11;direction=west;" parent="WULDpAhUbFoE8WIX5EqT-1" vertex="1">
          <mxGeometry x="409.5" y="366" width="21" height="11" as="geometry" />
        </mxCell>
        <mxCell id="w-vlI6BWpfgUv6OrkUYH-47" value="FP1" style="text;html=1;strokeColor=none;fillColor=none;align=center;verticalAlign=middle;whiteSpace=wrap;rounded=0;fontFamily=Helvetica;fontSize=11;fontColor=default;" parent="WULDpAhUbFoE8WIX5EqT-1" vertex="1">
          <mxGeometry x="457" y="339" width="40" height="15" as="geometry" />
        </mxCell>
        <mxCell id="w-vlI6BWpfgUv6OrkUYH-48" value="" style="verticalLabelPosition=bottom;html=1;verticalAlign=top;align=center;shape=mxgraph.floorplan.windowBow;strokeWidth=1;fontSize=11;" parent="WULDpAhUbFoE8WIX5EqT-1" vertex="1">
          <mxGeometry x="465.5" y="353" width="21" height="11" as="geometry" />
        </mxCell>
        <mxCell id="w-vlI6BWpfgUv6OrkUYH-54" value="" style="endArrow=none;html=1;rounded=0;" parent="WULDpAhUbFoE8WIX5EqT-1" edge="1">
          <mxGeometry width="50" height="50" relative="1" as="geometry">
            <mxPoint x="84" y="365" as="sourcePoint" />
            <mxPoint x="588" y="365" as="targetPoint" />
            <Array as="points">
              <mxPoint x="84" y="420" />
              <mxPoint x="588" y="420" />
            </Array>
          </mxGeometry>
        </mxCell>
        <mxCell id="w-vlI6BWpfgUv6OrkUYH-55" value="RLMR-M" style="text;html=1;strokeColor=none;fillColor=none;align=center;verticalAlign=middle;whiteSpace=wrap;rounded=0;fontFamily=Helvetica;fontSize=11;fontColor=default;" parent="WULDpAhUbFoE8WIX5EqT-1" vertex="1">
          <mxGeometry x="174" y="394" width="47" height="15" as="geometry" />
        </mxCell>
        <mxCell id="w-vlI6BWpfgUv6OrkUYH-56" value="" style="verticalLabelPosition=bottom;html=1;verticalAlign=top;align=center;shape=mxgraph.floorplan.windowBow;strokeWidth=1;fontSize=11;" parent="WULDpAhUbFoE8WIX5EqT-1" vertex="1">
          <mxGeometry x="185.5" y="408" width="21" height="11" as="geometry" />
        </mxCell>
        <mxCell id="w-vlI6BWpfgUv6OrkUYH-57" value="" style="endArrow=none;html=1;rounded=0;" parent="WULDpAhUbFoE8WIX5EqT-1" edge="1">
          <mxGeometry width="50" height="50" relative="1" as="geometry">
            <mxPoint x="29" y="477" as="sourcePoint" />
            <mxPoint x="841" y="477" as="targetPoint" />
          </mxGeometry>
        </mxCell>
        <mxCell id="w-vlI6BWpfgUv6OrkUYH-58" value="FLR.AR" style="text;html=1;strokeColor=none;fillColor=none;align=center;verticalAlign=middle;whiteSpace=wrap;rounded=0;fontFamily=Helvetica;fontSize=11;fontColor=default;" parent="WULDpAhUbFoE8WIX5EqT-1" vertex="1">
          <mxGeometry x="66" y="452" width="40" height="15" as="geometry" />
        </mxCell>
        <mxCell id="w-vlI6BWpfgUv6OrkUYH-59" value="FLR" style="text;html=1;strokeColor=none;fillColor=none;align=center;verticalAlign=middle;whiteSpace=wrap;rounded=0;fontFamily=Helvetica;fontSize=11;fontColor=default;" parent="WULDpAhUbFoE8WIX5EqT-1" vertex="1">
          <mxGeometry x="786" y="462" width="47" height="13" as="geometry" />
        </mxCell>
        <mxCell id="w-vlI6BWpfgUv6OrkUYH-60" value="" style="endArrow=none;html=1;rounded=0;labelBackgroundColor=default;fontFamily=Helvetica;fontSize=11;fontColor=default;startSize=3;endSize=3;sourcePerimeterSpacing=0;strokeColor=default;shape=connector;jumpStyle=none;jumpSize=6;" parent="WULDpAhUbFoE8WIX5EqT-1" edge="1">
          <mxGeometry width="50" height="50" relative="1" as="geometry">
            <mxPoint x="776.9999999999998" y="475.5" as="sourcePoint" />
            <mxPoint x="840.0000000000002" y="476" as="targetPoint" />
            <Array as="points">
              <mxPoint x="777" y="454.5" />
              <mxPoint x="840" y="454.5" />
            </Array>
          </mxGeometry>
        </mxCell>
        <mxCell id="w-vlI6BWpfgUv6OrkUYH-61" value="" style="verticalLabelPosition=bottom;html=1;verticalAlign=top;align=center;shape=mxgraph.floorplan.windowBow;strokeWidth=1;fontSize=11;" parent="WULDpAhUbFoE8WIX5EqT-1" vertex="1">
          <mxGeometry x="74.5" y="466" width="21" height="11" as="geometry" />
        </mxCell>
        <mxCell id="w-vlI6BWpfgUv6OrkUYH-62" value="5" style="text;html=1;strokeColor=none;fillColor=none;align=center;verticalAlign=middle;whiteSpace=wrap;rounded=0;fontFamily=Helvetica;fontSize=11;fontColor=default;" parent="WULDpAhUbFoE8WIX5EqT-1" vertex="1">
          <mxGeometry x="7" y="458" width="18" height="16" as="geometry" />
        </mxCell>
        <mxCell id="w-vlI6BWpfgUv6OrkUYH-63" value="M600V" style="text;html=1;strokeColor=none;fillColor=none;align=center;verticalAlign=middle;whiteSpace=wrap;rounded=0;fontFamily=Helvetica;fontSize=11;fontColor=default;" parent="WULDpAhUbFoE8WIX5EqT-1" vertex="1">
          <mxGeometry x="177" y="452" width="40" height="15" as="geometry" />
        </mxCell>
        <mxCell id="w-vlI6BWpfgUv6OrkUYH-64" value="" style="verticalLabelPosition=bottom;html=1;verticalAlign=top;align=center;shape=mxgraph.floorplan.windowBow;strokeWidth=1;fontSize=11;direction=east;" parent="WULDpAhUbFoE8WIX5EqT-1" vertex="1">
          <mxGeometry x="185.5" y="466" width="21" height="11" as="geometry" />
        </mxCell>
        <mxCell id="w-vlI6BWpfgUv6OrkUYH-65" value="/FUSE" style="text;html=1;strokeColor=none;fillColor=none;align=center;verticalAlign=middle;whiteSpace=wrap;rounded=0;fontFamily=Helvetica;fontSize=11;fontColor=default;" parent="WULDpAhUbFoE8WIX5EqT-1" vertex="1">
          <mxGeometry x="232" y="452" width="40" height="15" as="geometry" />
        </mxCell>
        <mxCell id="w-vlI6BWpfgUv6OrkUYH-66" value="" style="verticalLabelPosition=bottom;html=1;verticalAlign=top;align=center;shape=mxgraph.floorplan.windowBow;strokeWidth=1;fontSize=11;direction=west;" parent="WULDpAhUbFoE8WIX5EqT-1" vertex="1">
          <mxGeometry x="239.5" y="477" width="21" height="11" as="geometry" />
        </mxCell>
        <mxCell id="w-vlI6BWpfgUv6OrkUYH-67" value="CP" style="text;html=1;strokeColor=none;fillColor=none;align=center;verticalAlign=middle;whiteSpace=wrap;rounded=0;fontFamily=Helvetica;fontSize=11;fontColor=default;" parent="WULDpAhUbFoE8WIX5EqT-1" vertex="1">
          <mxGeometry x="346" y="452" width="40" height="15" as="geometry" />
        </mxCell>
        <mxCell id="w-vlI6BWpfgUv6OrkUYH-68" value="" style="verticalLabelPosition=bottom;html=1;verticalAlign=top;align=center;shape=mxgraph.floorplan.windowBow;strokeWidth=1;fontSize=11;direction=west;" parent="WULDpAhUbFoE8WIX5EqT-1" vertex="1">
          <mxGeometry x="353.5" y="477" width="21" height="11" as="geometry" />
        </mxCell>
        <mxCell id="w-vlI6BWpfgUv6OrkUYH-69" value="" style="endArrow=none;html=1;rounded=0;" parent="WULDpAhUbFoE8WIX5EqT-1" edge="1">
          <mxGeometry width="50" height="50" relative="1" as="geometry">
            <mxPoint x="307" y="478" as="sourcePoint" />
            <mxPoint x="420" y="478" as="targetPoint" />
            <Array as="points">
              <mxPoint x="307" y="520" />
              <mxPoint x="420" y="520" />
            </Array>
          </mxGeometry>
        </mxCell>
        <mxCell id="w-vlI6BWpfgUv6OrkUYH-70" value="ECP" style="text;html=1;strokeColor=none;fillColor=none;align=center;verticalAlign=middle;whiteSpace=wrap;rounded=0;fontFamily=Helvetica;fontSize=11;fontColor=default;" parent="WULDpAhUbFoE8WIX5EqT-1" vertex="1">
          <mxGeometry x="345" y="497" width="40" height="15" as="geometry" />
        </mxCell>
        <mxCell id="w-vlI6BWpfgUv6OrkUYH-71" value="" style="verticalLabelPosition=bottom;html=1;verticalAlign=top;align=center;shape=mxgraph.floorplan.windowBow;strokeWidth=1;fontSize=11;direction=east;" parent="WULDpAhUbFoE8WIX5EqT-1" vertex="1">
          <mxGeometry x="353.5" y="509" width="21" height="11" as="geometry" />
        </mxCell>
        <mxCell id="w-vlI6BWpfgUv6OrkUYH-72" value="" style="endArrow=none;html=1;rounded=0;" parent="WULDpAhUbFoE8WIX5EqT-1" edge="1">
          <mxGeometry width="50" height="50" relative="1" as="geometry">
            <mxPoint x="28" y="561" as="sourcePoint" />
            <mxPoint x="840" y="561" as="targetPoint" />
          </mxGeometry>
        </mxCell>
        <mxCell id="w-vlI6BWpfgUv6OrkUYH-73" value="AF-TR" style="text;html=1;strokeColor=none;fillColor=none;align=center;verticalAlign=middle;whiteSpace=wrap;rounded=0;fontFamily=Helvetica;fontSize=11;fontColor=default;" parent="WULDpAhUbFoE8WIX5EqT-1" vertex="1">
          <mxGeometry x="65" y="536" width="40" height="15" as="geometry" />
        </mxCell>
        <mxCell id="w-vlI6BWpfgUv6OrkUYH-74" value="TR" style="text;html=1;strokeColor=none;fillColor=none;align=center;verticalAlign=middle;whiteSpace=wrap;rounded=0;fontFamily=Helvetica;fontSize=11;fontColor=default;" parent="WULDpAhUbFoE8WIX5EqT-1" vertex="1">
          <mxGeometry x="785" y="546" width="47" height="13" as="geometry" />
        </mxCell>
        <mxCell id="w-vlI6BWpfgUv6OrkUYH-75" value="" style="endArrow=none;html=1;rounded=0;labelBackgroundColor=default;fontFamily=Helvetica;fontSize=11;fontColor=default;startSize=3;endSize=3;sourcePerimeterSpacing=0;strokeColor=default;shape=connector;jumpStyle=none;jumpSize=6;" parent="WULDpAhUbFoE8WIX5EqT-1" edge="1">
          <mxGeometry width="50" height="50" relative="1" as="geometry">
            <mxPoint x="775.9999999999998" y="559.5" as="sourcePoint" />
            <mxPoint x="839.0000000000002" y="560" as="targetPoint" />
            <Array as="points">
              <mxPoint x="776" y="538.5" />
              <mxPoint x="839" y="538.5" />
            </Array>
          </mxGeometry>
        </mxCell>
        <mxCell id="w-vlI6BWpfgUv6OrkUYH-76" value="" style="verticalLabelPosition=bottom;html=1;verticalAlign=top;align=center;shape=mxgraph.floorplan.windowBow;strokeWidth=1;fontSize=11;" parent="WULDpAhUbFoE8WIX5EqT-1" vertex="1">
          <mxGeometry x="73.5" y="550" width="21" height="11" as="geometry" />
        </mxCell>
        <mxCell id="w-vlI6BWpfgUv6OrkUYH-77" value="6" style="text;html=1;strokeColor=none;fillColor=none;align=center;verticalAlign=middle;whiteSpace=wrap;rounded=0;fontFamily=Helvetica;fontSize=11;fontColor=default;" parent="WULDpAhUbFoE8WIX5EqT-1" vertex="1">
          <mxGeometry x="6" y="542" width="18" height="16" as="geometry" />
        </mxCell>
        <mxCell id="8w_QItESUEHdWM0lPIbg-0" value="FLR.AR(0)&lt;br&gt;FLR.RR(2000)" style="text;html=1;strokeColor=none;fillColor=none;align=left;verticalAlign=middle;whiteSpace=wrap;rounded=0;fontFamily=Helvetica;fontSize=11;fontColor=default;" parent="WULDpAhUbFoE8WIX5EqT-1" vertex="1">
          <mxGeometry x="763" y="287" width="77" height="13" as="geometry" />
        </mxCell>
        <mxCell id="8w_QItESUEHdWM0lPIbg-1" value="" style="endArrow=none;html=1;rounded=0;labelBackgroundColor=default;fontFamily=Helvetica;fontSize=11;fontColor=default;startSize=3;endSize=3;sourcePerimeterSpacing=0;strokeColor=default;shape=connector;jumpStyle=none;jumpSize=6;" parent="WULDpAhUbFoE8WIX5EqT-1" edge="1">
          <mxGeometry width="50" height="50" relative="1" as="geometry">
            <mxPoint x="756" y="307" as="sourcePoint" />
            <mxPoint x="840" y="307" as="targetPoint" />
            <Array as="points">
              <mxPoint x="756" y="277" />
              <mxPoint x="840" y="277" />
            </Array>
          </mxGeometry>
        </mxCell>
        <mxCell id="8w_QItESUEHdWM0lPIbg-2" value="FLR.RR" style="text;html=1;strokeColor=none;fillColor=none;align=center;verticalAlign=middle;whiteSpace=wrap;rounded=0;fontFamily=Helvetica;fontSize=11;fontColor=default;" parent="WULDpAhUbFoE8WIX5EqT-1" vertex="1">
          <mxGeometry x="121" y="452" width="40" height="15" as="geometry" />
        </mxCell>
        <mxCell id="8w_QItESUEHdWM0lPIbg-3" value="" style="verticalLabelPosition=bottom;html=1;verticalAlign=top;align=center;shape=mxgraph.floorplan.windowBow;strokeWidth=1;fontSize=11;" parent="WULDpAhUbFoE8WIX5EqT-1" vertex="1">
          <mxGeometry x="129.5" y="466" width="21" height="11" as="geometry" />
        </mxCell>
      </root>
    </mxGraphModel>
  </diagram>
</mxfile>
